<svg width="708" height="515" viewBox="0 0 708 515" fill="none" xmlns="http://www.w3.org/2000/svg">
<path opacity="0.2" d="M98.6838 0.0456824C93.4318 -0.104171 88.0496 0.0456823 83.1234 1.55725C69.7199 5.67496 63.3667 19.1487 65.4323 30.7917C67.4979 42.4347 75.9948 52.5791 84.8111 61.8505C93.6273 71.1219 103.18 80.289 108.015 91.3716C110.426 96.9032 111.553 103.099 109.103 108.624C105.324 117.14 93.9271 121.896 82.9866 122.886C72.0461 123.877 61.06 121.948 50.0804 121.303C45.4736 121.036 40.7364 121.004 36.3967 122.248C31.6334 123.603 27.6651 126.372 24.0161 129.259C9.75247 140.569 -1.66369 156.017 0.199906 172.221C2.28505 190.614 20.8819 205.15 41.2511 212.948C47.9953 215.555 55.1304 217.626 61.0665 221.314C76.7051 231.042 80.2172 249.285 78.6599 265.384C77.1026 281.484 71.7985 297.603 74.7503 313.559C78.2233 332.121 93.5947 348.892 114.329 356.723C132.802 363.701 155.921 363.239 172.322 353.394C180.317 348.585 186.364 341.907 191.622 335.001C199.43 324.802 205.881 313.632 210.812 301.773C213.099 296.241 215.25 290.292 220.586 286.448C223.844 284.083 228.067 282.761 232.244 281.731C244.833 278.63 258.093 277.783 270.799 275.02C283.506 272.258 296.258 267.104 303.165 257.898C312.939 244.867 308.377 228.175 308.423 212.851C308.501 177.889 333.907 146.596 343.284 112.514C346.347 101.379 347.487 89.0587 340.645 79.1227C335.999 72.3793 328.16 67.5124 319.924 63.753C301.803 55.485 281.205 51.8038 260.947 48.2203C232.791 43.2426 198.601 42.5976 176.779 26.4916C155.869 11.0632 127.218 0.0456824 98.6838 0.0456824Z" transform="translate(1.27151 29.1073)" fill="#0066F4"/>
<g opacity="0.5">
<path opacity="0.5" d="M1.6596 18.2525C0.265163 20.3114 -0.881664 23.3019 0.942836 26.7877C4.52667 33.6288 13.3885 32.2215 17.6957 38.7694C18.8465 40.5839 19.488 42.6746 19.5527 44.8222C19.7156 48.5294 18.5688 51.4483 17.9758 54.7125C17.2003 58.562 17.8047 62.5616 19.6831 66.0102C21.7974 69.6104 24.988 72.4566 28.8055 74.1479C32.1418 75.6204 35.3216 75.9983 38.5145 76.7149C42.4754 77.6232 46.3333 78.933 50.0284 80.6242C51.7846 81.3604 53.4365 82.3243 54.9415 83.4909C56.7772 85.1018 58.4432 86.8964 59.9133 88.8466L73.773 105.956C75.534 108.262 77.4965 110.408 79.6374 112.367C81.9731 114.251 84.5394 115.829 87.2743 117.065C92.8064 119.821 98.5927 122.642 103.395 122.323C108.197 122.003 111.534 117.371 109.259 110.895C107.109 104.731 101.049 99.5383 98.2995 93.3878C93.9663 83.6929 99.6418 76.4478 96.0123 66.7399C92.5327 57.4099 82.7782 51.1551 76.5488 42.633C72.0788 36.5737 69.5896 29.5241 65.5627 23.1586C59.6982 14.0371 50.9667 7.0591 42.7565 3.52777C35.5358 0.458504 27.6291 -0.63654 19.846 0.354785C16.8746 0.680553 13.9489 1.23435 11.8377 3.01305C9.59618 4.90251 9.88288 8.43384 8.42328 10.9423C6.74865 13.8286 3.55578 15.4639 1.6596 18.2525Z" transform="translate(16.1476 210.095)" fill="#0066F4"/>
<path opacity="0.5" d="M0 0C0 0 69.3831 64.8605 97.3631 115.361" transform="translate(26.5061 215.225)" stroke="#535461" stroke-width="2" stroke-miterlimit="10"/>
<path opacity="0.5" d="M0 0.596525C0 0.596525 27.7259 -4.79169 46.9157 16.8198" transform="translate(17.3576 236.683)" stroke="#535461" stroke-width="2" stroke-miterlimit="10"/>
<path opacity="0.5" d="M0 12.8526C0 12.8526 30.6255 -8.56339 41.2207 3.894" transform="translate(37.0622 265.155)" stroke="#535461" stroke-width="2" stroke-miterlimit="10"/>
<path opacity="0.5" d="M0.411707 0C0.411707 0 -2.81375 16.3927 8.79137 43.1709" transform="translate(58.362 213.466)" stroke="#535461" stroke-width="2" stroke-miterlimit="10"/>
<path opacity="0.5" d="M24.5004 0C24.5004 0 21.7897 10.7504 0 2.84721" transform="translate(87.6269 277.089)" stroke="#535461" stroke-width="2" stroke-miterlimit="10"/>
<path opacity="0.5" d="M0 22.9146C0 22.9146 13.2993 7.5448 7.25239 0" transform="translate(90.0052 291.781)" stroke="#535461" stroke-width="2" stroke-miterlimit="10"/>
</g>
<path d="M4.76854 38.8498C1.51051 42.7004 -1.53901 48.0299 0.8589 53.2878C5.47228 63.6082 22.5509 58.5588 28.6434 68.1689C30.4679 71.0422 30.7155 74.554 30.292 77.6879C29.471 83.8189 26.4345 89.0246 24.3363 94.6279C22.2381 100.231 21.1499 107.007 24.1082 112.923C26.9558 118.65 32.9571 122.266 38.7694 123.706C44.5817 125.146 50.4071 124.82 56.2129 125.009C63.1102 125.28 69.9586 126.289 76.6408 128.019C79.5775 128.684 82.3889 129.815 84.9683 131.368C87.9331 133.264 90.331 136.046 92.6768 138.783L113.528 163.078C116.298 166.336 119.126 169.594 122.56 171.985C126.521 174.741 131.03 176.142 135.468 177.49C145.014 180.409 155.016 183.354 164.139 181.354C173.261 179.354 180.917 170.636 178.637 160.544C176.467 150.934 166.68 144.119 163.383 134.704C158.17 119.868 171.039 106.108 167.175 91.0118C163.474 76.5347 147.066 69.0681 137.944 56.8127C131.428 48.0299 128.861 37.045 123.166 27.702C114.942 14.2152 100.607 5.28258 86.3367 1.88807C72.0665 -1.50644 57.7116 0.0767944 44.3276 3.4713C38.6586 4.9112 32.9896 6.72899 28.4936 10.3255C23.7173 14.15 23.1699 19.9552 19.6903 24.5681C15.6569 29.9302 9.16037 33.6375 4.76854 38.8498Z" transform="translate(0 114.265)" fill="#0066F4"/>
<path d="M0 0C0 0 110.558 86.9802 147.758 162.624" transform="translate(25.0661 128.617)" stroke="#535461" stroke-width="2" stroke-miterlimit="10"/>
<path d="M0 4.97147C0 4.97147 53.6729 -12.392 83.106 17.7807" transform="translate(1.21077 163.128)" stroke="#535461" stroke-width="2" stroke-miterlimit="10"/>
<path d="M0 31.4813C0 31.4813 63.9292 -13.4748 80.089 4.05809" transform="translate(25.8415 198.514)" stroke="#535461" stroke-width="2" stroke-miterlimit="10"/>
<path d="M4.20751 0C4.20751 0 -6.81116 28.2702 6.81394 69.3626" transform="translate(81.9663 115.899)" stroke="#535461" stroke-width="2" stroke-miterlimit="10"/>
<path d="M46.8505 0C46.8505 0 38.5035 18.7187 0 12.1707" transform="translate(120.155 205.687)" stroke="#535461" stroke-width="2" stroke-miterlimit="10"/>
<path d="M0 40.3953C0 40.3953 29.6286 10.7634 20.5712 0" transform="translate(114.089 234.622)" stroke="#535461" stroke-width="2" stroke-miterlimit="10"/>
<path opacity="0.1" d="M302.997 162.259C470.338 162.259 605.995 125.936 605.995 81.1294C605.995 36.3228 470.338 0 302.997 0C135.656 0 0 36.3228 0 81.1294C0 125.936 135.656 162.259 302.997 162.259Z" transform="translate(99.6686 341.252)" fill="#0066F4"/>
<path d="M32.7628 0C32.7628 0 9.41572 23.3446 22.5977 57.9868C35.7797 92.629 0 150.238 0 150.238C0 150.238 0.384443 150.179 1.09469 150.055C49.0464 141.586 72.8757 86.7522 46.212 46.0116C36.301 30.8698 28.1624 13.1089 32.7628 0Z" transform="translate(605.902 1)" fill="#0066F4"/>
<path d="M32.7628 0C32.7628 0 19.5808 28.6155 32.7628 51.9601C45.9448 75.3047 35.0239 140.823 0 150.238" transform="translate(605.902 1)" stroke="#535461" stroke-width="2" stroke-miterlimit="10"/>
<path d="M80.2975 0.291562C80.2975 0.291562 53.6533 -3.94995 51.2293 19.9224C48.8053 43.7947 0 47.1045 0 47.1045L0.912226 47.7104C41.2076 74.1563 79.7567 64.5592 73.8922 29.4674C71.7614 16.3845 71.9374 3.24954 80.2975 0.291562Z" transform="translate(599.953 95.1357)" fill="#0066F4"/>
<path opacity="0.2" d="M80.2975 0.291562C80.2975 0.291562 53.6533 -3.94995 51.2293 19.9224C48.8053 43.7947 0 47.1045 0 47.1045L0.912226 47.7104C41.2076 74.1563 79.7567 64.5592 73.8922 29.4674C71.7614 16.3845 71.9374 3.24954 80.2975 0.291562Z" transform="translate(599.953 95.1357)" fill="#F5F5F5"/>
<path d="M80.2975 0C80.2975 0 59.6155 4.56075 61.3162 23.3381C63.0169 42.1154 30.606 64.6781 0 46.7934" transform="translate(599.953 95.4273)" stroke="#535461" stroke-width="2" stroke-miterlimit="10"/>
<path d="M3.40104 93.6063C3.40104 93.6063 -5.23927 64.2872 5.02354 42.6952C9.38417 33.6696 10.6989 23.4731 8.77028 13.6367C7.81905 8.97511 6.44275 4.41049 4.65864 0" transform="translate(157.343 89.4266)" stroke="#535461" stroke-width="2" stroke-miterlimit="10"/>
<path d="M13.0321 6.51537C13.0321 10.1119 6.51607 20.5299 6.51607 20.5299C6.51607 20.5299 0 10.1053 0 6.51537C0 4.78739 0.686507 3.13017 1.90851 1.9083C3.13051 0.686434 4.7879 0 6.51607 0C8.24424 0 9.90163 0.686434 11.1236 1.9083C12.3456 3.13017 13.0321 4.78739 13.0321 6.51537Z" transform="translate(155.342 69.2616)" fill="#0066F4"/>
<path d="M13.0843 10.302C11.1294 13.3186 0 18.5309 0 18.5309C0 18.5309 0.201997 6.24288 2.15682 3.22626C2.60139 2.46614 3.19546 1.80402 3.90312 1.27988C4.61078 0.755751 5.41734 0.380489 6.2741 0.176765C7.13087 -0.0269586 8.02004 -0.0549102 8.88791 0.0945874C9.75578 0.244085 10.5843 0.567932 11.3235 1.04657C12.0627 1.52521 12.6972 2.14871 13.1887 2.8794C13.6801 3.61009 14.0184 4.43281 14.1829 5.29786C14.3475 6.16291 14.335 7.05234 14.1461 7.91242C13.9573 8.7725 13.5961 9.58538 13.0843 10.302Z" transform="translate(166.054 85.3859)" fill="#0066F4"/>
<path d="M15.4496 12.4463C12.2372 14.0621 0 12.948 0 12.948C0 12.948 6.37923 2.44522 9.58513 0.829408C10.3524 0.400175 11.1987 0.130639 12.0729 0.0370369C12.9471 -0.0565656 13.8312 0.0276977 14.672 0.284753C15.5128 0.541809 16.2928 0.966347 16.9652 1.53279C17.6376 2.09923 18.1883 2.79587 18.5843 3.58076C18.9803 4.36566 19.2134 5.22256 19.2695 6.09988C19.3255 6.97721 19.2035 7.8568 18.9106 8.68571C18.6177 9.51462 18.1601 10.2757 17.5653 10.9231C16.9705 11.5705 16.2508 12.0909 15.4496 12.4528V12.4463Z" transform="translate(163.22 117.265)" fill="#0066F4"/>
<path d="M15.1433 11.9352C12.2502 14.0723 0 15.0366 0 15.0366C0 15.0366 4.50913 3.60859 7.40227 1.47155C8.08531 0.913086 8.87466 0.499154 9.72248 0.254831C10.5703 0.0105086 11.4589 -0.0591071 12.3344 0.0502121C13.21 0.159531 14.0542 0.445492 14.8159 0.89078C15.5776 1.33607 16.2409 1.9314 16.7656 2.64067C17.2903 3.34994 17.6655 4.15838 17.8684 5.01697C18.0713 5.87555 18.0978 6.76639 17.9461 7.63549C17.7944 8.50458 17.4677 9.33384 16.986 10.0729C16.5042 10.812 15.8773 11.4456 15.1433 11.9352Z" transform="translate(157.375 143.433)" fill="#0066F4"/>
<path d="M2.2007 11.3906C4.80713 13.8925 16.7902 16.4922 16.7902 16.4922C16.7902 16.4922 13.8514 4.56252 11.2711 2.06062C10.6684 1.41742 9.94139 0.903187 9.13417 0.549045C8.32695 0.194902 7.45626 0.00820686 6.57479 0.00026454C5.69332 -0.00767778 4.8194 0.163296 4.00593 0.502836C3.19245 0.842375 2.45636 1.34342 1.84215 1.97565C1.22794 2.60788 0.748414 3.35815 0.432588 4.18104C0.116763 5.00394 -0.0288076 5.88236 0.00471278 6.76313C0.0382332 7.64391 0.250148 8.50872 0.627605 9.30524C1.00506 10.1018 1.54022 10.8134 2.2007 11.3971V11.3906Z" transform="translate(150.189 93.2233)" fill="#0066F4"/>
<path d="M3.33457 12.1948C6.54699 13.8106 18.7842 12.6965 18.7842 12.6965C18.7842 12.6965 12.4049 2.19373 9.19903 0.577914C7.6682 -0.113672 5.9294 -0.187397 4.34551 0.372112C2.76161 0.93162 1.45501 2.08114 0.698392 3.58076C-0.0582262 5.08039 -0.206393 6.81425 0.284794 8.42049C0.775982 10.0267 1.86858 11.3812 3.33457 12.2013V12.1948Z" transform="translate(142.233 122.52)" fill="#0066F4"/>
<path d="M2.39133 11.5592C5.28447 13.6962 17.5347 14.6605 17.5347 14.6605C17.5347 14.6605 13.0256 3.23255 10.1324 1.09551C8.74037 0.166885 7.04436 -0.190633 5.39585 0.0970317C3.74734 0.384697 2.27272 1.29549 1.27753 2.64069C0.282342 3.98589 -0.15712 5.66236 0.0502376 7.32272C0.257595 8.98307 1.09587 10.5 2.39133 11.5592Z" transform="translate(140.57 153.322)" fill="#0066F4"/>
<path d="M580.171 279.262H524.726C526.009 276.699 526.678 273.873 526.681 271.007V18.5493C526.678 13.6285 524.72 8.91044 521.239 5.43216C517.758 1.95387 513.038 -1.21249e-06 508.117 0H78.9226C73.9991 0 69.2772 1.95566 65.7957 5.43677C62.3142 8.91788 60.3584 13.6393 60.3584 18.5623V271.007C60.3609 273.873 61.0301 276.699 62.3132 279.262H4.9066C3.60529 279.262 2.35727 279.779 1.4371 280.699C0.516937 281.619 0 282.867 0 284.168V288.123C0 295.404 2.89296 302.388 8.04247 307.537C13.192 312.686 20.1762 315.579 27.4587 315.579H557.658C564.941 315.579 571.925 312.686 577.075 307.537C582.224 302.388 585.117 295.404 585.117 288.123V284.168C585.117 283.52 584.989 282.879 584.74 282.281C584.491 281.684 584.126 281.141 583.666 280.685C583.206 280.229 582.661 279.868 582.061 279.624C581.461 279.38 580.819 279.257 580.171 279.262ZM238.54 294.964L233.784 289.563H351.796L346.531 294.964H238.54Z" transform="translate(118.611 74.2784)" fill="url(#paint0_linear)"/>
<path d="M440.604 0H15.1564C6.78575 0 0 6.78502 0 15.1548V267.866C0 276.236 6.78575 283.021 15.1564 283.021H440.604C448.974 283.021 455.76 276.236 455.76 267.866V15.1548C455.76 6.78502 448.974 0 440.604 0Z" transform="translate(184.228 77.8423)" fill="#535461"/>
<path d="M435.612 0H0V231.211H435.612V0Z" transform="translate(193.826 119.098)" fill="#F1F1F4"/>
<path d="M3.83793 7.67511C5.95758 7.67511 7.67591 5.95697 7.67591 3.83755C7.67591 1.71813 5.95758 0 3.83793 0C1.71829 0 0 1.71813 0 3.83755C0 5.95697 1.71829 7.67511 3.83793 7.67511Z" transform="translate(407.794 95.108)" fill="white"/>
<path d="M353.673 0L338.686 15.3502H233.125L219.598 0H4.79583C3.5239 0 2.30405 0.505223 1.40466 1.40452C0.505268 2.30381 0 3.52351 0 4.7953V8.66544C-2.59946e-06 12.1916 0.695138 15.6831 2.04567 18.9405C3.3962 22.1978 5.37563 25.157 7.87078 27.6489C10.3659 30.1407 13.3278 32.1163 16.5871 33.4627C19.8464 34.8092 23.3392 35.5 26.8658 35.4957H545.024C552.14 35.4957 558.965 32.669 563.997 27.6373C569.03 22.6057 571.857 15.7813 571.857 8.66544V4.7953C571.857 3.52351 571.352 2.30381 570.452 1.40452C569.553 0.505223 568.333 0 567.061 0H353.673Z" transform="translate(125.218 350.784)" fill="#535461"/>
<path d="M119.094 0H0V89.7427H119.094V0Z" transform="translate(220.431 136.715)" fill="white"/>
<path opacity="0.2" d="M39.6959 0H0V22.4324H39.6959V0Z" transform="translate(232.082 144.481)" fill="#0066F4"/>
<path d="M46.6029 0H0V5.17972H46.6029V0Z" transform="translate(281.271 144.481)" fill="#E6E8EC"/>
<path d="M32.7954 0H0V5.17973H32.7954V0Z" transform="translate(281.271 153.108)" fill="#E6E8EC"/>
<path d="M46.6029 0H0V5.17972H46.6029V0Z" transform="translate(281.271 161.734)" fill="#E6E8EC"/>
<path d="M95.7927 0H0V5.17973H95.7927V0Z" transform="translate(232.082 170.367)" fill="#E6E8EC"/>
<path d="M95.7927 0H0V5.17971H95.7927V0Z" transform="translate(232.082 178.993)" fill="#E6E8EC"/>
<path d="M95.7927 0H0V5.17971H95.7927V0Z" transform="translate(232.082 187.626)" fill="#E6E8EC"/>
<path d="M88.0256 0H0V5.17973H88.0256V0Z" transform="translate(232.082 196.253)" fill="#E6E8EC"/>
<path d="M95.7927 0H0V5.17973H95.7927V0Z" transform="translate(232.082 204.879)" fill="#E6E8EC"/>
<path d="M95.7927 0H0V5.17973H95.7927V0Z" transform="translate(232.082 213.512)" fill="#E6E8EC"/>
<path d="M119.094 0H0V89.7427H119.094V0Z" transform="translate(351.606 136.715)" fill="white"/>
<path opacity="0.2" d="M39.6959 0H0V22.4324H39.6959V0Z" transform="translate(363.25 144.481)" fill="#0066F4"/>
<path d="M46.6029 0H0V5.17972H46.6029V0Z" transform="translate(412.446 144.481)" fill="#E6E8EC"/>
<path d="M32.7954 0H0V5.17973H32.7954V0Z" transform="translate(412.446 153.108)" fill="#E6E8EC"/>
<path d="M46.6029 0H0V5.17972H46.6029V0Z" transform="translate(412.446 161.734)" fill="#E6E8EC"/>
<path d="M95.7927 0H0V5.17973H95.7927V0Z" transform="translate(363.25 170.367)" fill="#E6E8EC"/>
<path d="M95.7927 0H0V5.17971H95.7927V0Z" transform="translate(363.25 178.993)" fill="#E6E8EC"/>
<path d="M95.7927 0H0V5.17971H95.7927V0Z" transform="translate(363.25 187.626)" fill="#E6E8EC"/>
<path d="M88.0256 0H0V5.17973H88.0256V0Z" transform="translate(363.25 196.253)" fill="#E6E8EC"/>
<path d="M95.7927 0H0V5.17973H95.7927V0Z" transform="translate(363.25 204.879)" fill="#E6E8EC"/>
<path d="M95.7927 0H0V5.17973H95.7927V0Z" transform="translate(363.25 213.512)" fill="#E6E8EC"/>
<path d="M119.094 0H0V89.7427H119.094V0Z" transform="translate(482.774 136.715)" fill="white"/>
<path opacity="0.2" d="M39.6959 0H0V22.4324H39.6959V0Z" transform="translate(494.425 144.481)" fill="#0066F4"/>
<path d="M46.6029 0H0V5.17972H46.6029V0Z" transform="translate(543.615 144.481)" fill="#E6E8EC"/>
<path d="M32.7953 0H0V5.17973H32.7953V0Z" transform="translate(543.615 153.108)" fill="#E6E8EC"/>
<path d="M46.6029 0H0V5.17972H46.6029V0Z" transform="translate(543.615 161.734)" fill="#E6E8EC"/>
<path d="M95.7927 0H0V5.17973H95.7927V0Z" transform="translate(494.425 170.367)" fill="#E6E8EC"/>
<path d="M95.7927 0H0V5.17971H95.7927V0Z" transform="translate(494.425 178.993)" fill="#E6E8EC"/>
<path d="M95.7927 0H0V5.17971H95.7927V0Z" transform="translate(494.425 187.626)" fill="#E6E8EC"/>
<path d="M88.0256 0H0V5.17973H88.0256V0Z" transform="translate(494.425 196.253)" fill="#E6E8EC"/>
<path d="M95.7927 0H0V5.17973H95.7927V0Z" transform="translate(494.425 204.879)" fill="#E6E8EC"/>
<path d="M95.7927 0H0V5.17973H95.7927V0Z" transform="translate(494.425 213.512)" fill="#E6E8EC"/>
<path d="M119.094 0H0V89.7427H119.094V0Z" transform="translate(220.431 237.671)" fill="white"/>
<path opacity="0.2" d="M39.6959 0H0V22.4324H39.6959V0Z" transform="translate(232.082 245.437)" fill="#0066F4"/>
<path d="M46.6029 0H0V5.17973H46.6029V0Z" transform="translate(281.271 245.437)" fill="#E6E8EC"/>
<path d="M32.7954 0H0V5.17973H32.7954V0Z" transform="translate(281.271 254.07)" fill="#E6E8EC"/>
<path d="M46.6029 0H0V5.17971H46.6029V0Z" transform="translate(281.271 262.696)" fill="#E6E8EC"/>
<path d="M95.7927 0H0V5.17973H95.7927V0Z" transform="translate(232.082 271.323)" fill="#E6E8EC"/>
<path d="M95.7927 0H0V5.17973H95.7927V0Z" transform="translate(232.082 279.956)" fill="#E6E8EC"/>
<path d="M95.7927 0H0V5.17973H95.7927V0Z" transform="translate(232.082 288.582)" fill="#E6E8EC"/>
<path d="M88.0256 0H0V5.17973H88.0256V0Z" transform="translate(232.082 297.215)" fill="#E6E8EC"/>
<path d="M95.7927 0H0V5.17971H95.7927V0Z" transform="translate(232.082 305.841)" fill="#E6E8EC"/>
<path d="M95.7927 0H0V5.17973H95.7927V0Z" transform="translate(232.082 314.468)" fill="#E6E8EC"/>
<path d="M119.094 0H0V89.7427H119.094V0Z" transform="translate(351.606 237.671)" fill="white"/>
<path opacity="0.2" d="M39.6959 0H0V22.4324H39.6959V0Z" transform="translate(363.25 245.437)" fill="#0066F4"/>
<path d="M46.6029 0H0V5.17973H46.6029V0Z" transform="translate(412.446 245.437)" fill="#E6E8EC"/>
<path d="M32.7954 0H0V5.17973H32.7954V0Z" transform="translate(412.446 254.07)" fill="#E6E8EC"/>
<path d="M46.6029 0H0V5.17971H46.6029V0Z" transform="translate(412.446 262.696)" fill="#E6E8EC"/>
<path d="M95.7927 0H0V5.17973H95.7927V0Z" transform="translate(363.25 271.323)" fill="#E6E8EC"/>
<path d="M95.7927 0H0V5.17973H95.7927V0Z" transform="translate(363.25 279.956)" fill="#E6E8EC"/>
<path d="M95.7927 0H0V5.17973H95.7927V0Z" transform="translate(363.25 288.582)" fill="#E6E8EC"/>
<path d="M88.0256 0H0V5.17973H88.0256V0Z" transform="translate(363.25 297.215)" fill="#E6E8EC"/>
<path d="M95.7927 0H0V5.17971H95.7927V0Z" transform="translate(363.25 305.841)" fill="#E6E8EC"/>
<path d="M95.7927 0H0V5.17973H95.7927V0Z" transform="translate(363.25 314.468)" fill="#E6E8EC"/>
<path opacity="0.1" d="M119.094 0H0V89.7427H119.094V0Z" transform="translate(482.774 237.671)" fill="black"/>
<path d="M200.617 3.15354e-05H16.8636C14.6511 -0.00425093 12.4595 0.427672 10.4141 1.27109C8.36877 2.11452 6.50978 3.3529 4.94351 4.91537C3.37724 6.47784 2.13442 8.33376 1.28616 10.3769C0.437905 12.4201 0.000852407 14.6105 0 16.8227V271.404C0.00256509 273.615 0.440668 275.803 1.28928 277.845C2.1379 279.886 3.3804 281.74 4.94581 283.301C6.51122 284.862 8.36887 286.099 10.4126 286.942C12.4564 287.785 14.6462 288.217 16.8571 288.214H200.61C202.821 288.217 205.011 287.785 207.055 286.942C209.098 286.099 210.956 284.862 212.521 283.301C214.087 281.74 215.329 279.886 216.178 277.845C217.027 275.803 217.465 273.615 217.467 271.404V16.8227C217.466 14.6116 217.03 12.4223 216.182 10.3799C215.335 8.33761 214.093 6.48229 212.528 4.91998C210.964 3.35768 209.106 2.11904 207.062 1.27485C205.018 0.430662 202.828 -0.00253674 200.617 3.15354e-05Z" transform="translate(87.4314 166.914)" fill="url(#paint1_linear)"/>
<path d="M199.261 0H13.0321C5.83469 0 0 5.83406 0 13.0307V269.137C0 276.334 5.83469 282.168 13.0321 282.168H199.261C206.459 282.168 212.294 276.334 212.294 269.137V13.0307C212.294 5.83406 206.459 0 199.261 0Z" transform="translate(90.0248 170.367)" fill="#535461"/>
<path d="M190.719 0H0V228.787H190.719V0Z" transform="translate(100.809 197.061)" fill="#F1F1F4"/>
<path d="M2.58688 5.17321C4.01557 5.17321 5.17376 4.01514 5.17376 2.5866C5.17376 1.15806 4.01557 0 2.58688 0C1.15819 0 0 1.15806 0 2.5866C0 4.01514 1.15819 5.17321 2.58688 5.17321Z" transform="translate(192.718 180.727)" fill="white"/>
<path d="M7.76714 15.5326C12.0568 15.5326 15.5343 12.0555 15.5343 7.76631C15.5343 3.47709 12.0568 0 7.76714 0C3.47746 0 0 3.47709 0 7.76631C0 12.0555 3.47746 15.5326 7.76714 15.5326Z" transform="translate(187.538 430.962)" fill="white"/>
<path d="M54.3962 0H0V40.9947H54.3962V0Z" transform="translate(109.052 220.438)" fill="white"/>
<path opacity="0.2" d="M18.1342 0H0V10.2487H18.1342V0Z" transform="translate(114.375 223.989)" fill="#0066F4"/>
<path d="M21.288 0H0V2.36508H21.288V0Z" transform="translate(136.843 223.989)" fill="#E6E8EC"/>
<path d="M14.9804 0H0V2.36508H14.9804V0Z" transform="translate(136.843 227.93)" fill="#E6E8EC"/>
<path d="M21.288 0H0V2.36508H21.288V0Z" transform="translate(136.843 231.872)" fill="#E6E8EC"/>
<path d="M43.7554 0H0V2.36508H43.7554V0Z" transform="translate(114.375 235.814)" fill="#E6E8EC"/>
<path d="M43.7554 0H0V2.36508H43.7554V0Z" transform="translate(114.375 239.756)" fill="#E6E8EC"/>
<path d="M43.7554 0H0V2.36508H43.7554V0Z" transform="translate(114.375 243.698)" fill="#E6E8EC"/>
<path d="M40.2107 0H0V2.36508H40.2107V0Z" transform="translate(114.375 247.639)" fill="#E6E8EC"/>
<path d="M43.7554 0H0V2.36508H43.7554V0Z" transform="translate(114.375 251.581)" fill="#E6E8EC"/>
<path d="M43.7554 0H0V2.36508H43.7554V0Z" transform="translate(114.375 255.523)" fill="#E6E8EC"/>
<path d="M54.3962 0H0V40.9947H54.3962V0Z" transform="translate(168.973 220.438)" fill="white"/>
<path opacity="0.2" d="M18.1342 0H0V10.2487H18.1342V0Z" transform="translate(174.291 223.989)" fill="#0066F4"/>
<path d="M21.288 0H0V2.36508H21.288V0Z" transform="translate(196.765 223.989)" fill="#E6E8EC"/>
<path d="M14.9804 0H0V2.36508H14.9804V0Z" transform="translate(196.765 227.93)" fill="#E6E8EC"/>
<path d="M21.288 0H0V2.36508H21.288V0Z" transform="translate(196.765 231.872)" fill="#E6E8EC"/>
<path d="M43.7554 0H0V2.36508H43.7554V0Z" transform="translate(174.291 235.814)" fill="#E6E8EC"/>
<path d="M43.7554 0H0V2.36508H43.7554V0Z" transform="translate(174.291 239.756)" fill="#E6E8EC"/>
<path d="M43.7554 0H0V2.36508H43.7554V0Z" transform="translate(174.291 243.698)" fill="#E6E8EC"/>
<path d="M40.2107 0H0V2.36508H40.2107V0Z" transform="translate(174.291 247.639)" fill="#E6E8EC"/>
<path d="M43.7554 0H0V2.36508H43.7554V0Z" transform="translate(174.291 251.581)" fill="#E6E8EC"/>
<path d="M43.7554 0H0V2.36508H43.7554V0Z" transform="translate(174.291 255.523)" fill="#E6E8EC"/>
<path d="M54.3962 0H0V40.9947H54.3962V0Z" transform="translate(228.889 220.438)" fill="white"/>
<path opacity="0.2" d="M18.1342 0H0V10.2487H18.1342V0Z" transform="translate(234.212 223.989)" fill="#0066F4"/>
<path d="M21.288 0H0V2.36508H21.288V0Z" transform="translate(256.68 223.989)" fill="#E6E8EC"/>
<path d="M14.9805 0H0V2.36508H14.9805V0Z" transform="translate(256.68 227.93)" fill="#E6E8EC"/>
<path d="M21.288 0H0V2.36508H21.288V0Z" transform="translate(256.68 231.872)" fill="#E6E8EC"/>
<path d="M43.7554 0H0V2.36508H43.7554V0Z" transform="translate(234.212 235.814)" fill="#E6E8EC"/>
<path d="M43.7554 0H0V2.36508H43.7554V0Z" transform="translate(234.212 239.756)" fill="#E6E8EC"/>
<path d="M43.7554 0H0V2.36508H43.7554V0Z" transform="translate(234.212 243.698)" fill="#E6E8EC"/>
<path d="M40.2107 0H0V2.36508H40.2107V0Z" transform="translate(234.212 247.639)" fill="#E6E8EC"/>
<path d="M43.7554 0H0V2.36508H43.7554V0Z" transform="translate(234.212 251.581)" fill="#E6E8EC"/>
<path d="M43.7554 0H0V2.36508H43.7554V0Z" transform="translate(234.212 255.523)" fill="#E6E8EC"/>
<path d="M54.3962 0H0V40.9947H54.3962V0Z" transform="translate(109.052 266.553)" fill="white"/>
<path opacity="0.2" d="M18.1342 0H0V10.2487H18.1342V0Z" transform="translate(114.375 270.104)" fill="#0066F4"/>
<path d="M21.288 0H0V2.36508H21.288V0Z" transform="translate(136.843 270.104)" fill="#E6E8EC"/>
<path d="M14.9804 0H0V2.36508H14.9804V0Z" transform="translate(136.843 274.046)" fill="#E6E8EC"/>
<path d="M21.288 0H0V2.36508H21.288V0Z" transform="translate(136.843 277.988)" fill="#E6E8EC"/>
<path d="M43.7554 0H0V2.36508H43.7554V0Z" transform="translate(114.375 281.93)" fill="#E6E8EC"/>
<path d="M43.7554 0H0V2.36506H43.7554V0Z" transform="translate(114.375 285.872)" fill="#E6E8EC"/>
<path d="M43.7554 0H0V2.36508H43.7554V0Z" transform="translate(114.375 289.813)" fill="#E6E8EC"/>
<path d="M40.2107 0H0V2.36508H40.2107V0Z" transform="translate(114.375 293.755)" fill="#E6E8EC"/>
<path d="M43.7554 0H0V2.36508H43.7554V0Z" transform="translate(114.375 297.697)" fill="#E6E8EC"/>
<path d="M43.7554 0H0V2.36508H43.7554V0Z" transform="translate(114.375 301.639)" fill="#E6E8EC"/>
<path d="M54.3962 0H0V40.9947H54.3962V0Z" transform="translate(168.973 266.553)" fill="white"/>
<path opacity="0.2" d="M18.1342 0H0V10.2487H18.1342V0Z" transform="translate(174.291 270.104)" fill="#0066F4"/>
<path d="M21.288 0H0V2.36508H21.288V0Z" transform="translate(196.765 270.104)" fill="#E6E8EC"/>
<path d="M14.9804 0H0V2.36508H14.9804V0Z" transform="translate(196.765 274.046)" fill="#E6E8EC"/>
<path d="M21.288 0H0V2.36508H21.288V0Z" transform="translate(196.765 277.988)" fill="#E6E8EC"/>
<path d="M43.7554 0H0V2.36508H43.7554V0Z" transform="translate(174.291 281.93)" fill="#E6E8EC"/>
<path d="M43.7554 0H0V2.36506H43.7554V0Z" transform="translate(174.291 285.872)" fill="#E6E8EC"/>
<path d="M43.7554 0H0V2.36508H43.7554V0Z" transform="translate(174.291 289.813)" fill="#E6E8EC"/>
<path d="M40.2107 0H0V2.36508H40.2107V0Z" transform="translate(174.291 293.755)" fill="#E6E8EC"/>
<path d="M43.7554 0H0V2.36508H43.7554V0Z" transform="translate(174.291 297.697)" fill="#E6E8EC"/>
<path d="M43.7554 0H0V2.36508H43.7554V0Z" transform="translate(174.291 301.639)" fill="#E6E8EC"/>
<path d="M54.3962 0H0V40.9947H54.3962V0Z" transform="translate(228.889 266.553)" fill="white"/>
<path opacity="0.2" d="M18.1342 0H0V10.2487H18.1342V0Z" transform="translate(234.212 270.104)" fill="#0066F4"/>
<path d="M21.288 0H0V2.36508H21.288V0Z" transform="translate(256.68 270.104)" fill="#E6E8EC"/>
<path d="M14.9805 0H0V2.36508H14.9805V0Z" transform="translate(256.68 274.046)" fill="#E6E8EC"/>
<path d="M21.288 0H0V2.36508H21.288V0Z" transform="translate(256.68 277.988)" fill="#E6E8EC"/>
<path d="M43.7554 0H0V2.36508H43.7554V0Z" transform="translate(234.212 281.93)" fill="#E6E8EC"/>
<path d="M43.7554 0H0V2.36506H43.7554V0Z" transform="translate(234.212 285.872)" fill="#E6E8EC"/>
<path d="M43.7554 0H0V2.36508H43.7554V0Z" transform="translate(234.212 289.813)" fill="#E6E8EC"/>
<path d="M40.2107 0H0V2.36508H40.2107V0Z" transform="translate(234.212 293.755)" fill="#E6E8EC"/>
<path d="M43.7554 0H0V2.36508H43.7554V0Z" transform="translate(234.212 297.697)" fill="#E6E8EC"/>
<path d="M43.7554 0H0V2.36508H43.7554V0Z" transform="translate(234.212 301.639)" fill="#E6E8EC"/>
<path d="M54.3962 0H0V40.9947H54.3962V0Z" transform="translate(109.052 314.494)" fill="white"/>
<path opacity="0.2" d="M18.1342 0H0V10.2487H18.1342V0Z" transform="translate(114.375 318.044)" fill="#0066F4"/>
<path d="M21.288 0H0V2.36508H21.288V0Z" transform="translate(136.843 318.044)" fill="#E6E8EC"/>
<path d="M14.9804 0H0V2.36508H14.9804V0Z" transform="translate(136.843 321.986)" fill="#E6E8EC"/>
<path d="M21.288 0H0V2.36508H21.288V0Z" transform="translate(136.843 325.928)" fill="#E6E8EC"/>
<path d="M43.7554 0H0V2.36506H43.7554V0Z" transform="translate(114.375 329.87)" fill="#E6E8EC"/>
<path d="M43.7554 0H0V2.36506H43.7554V0Z" transform="translate(114.375 333.812)" fill="#E6E8EC"/>
<path d="M43.7554 0H0V2.36508H43.7554V0Z" transform="translate(114.375 337.754)" fill="#E6E8EC"/>
<path d="M40.2107 0H0V2.36508H40.2107V0Z" transform="translate(114.375 341.695)" fill="#E6E8EC"/>
<path d="M43.7554 0H0V2.36508H43.7554V0Z" transform="translate(114.375 345.637)" fill="#E6E8EC"/>
<path d="M43.7554 0H0V2.36508H43.7554V0Z" transform="translate(114.375 349.579)" fill="#E6E8EC"/>
<path d="M54.3962 0H0V40.9947H54.3962V0Z" transform="translate(168.973 314.494)" fill="white"/>
<path opacity="0.2" d="M18.1342 0H0V10.2487H18.1342V0Z" transform="translate(174.291 318.044)" fill="#0066F4"/>
<path d="M21.288 0H0V2.36508H21.288V0Z" transform="translate(196.765 318.044)" fill="#E6E8EC"/>
<path d="M14.9804 0H0V2.36508H14.9804V0Z" transform="translate(196.765 321.986)" fill="#E6E8EC"/>
<path d="M21.288 0H0V2.36508H21.288V0Z" transform="translate(196.765 325.928)" fill="#E6E8EC"/>
<path d="M43.7554 0H0V2.36506H43.7554V0Z" transform="translate(174.291 329.87)" fill="#E6E8EC"/>
<path d="M43.7554 0H0V2.36506H43.7554V0Z" transform="translate(174.291 333.812)" fill="#E6E8EC"/>
<path d="M43.7554 0H0V2.36508H43.7554V0Z" transform="translate(174.291 337.754)" fill="#E6E8EC"/>
<path d="M40.2107 0H0V2.36508H40.2107V0Z" transform="translate(174.291 341.695)" fill="#E6E8EC"/>
<path d="M43.7554 0H0V2.36508H43.7554V0Z" transform="translate(174.291 345.637)" fill="#E6E8EC"/>
<path d="M43.7554 0H0V2.36508H43.7554V0Z" transform="translate(174.291 349.579)" fill="#E6E8EC"/>
<path d="M54.3962 0H0V40.9947H54.3962V0Z" transform="translate(228.889 314.494)" fill="white"/>
<path opacity="0.2" d="M18.1342 0H0V10.2487H18.1342V0Z" transform="translate(234.212 318.044)" fill="#0066F4"/>
<path d="M21.288 0H0V2.36508H21.288V0Z" transform="translate(256.68 318.044)" fill="#E6E8EC"/>
<path d="M14.9805 0H0V2.36508H14.9805V0Z" transform="translate(256.68 321.986)" fill="#E6E8EC"/>
<path d="M21.288 0H0V2.36508H21.288V0Z" transform="translate(256.68 325.928)" fill="#E6E8EC"/>
<path d="M43.7554 0H0V2.36506H43.7554V0Z" transform="translate(234.212 329.87)" fill="#E6E8EC"/>
<path d="M43.7554 0H0V2.36506H43.7554V0Z" transform="translate(234.212 333.812)" fill="#E6E8EC"/>
<path d="M43.7554 0H0V2.36508H43.7554V0Z" transform="translate(234.212 337.754)" fill="#E6E8EC"/>
<path d="M40.2107 0H0V2.36508H40.2107V0Z" transform="translate(234.212 341.695)" fill="#E6E8EC"/>
<path d="M43.7554 0H0V2.36508H43.7554V0Z" transform="translate(234.212 345.637)" fill="#E6E8EC"/>
<path d="M43.7554 0H0V2.36508H43.7554V0Z" transform="translate(234.212 349.579)" fill="#E6E8EC"/>
<path d="M54.3962 0H0V40.9947H54.3962V0Z" transform="translate(109.052 360.609)" fill="white"/>
<path opacity="0.2" d="M18.1342 0H0V10.2487H18.1342V0Z" transform="translate(114.375 364.16)" fill="#0066F4"/>
<path d="M21.288 0H0V2.36508H21.288V0Z" transform="translate(136.843 364.16)" fill="#E6E8EC"/>
<path d="M14.9804 0H0V2.36508H14.9804V0Z" transform="translate(136.843 368.102)" fill="#E6E8EC"/>
<path d="M21.288 0H0V2.36508H21.288V0Z" transform="translate(136.843 372.044)" fill="#E6E8EC"/>
<path d="M43.7554 0H0V2.36508H43.7554V0Z" transform="translate(114.375 375.986)" fill="#E6E8EC"/>
<path d="M43.7554 0H0V2.36508H43.7554V0Z" transform="translate(114.375 379.928)" fill="#E6E8EC"/>
<path d="M43.7554 0H0V2.36508H43.7554V0Z" transform="translate(114.375 383.869)" fill="#E6E8EC"/>
<path d="M40.2107 0H0V2.36508H40.2107V0Z" transform="translate(114.375 387.811)" fill="#E6E8EC"/>
<path d="M43.7554 0H0V2.36508H43.7554V0Z" transform="translate(114.375 391.753)" fill="#E6E8EC"/>
<path d="M43.7554 0H0V2.36508H43.7554V0Z" transform="translate(114.375 395.695)" fill="#E6E8EC"/>
<path d="M54.3962 0H0V40.9947H54.3962V0Z" transform="translate(168.973 360.609)" fill="white"/>
<path opacity="0.2" d="M18.1342 0H0V10.2487H18.1342V0Z" transform="translate(174.291 364.16)" fill="#0066F4"/>
<path d="M21.288 0H0V2.36508H21.288V0Z" transform="translate(196.765 364.16)" fill="#E6E8EC"/>
<path d="M14.9804 0H0V2.36508H14.9804V0Z" transform="translate(196.765 368.102)" fill="#E6E8EC"/>
<path d="M21.288 0H0V2.36508H21.288V0Z" transform="translate(196.765 372.044)" fill="#E6E8EC"/>
<path d="M43.7554 0H0V2.36508H43.7554V0Z" transform="translate(174.291 375.986)" fill="#E6E8EC"/>
<path d="M43.7554 0H0V2.36508H43.7554V0Z" transform="translate(174.291 379.928)" fill="#E6E8EC"/>
<path d="M43.7554 0H0V2.36508H43.7554V0Z" transform="translate(174.291 383.869)" fill="#E6E8EC"/>
<path d="M40.2107 0H0V2.36508H40.2107V0Z" transform="translate(174.291 387.811)" fill="#E6E8EC"/>
<path d="M43.7554 0H0V2.36508H43.7554V0Z" transform="translate(174.291 391.753)" fill="#E6E8EC"/>
<path d="M43.7554 0H0V2.36508H43.7554V0Z" transform="translate(174.291 395.695)" fill="#E6E8EC"/>
<path opacity="0.1" d="M54.3962 0H0V40.9947H54.3962V0Z" transform="translate(228.889 360.609)" fill="black"/>
<path d="M103.703 2.05192e-05H9.35056C8.1252 -0.002549 6.91132 0.236233 5.77825 0.702737C4.64517 1.16924 3.61509 1.85433 2.74681 2.71889C1.87853 3.58345 1.18905 4.61054 0.717756 5.74153C0.246458 6.87252 0.00256442 8.08526 0 9.31049V215.906C0.00256442 217.132 0.246458 218.344 0.717756 219.475C1.18905 220.606 1.87853 221.633 2.74681 222.498C3.61509 223.363 4.64517 224.048 5.77825 224.514C6.91132 224.981 8.1252 225.219 9.35056 225.217H103.703C104.929 225.219 106.142 224.981 107.276 224.514C108.409 224.048 109.439 223.363 110.307 222.498C111.175 221.633 111.865 220.606 112.336 219.475C112.807 218.344 113.051 217.132 113.054 215.906V9.31701C113.052 8.09123 112.809 6.87779 112.338 5.74605C111.867 4.61431 111.178 3.58644 110.309 2.72119C109.441 1.85595 108.411 1.17029 107.277 0.703374C106.144 0.236462 104.929 -0.00254866 103.703 2.05192e-05Z" transform="translate(44.282 253.203)" fill="url(#paint2_linear)"/>
<path d="M104.159 0H7.16768C3.20908 0 0 3.20873 0 7.16691V215.463C0 219.421 3.20908 222.63 7.16768 222.63H104.159C108.118 222.63 111.327 219.421 111.327 215.463V7.16691C111.327 3.20873 108.118 0 104.159 0Z" transform="translate(45.1486 254.937)" fill="#535461"/>
<path d="M94.9261 0H0V181.205H94.9261V0Z" transform="translate(53.3458 275.642)" fill="#F1F1F4"/>
<path d="M0.860126 1.72005C1.33516 1.72005 1.72025 1.335 1.72025 0.860014C1.72025 0.385033 1.33516 0 0.860126 0C0.385094 0 0 0.385033 0 0.860014C0 1.335 0.385094 1.72005 0.860126 1.72005Z" transform="translate(88.7281 264.43)" fill="white"/>
<path d="M18.3362 0H0.651607C0.291734 0 0 0.291703 0 0.651537V1.07503C0 1.43487 0.291734 1.72657 0.651607 1.72657H18.3362C18.6961 1.72657 18.9878 1.43487 18.9878 1.07503V0.651537C18.9878 0.291703 18.6961 0 18.3362 0Z" transform="translate(93.9084 264.423)" fill="white"/>
<path d="M6.0404 12.0795C9.37642 12.0795 12.0808 9.37542 12.0808 6.03976C12.0808 2.7041 9.37642 0 6.0404 0C2.70438 0 0 2.7041 0 6.03976C0 9.37542 2.70438 12.0795 6.0404 12.0795Z" transform="translate(94.3384 459.441)" fill="white"/>
<path opacity="0.1" d="M64.7306 0H0V48.7806H64.7306V0Z" transform="translate(68.4436 286.491)" fill="black"/>
<path d="M64.7306 0H0V48.7806H64.7306V0Z" transform="translate(68.4436 341.37)" fill="white"/>
<path opacity="0.2" d="M21.5747 0H0V12.1968H21.5747V0Z" transform="translate(74.7772 345.591)" fill="#0066F4"/>
<path d="M25.328 0H0V2.81465H25.328V0Z" transform="translate(101.513 345.591)" fill="#E6E8EC"/>
<path d="M17.828 0H0V2.81465H17.828V0Z" transform="translate(101.513 350.283)" fill="#E6E8EC"/>
<path d="M25.328 0H0V2.81465H25.328V0Z" transform="translate(101.513 354.967)" fill="#E6E8EC"/>
<path d="M52.0699 0H0V2.81465H52.0699V0Z" transform="translate(74.7772 359.658)" fill="#E6E8EC"/>
<path d="M52.0699 0H0V2.81461H52.0699V0Z" transform="translate(74.7772 364.349)" fill="#E6E8EC"/>
<path d="M52.0699 0H0V2.81465H52.0699V0Z" transform="translate(74.7772 369.04)" fill="#E6E8EC"/>
<path d="M47.8475 0H0V2.81465H47.8475V0Z" transform="translate(74.7772 373.731)" fill="#E6E8EC"/>
<path d="M52.0699 0H0V2.81465H52.0699V0Z" transform="translate(74.7772 378.422)" fill="#E6E8EC"/>
<path d="M52.0699 0H0V2.81465H52.0699V0Z" transform="translate(74.7772 383.114)" fill="#E6E8EC"/>
<path d="M64.7306 0H0V48.7806H64.7306V0Z" transform="translate(68.4436 396.359)" fill="white"/>
<path opacity="0.2" d="M21.5747 0H0V12.1968H21.5747V0Z" transform="translate(74.7772 400.581)" fill="#0066F4"/>
<path d="M25.328 0H0V2.81465H25.328V0Z" transform="translate(101.513 400.581)" fill="#E6E8EC"/>
<path d="M17.828 0H0V2.81461H17.828V0Z" transform="translate(101.513 405.272)" fill="#E6E8EC"/>
<path d="M25.328 0H0V2.81465H25.328V0Z" transform="translate(101.513 409.963)" fill="#E6E8EC"/>
<path d="M52.0699 0H0V2.81465H52.0699V0Z" transform="translate(74.7772 414.654)" fill="#E6E8EC"/>
<path d="M52.0699 0H0V2.81465H52.0699V0Z" transform="translate(74.7772 419.345)" fill="#E6E8EC"/>
<path d="M52.0699 0H0V2.81465H52.0699V0Z" transform="translate(74.7772 424.037)" fill="#E6E8EC"/>
<path d="M47.8475 0H0V2.81461H47.8475V0Z" transform="translate(74.7772 428.728)" fill="#E6E8EC"/>
<path d="M52.0699 0H0V2.81461H52.0699V0Z" transform="translate(74.7772 433.412)" fill="#E6E8EC"/>
<path d="M52.0699 0H0V2.81465H52.0699V0Z" transform="translate(74.7772 438.103)" fill="#E6E8EC"/>
<path d="M179.836 59.9657C175.457 54.6556 170.153 48.5507 170.896 41.4815C171.496 35.7545 170.056 30.464 170.342 24.724C170.746 16.5667 169.098 10.1752 163.22 4.94333C159.786 1.88762 154.046 -0.516555 152.338 0.0958902C148.95 1.30775 145.255 0.845134 141.769 1.65956C139.124 2.31109 137.358 3.22979 136.27 4.42211C134.074 6.37672 134.035 9.15226 135.038 12.1168C134.162 13.718 133.633 15.4858 133.486 17.305C133.339 19.1243 133.577 20.9541 134.184 22.6753C134.792 24.3965 135.755 25.9703 137.011 27.2944C138.268 28.6184 139.789 29.6629 141.476 30.3598C139.033 31.3762 136.915 33.7282 136.1 38.4975C135.521 41.7745 134.649 44.993 133.494 48.1142C132.976 48.3603 132.445 48.5779 131.904 48.7657C132.021 48.8113 132.145 48.8439 132.269 48.8895C132.015 48.9873 131.754 49.085 131.5 49.1762C131.969 49.3582 132.453 49.4978 132.947 49.5932C131.169 54.2067 128.78 58.5609 125.844 62.5392C125.844 62.5392 118.468 64.168 115.601 61.3208C115.601 61.3208 116.07 61.8681 116.702 62.6891C113.894 61.5228 109.293 59.6268 105.358 58.0631C102.503 56.9295 101.767 58.0632 101.806 59.6399C101.105 59.7213 100.427 59.9429 99.8123 60.2914C98.9688 59.7498 98.0843 59.2749 97.1668 58.8711C95.5248 58.4671 90.2011 55.6134 84.871 65.3865C81.7693 71.0744 73.7937 81.4468 67.7011 89.1284C55.8093 94.5948 40.3337 101.508 34.5865 103.26H30.9114C30.4292 102.472 30.0904 101.957 30.0904 101.957L29.8037 102.146L29.6799 101.957C29.6799 101.957 22.4405 106.968 15.0904 107.007C14.0446 106.99 13.004 106.854 11.9888 106.603C8.60692 105.749 6.22855 105.371 4.52785 105.404C2.51439 105.371 1.37408 105.847 0.66383 106.746C0.571326 106.864 0.486455 106.988 0.409714 107.117C0.330831 107.25 0.259042 107.387 0.194672 107.528C0.129512 107.671 0.0708679 107.821 0.0122233 107.977C-0.0103626 108.114 -0.00156699 108.255 0.0379352 108.388C0.0774374 108.521 0.146622 108.644 0.24029 108.746C0.338187 108.887 0.444818 109.022 0.559571 109.15L0.761567 109.372C2.21745 110.727 3.79442 111.946 5.47269 113.014C6.07869 113.424 6.71726 113.841 7.38842 114.271L8.65904 115.079L9.79285 115.789L10.249 116.07L10.7572 116.382L11.663 116.936L12.2038 117.262L13.2203 117.868L14.0413 118.356C16.1916 119.659 18.3419 120.858 20.2707 121.946L21.626 122.709L21.7563 122.78L22.623 123.262L24.1282 124.096L25.1643 124.663L25.6464 124.93L26.1677 125.211L26.272 125.269L27.1712 125.758C27.3564 125.788 27.546 125.779 27.7271 125.729C27.9081 125.68 28.0764 125.592 28.2203 125.471C28.4809 124.364 29.1195 121.992 29.7972 121.81C30.4748 121.627 33.4331 116.441 34.2737 112.988H42.2689C43.8404 112.856 45.4012 112.618 46.9409 112.278C44.8754 113.75 42.8293 114.675 41.2394 114.278C37.8771 113.444 34.6907 115.49 34.3715 117.535L34.3324 117.659C34.3324 117.698 34.3324 117.744 34.3324 117.783C34.3324 117.822 34.3324 117.881 34.3324 117.933C34.3324 117.985 34.3324 118.018 34.3324 118.057C34.3324 118.096 34.3324 118.154 34.3324 118.207C34.3324 118.259 34.3324 118.291 34.3324 118.33C34.3324 118.369 34.3324 118.435 34.3324 118.48C34.3324 118.526 34.3324 118.558 34.3324 118.597C34.3324 118.637 34.3324 118.708 34.3715 118.76C34.4106 118.812 34.3715 118.832 34.3715 118.865C34.3957 118.936 34.424 119.005 34.4562 119.073V119.125C34.5005 119.211 34.5505 119.294 34.606 119.373L34.6712 119.458L34.8015 119.62L34.8927 119.712L35.0426 119.855L35.1534 119.946L35.3293 120.076L35.4596 120.161L35.6747 120.285L35.818 120.363L36.0852 120.487L36.222 120.546C36.3654 120.604 36.5152 120.663 36.6781 120.715C36.841 120.767 37.2385 120.884 37.5839 120.969L37.9292 121.054L38.431 121.171L38.6981 121.23L39.7928 121.451L40.3271 121.549L40.7637 121.627L41.7672 121.803L43.722 122.122L45.4488 122.383L47.6968 122.702L48.192 122.767L49 122.878L50.1599 123.034L50.9548 123.139L53.0074 123.399L53.659 123.477L54.9622 123.634C56.6629 123.836 58.3115 124.031 59.8232 124.201L61.576 124.396L62.4622 124.494L62.8402 124.533L63.9023 124.65L64.4952 124.715L65.2185 124.794L66.2416 124.898H66.3523L67.0039 124.963C67.0855 124.971 67.1679 124.962 67.2458 124.937C67.3238 124.912 67.3956 124.87 67.4569 124.816C67.5181 124.761 67.5674 124.695 67.6016 124.62C67.6358 124.546 67.6541 124.465 67.6555 124.383C67.6555 124.383 67.6555 124.338 67.6555 124.318C67.7175 124.225 67.7514 124.117 67.7533 124.005C67.7697 123.031 67.8921 122.061 68.1182 121.112C68.1638 120.95 68.2159 120.78 68.268 120.617L68.3332 120.428C68.4049 120.226 68.4766 120.024 68.5613 119.816C68.6193 119.669 68.6693 119.519 68.7111 119.366L68.7502 119.223C68.7502 119.145 68.7893 119.06 68.8089 118.975C69.6364 116.161 68.6395 110.916 68.3528 108.857C68.2628 108.193 68.1123 107.539 67.9031 106.902C67.9551 106.908 68.0075 106.908 68.0595 106.902C68.4844 106.744 68.8839 106.524 69.2455 106.251C75.2859 104.094 80.3879 101.631 81.9974 99.1621C84.6155 98.4649 87.3985 98.7547 89.8167 99.9765C92.9444 101.534 116.617 109.254 127.642 112.825C129.597 114.532 131.174 115.529 132.028 115.431C132.028 115.431 146.057 117.698 151.7 113.268C152.202 113.613 152.514 113.802 152.514 113.802C152.514 113.802 160.712 109.73 161.943 104.44C162.341 102.726 162.699 100.192 163.064 97.39C164.967 95.474 166.037 92.8844 166.042 90.184C166.296 81.2905 169.743 71.133 172.297 62.0832C175.399 62.3242 176.598 61.7444 179.465 60.337L179.341 60.1742L179.836 59.9657ZM132.842 73.2831L131.278 72.7553C131.808 72.0477 132.264 71.288 132.64 70.488L132.842 73.2831ZM124.02 77.0229L133.52 82.7238L133.605 83.8836C133.489 84.766 133.515 85.6613 133.683 86.5353C129.5 82.815 124.599 78.2999 124.026 77.0229H124.02ZM120.142 68.7223C119.106 68.2923 118.246 67.9079 117.66 67.5886L119.862 67.7254C119.993 68.0467 120.089 68.3809 120.149 68.7223H120.142ZM94.7298 78.0067C94.7298 78.0067 96.3718 74.3451 100.06 80.45C100.633 81.4012 101.689 82.9063 103.083 84.7827L92.3579 83.3428C93.472 81.7278 94.2722 79.9176 94.7168 78.0067H94.7298Z" transform="translate(174.409 359.439)" fill="url(#paint3_linear)"/>
<path d="M16.8795 5.9817C16.8795 5.9817 9.35998 2.81523 3.43036 0.443631C-2.49927 -1.92796 1.05852 5.9817 1.05852 5.9817C1.05852 5.9817 10.9499 8.75072 10.9499 9.14816C10.9499 9.5456 19.2579 9.93653 19.2579 9.93653L16.8795 5.9817Z" transform="translate(275.854 416.745)" fill="#F7C4A7"/>
<path opacity="0.05" d="M16.8795 5.9817C16.8795 5.9817 9.35998 2.81523 3.43036 0.443631C-2.49927 -1.92796 1.05852 5.9817 1.05852 5.9817C1.05852 5.9817 10.9499 8.75072 10.9499 9.14816C10.9499 9.5456 19.2579 9.93653 19.2579 9.93653L16.8795 5.9817Z" transform="translate(275.854 416.745)" fill="black"/>
<path d="M35.5908 1.83106C35.5908 1.83106 22.1416 -5.29023 19.7633 8.55493C18.2825 16.9834 14.907 24.9656 9.89139 31.8995C9.89139 31.8995 2.76933 33.4827 0 30.7137C0 30.7137 6.72458 38.6234 3.55777 39.4182C3.55777 39.4182 10.6798 44.5589 13.8467 42.9756C17.0135 41.3924 19.3853 30.7137 20.5712 27.9447C21.7572 25.1756 26.1099 1.03619 35.5908 1.83106Z" transform="translate(289.169 389.648)" fill="#575988"/>
<path opacity="0.1" d="M35.5908 1.83106C35.5908 1.83106 22.1416 -5.29023 19.7633 8.55493C18.2825 16.9834 14.907 24.9656 9.89139 31.8995C9.89139 31.8995 2.76933 33.4827 0 30.7137C0 30.7137 6.72458 38.6234 3.55777 39.4182C3.55777 39.4182 10.6798 44.5589 13.8467 42.9756C17.0135 41.3924 19.3853 30.7137 20.5712 27.9447C21.7572 25.1756 26.1099 1.03619 35.5908 1.83106Z" transform="translate(289.169 389.648)" fill="black"/>
<path d="M0 10.3313C0 10.3313 8.30798 19.8242 8.70546 27.7339C9.10294 35.6436 18.1994 19.4268 18.9944 19.0293C19.7893 18.6319 11.0773 5.19069 10.2824 0.844935C9.48742 -3.50082 0 10.3313 0 10.3313Z" transform="translate(317.26 376.398)" fill="#F7C4A7"/>
<path d="M5.23893 0L0 4.74321L2.4696 14.7313L9.19417 8.40485L8.40573 2.07841L5.23893 0Z" transform="translate(317.755 390.789)" fill="#F7C4A7"/>
<path d="M9.09643 0H0L3.55777 8.698L12.2632 6.3264L9.09643 0Z" transform="translate(204.512 461.102)" fill="#F7C4A7"/>
<path opacity="0.1" d="M28.6681 0C28.6681 0 19.2589 6.56097 11.1986 4.51515C3.13819 2.46932 0.961829 3.21205 0.0235146 5.87684C-0.843123 8.30056 22.5105 21.1293 26.2311 23.1556C26.2898 23.1946 26.3572 23.2183 26.4274 23.2246C26.4975 23.2309 26.5681 23.2197 26.6328 23.1919C26.6975 23.1641 26.7542 23.1206 26.7979 23.0653C26.8415 23.0101 26.8707 22.9448 26.8828 22.8755C27.1369 21.8004 27.7494 19.494 28.401 19.3181C29.2546 19.09 33.1577 11.8123 32.9622 8.93907C32.7668 6.06579 28.6681 0 28.6681 0Z" transform="translate(177.942 459.845)" fill="black"/>
<path d="M28.6681 0C28.6681 0 19.2589 6.56097 11.1986 4.51515C3.13819 2.46932 0.961829 3.21205 0.0235146 5.87684C-0.843123 8.30056 22.5105 21.1293 26.2311 23.1556C26.2898 23.1946 26.3572 23.2183 26.4274 23.2246C26.4975 23.2309 26.5681 23.2197 26.6328 23.1919C26.6975 23.1641 26.7542 23.1206 26.7979 23.0653C26.8415 23.0101 26.8707 22.9448 26.8828 22.8755C27.1369 21.8004 27.7494 19.494 28.401 19.3181C29.2546 19.09 33.1577 11.8123 32.9623 8.93907C32.7668 6.06579 28.6681 0 28.6681 0Z" transform="translate(177.551 459.845)" fill="#F3B5B7"/>
<path d="M74.7719 3.55737L48.2645 0C48.2645 0 5.14118 20.569 0 20.9665L1.18593 30.088H9.09645C12.2633 30.088 43.1168 23.3641 47.4696 16.6402C49.9878 15.9694 52.6649 16.2501 54.9891 17.4286C58.9444 19.3832 96.9265 31.6712 96.9265 31.6712L74.7719 3.55737Z" transform="translate(209.256 440.533)" fill="#575988"/>
<path opacity="0.1" d="M74.7719 3.55737L48.2645 0C48.2645 0 5.14118 20.569 0 20.9665L1.18593 30.088H9.09645C12.2633 30.088 43.1168 23.3641 47.4696 16.6402C49.9878 15.9694 52.6649 16.2501 54.9891 17.4286C58.9444 19.3832 96.9265 31.6712 96.9265 31.6712L74.7719 3.55737Z" transform="translate(209.256 440.533)" fill="black"/>
<path d="M4.35273 0L0 5.53807L4.35273 7.90967L10.6863 3.16646L4.35273 0Z" transform="translate(232.596 456.353)" fill="#F7C4A7"/>
<path d="M77.1177 32.7153C77.1177 32.7153 62.8866 20.5315 61.8896 18.3163C60.8927 16.1011 37.5586 1.07666 35.9752 0.679227C34.3918 0.28179 29.2506 -2.48727 24.1095 7.00563C18.9683 16.4985 0 39.4392 0 39.4392C0 39.4392 5.93613 47.7462 7.9105 47.3488C9.88487 46.9514 32.02 28.363 33.6229 19.261C33.6229 19.261 35.2063 15.7037 38.7641 21.6326C42.3219 27.5616 65.2715 56.0468 69.6242 55.6494C69.6242 55.6494 86.6377 58.4184 90.1955 51.6946C93.7532 44.9707 77.1177 32.7153 77.1177 32.7153Z" transform="translate(235.392 417.305)" fill="#575988"/>
<path d="M59.2376 0H0V44.6368H59.2376V0Z" transform="translate(249.278 386.156)" fill="url(#paint4_linear)"/>
<path d="M54.3962 0H0V40.9947H54.3962V0Z" transform="translate(251.695 387.974)" fill="white"/>
<path opacity="0.2" d="M18.1342 0H0V10.2487H18.1342V0Z" transform="translate(257.019 391.525)" fill="#0066F4"/>
<path d="M21.288 0H0V2.36508H21.288V0Z" transform="translate(279.486 391.525)" fill="#E6E8EC"/>
<path d="M14.9805 0H0V2.36508H14.9805V0Z" transform="translate(279.486 395.467)" fill="#E6E8EC"/>
<path d="M21.288 0H0V2.36508H21.288V0Z" transform="translate(279.486 399.408)" fill="#E6E8EC"/>
<path d="M43.7554 0H0V2.36508H43.7554V0Z" transform="translate(257.019 403.35)" fill="#E6E8EC"/>
<path d="M43.7554 0H0V2.36508H43.7554V0Z" transform="translate(257.019 407.292)" fill="#E6E8EC"/>
<path d="M43.7554 0H0V2.36508H43.7554V0Z" transform="translate(257.019 411.234)" fill="#E6E8EC"/>
<path d="M40.2107 0H0V2.36508H40.2107V0Z" transform="translate(257.019 415.176)" fill="#E6E8EC"/>
<path d="M43.7554 0H0V2.36508H43.7554V0Z" transform="translate(257.019 419.117)" fill="#E6E8EC"/>
<path d="M43.7554 0H0V2.36508H43.7554V0Z" transform="translate(257.019 423.059)" fill="#E6E8EC"/>
<path d="M14.4657 0.618968C14.4657 0.618968 9.51998 2.79509 9.1225 11.8906C8.72502 20.986 0 36.4144 0 36.4144L0.788419 54.6118C0.788419 54.6118 10.2824 64.1047 11.0773 70.0402C11.8723 75.9757 18.6034 79.9306 18.6034 79.9306C18.6034 79.9306 26.5139 75.9757 27.7259 70.8091C28.9379 65.6424 29.6807 53.0091 31.6811 48.2594C33.6816 43.5097 32.4696 13.8452 32.4696 13.8452L26.5334 3.55741L23.3666 0L15.0586 9.4929C15.0586 9.4929 10.5104 3.38149 14.4657 0.618968Z" transform="translate(306.156 391.453)" fill="#F3B5B7"/>
<path opacity="0.1" d="M3.56427 48.1359C3.56427 48.1359 2.37836 33.8933 5.93613 30.7333L13.0582 10.5357C13.0582 10.5357 15.6321 0.847289 15.2346 0.0524134C14.8371 -0.742462 5.93613 7.76663 5.93613 7.76663L0 28.7331L1.5834 50.8854L3.56427 48.1359Z" transform="translate(305.387 391.994)" fill="black"/>
<path d="M3.56431 48.3295C3.56431 48.3295 2.3784 34.0868 5.93617 30.9269L13.0582 10.7292C13.0582 10.7292 15.8276 0.838886 15.4301 0.0505265C15.0326 -0.737833 5.93617 7.9602 5.93617 7.9602L0 28.9267L1.58344 51.0789L3.56431 48.3295Z" transform="translate(304.99 391.8)" fill="#575988"/>
<path d="M39.7729 15.1416C39.7729 15.1416 19.977 8.81514 18.8041 7.2319C17.6313 5.64867 4.95748 -4.63258 0.604747 2.48221C-3.74799 9.597 16.8233 11.6037 16.8233 11.6037L37.792 24.2631L39.7729 15.1416Z" transform="translate(271.551 418.662)" fill="#F7C4A7"/>
<path opacity="0.1" d="M27.1048 1.05549L21.2403 0C21.2403 0 11.6487 12.2815 6.65737 11.037C1.66606 9.7926 -2.9343 15.1678 2.34372 16.9009C7.11348 18.458 27.6978 20.6407 31.6335 21.0446C31.714 21.0557 31.7959 21.0496 31.8739 21.0266C31.9518 21.0036 32.024 20.9644 32.0856 20.9114C32.1472 20.8584 32.1968 20.7929 32.2312 20.7193C32.2656 20.6457 32.284 20.5656 32.2851 20.4843C32.3036 18.9582 32.5995 17.4482 33.1582 16.0278C34.2138 13.4217 33.1582 7.87059 32.865 5.75961C32.702 4.51519 32.311 3.31146 31.7116 2.20872L27.1048 1.05549Z" transform="translate(210.698 460.796)" fill="black"/>
<path d="M27.131 1.05549L21.2665 0C21.2665 0 11.6879 12.288 6.66401 11.037C1.64012 9.78609 -2.92765 15.1678 2.35037 16.9009C7.12013 18.458 27.7044 20.6407 31.6401 21.0446C31.7206 21.0557 31.8025 21.0496 31.8805 21.0266C31.9584 21.0036 32.0306 20.9643 32.0922 20.9113C32.1538 20.8584 32.2035 20.7929 32.2379 20.7193C32.2723 20.6456 32.2906 20.5656 32.2917 20.4843C32.3103 18.9582 32.6062 17.4481 33.1649 16.0278C34.2205 13.4216 33.1649 7.87055 32.8716 5.75957C32.7086 4.51515 32.3176 3.31142 31.7183 2.20868L27.131 1.05549Z" transform="translate(210.581 461.181)" fill="#F3B5B7"/>
<path opacity="0.1" d="M12.6607 25.3187C19.6531 25.3187 25.3215 19.6509 25.3215 12.6594C25.3215 5.66779 19.6531 0 12.6607 0C5.66841 0 0 5.66779 0 12.6594C0 19.6509 5.66841 25.3187 12.6607 25.3187Z" transform="translate(307.564 365.965)" fill="black"/>
<path d="M12.6607 25.3187C19.653 25.3187 25.3214 19.6509 25.3214 12.6594C25.3214 5.66779 19.653 0 12.6607 0C5.66839 0 0 5.66779 0 12.6594C0 19.6509 5.66839 25.3187 12.6607 25.3187Z" transform="translate(306.378 365.965)" fill="#F7C4A7"/>
<path d="M17.235 0C17.235 0 32.2676 5.14065 32.2676 15.8259C32.2676 26.5111 23.9596 43.5162 23.5621 57.3614C23.1646 71.2065 1.40747 69.2258 1.40747 69.2258C1.40747 69.2258 -1.75934 22.5497 1.40747 18.9858C4.57428 15.4219 18.8184 1.58324 17.235 0Z" transform="translate(314.262 391.082)" fill="#575988"/>
<path opacity="0.1" d="M22.2614 10.3785C22.2614 10.3785 16.7227 34.9024 3.66446 30.5762C3.66446 30.5762 -3.06012 40.4665 1.70964 44.8188C1.70964 44.8188 13.1845 47.5878 20.6975 40.0691C28.2105 32.5504 33.7362 29.7683 34.9221 20.6468C36.108 11.5253 36.8769 -1.10806 32.9673 0.0777408C29.0576 1.26354 22.2614 10.3785 22.2614 10.3785Z" transform="translate(306.467 402.855)" fill="black"/>
<path d="M22.2614 10.3393C22.2614 10.3393 16.7227 34.8632 3.66446 30.537C3.66446 30.537 -3.06012 40.4273 1.70964 44.7796C1.70964 44.7796 13.1845 47.5486 20.6975 40.0299C28.2105 32.5111 33.7296 29.7421 34.9416 20.6466C36.1536 11.5512 36.8964 -1.1082 32.9868 0.0775956C29.0771 1.26339 22.2614 10.3393 22.2614 10.3393Z" transform="translate(306.864 402.497)" fill="#575988"/>
<path d="M0.690702 0C0.690702 0.0390922 0.690703 0.0782131 0.651607 0.11079C0.368823 0.785789 0.150645 1.48604 0 2.2022C0.091225 1.88946 0.202005 1.55065 0.332326 1.25746C0.499298 0.853324 0.619531 0.431436 0.690702 0Z" transform="translate(243.394 475.938)" fill="#DDDBE2"/>
<path d="M2.6199 2.33904C0.990887 1.80478 0.306702 0.925183 0.280638 0C-0.370969 1.30307 0.0330229 2.73649 2.3332 3.49227C7.10296 5.04944 27.6937 7.23208 31.6229 7.63604C31.704 7.64719 31.7865 7.64086 31.8649 7.61751C31.9433 7.59415 32.0158 7.55428 32.0775 7.50059C32.1392 7.4469 32.1887 7.38062 32.2227 7.30621C32.2567 7.2318 32.2744 7.151 32.2745 7.0692C32.2771 6.92495 32.2257 6.78494 32.1305 6.67651C32.0353 6.56807 31.9032 6.49899 31.7598 6.4828C27.4266 6.0137 7.32451 3.87015 2.6199 2.33904Z" transform="translate(210.63 474.589)" fill="#DDDBE2"/>
<path d="M0.570882 0.840468C0.672114 0.548763 0.80084 0.267351 0.955328 0C0.52793 0.431996 0.208643 0.95884 0.0235146 1.53762C-0.843123 3.96134 22.5105 16.7836 26.2311 18.8164C26.2902 18.8537 26.3574 18.876 26.4271 18.8815C26.4967 18.887 26.5666 18.8755 26.6307 18.8479C26.6949 18.8203 26.7514 18.7775 26.7953 18.7232C26.8392 18.6689 26.8692 18.6047 26.8828 18.5362C26.9046 18.4451 26.8961 18.3493 26.8584 18.2634C26.8208 18.1775 26.7561 18.1063 26.6743 18.0606C22.5431 15.8063 -0.289239 3.23812 0.570882 0.840468Z" transform="translate(177.545 464.184)" fill="#DDDBE2"/>
<path d="M0.60599 0.188931C0.397475 0.24757 0.188966 0.521206 0 0.912128H0.0651647C0.234582 0.866521 0.534321 0.527745 0.899221 0C0.817248 0.0846125 0.716917 0.149244 0.60599 0.188931Z" transform="translate(205.861 478.277)" fill="#DDDBE2"/>
<path opacity="0.1" d="M12.7585 28.5828C11.6442 31.0391 11.4096 33.7951 10.5886 36.4013C9.78897 38.924 8.41732 41.2279 6.58062 43.1334C4.74392 45.0388 2.49183 46.4943 0 47.3862C4.11164 49.0281 8.9596 47.0213 12.1394 43.6985C15.3193 40.3757 17.1763 35.9517 18.9617 31.6516C23.5751 34.7529 23.0148 41.8807 24.5591 47.4318C25.2248 49.8465 26.4012 52.0901 28.0088 54.011C29.6163 55.9319 31.6174 57.4854 33.877 58.5666C36.1287 59.5774 38.5767 60.076 41.0444 60.0264C43.5121 59.9768 45.938 59.3803 48.1473 58.2799C43.9183 53.1197 37.8975 46.044 38.6142 39.1768C39.1942 33.6127 35.1998 29.3647 35.48 23.7875C35.871 15.8648 32.8736 11.8579 27.172 6.77591C23.8553 3.8049 29.0747 -0.390987 24.8002 0.840418C23.119 1.32255 21.3466 -0.462647 19.6981 0.117221C16.44 1.28999 12.8627 0.846914 9.50044 1.63527C-7.98217 5.72693 14.3745 24.9929 12.7585 28.5828Z" transform="translate(304.521 361.183)" fill="black"/>
<path d="M12.7585 28.703C11.6442 31.1593 11.4096 33.9153 10.5886 36.5214C9.78897 39.0441 8.41732 41.3481 6.58062 43.2535C4.74392 45.159 2.49183 46.6144 0 47.5063C4.11164 49.1482 8.9596 47.1415 12.1394 43.8186C15.3193 40.4958 17.1764 36.0719 18.9618 31.7717C23.5752 34.873 23.0148 42.0008 24.5591 47.5519C25.2248 49.9666 26.4012 52.2102 28.0088 54.1311C29.6163 56.052 31.6174 57.6056 33.877 58.6867C36.1287 59.6975 38.5767 60.1961 41.0444 60.1466C43.5121 60.097 45.938 59.5005 48.1473 58.4C43.9183 53.2399 38.295 47.3239 39.0248 40.4828C39.6047 34.9186 38.738 29.2047 39.0248 23.6275C39.4157 15.7048 35.5387 8.07534 29.8632 2.99335C26.5465 0.022338 21.3923 -0.355581 19.7176 0.237318C16.4596 1.41008 12.8823 0.967051 9.51997 1.75541C-7.9822 5.85358 14.3875 25.113 12.7585 28.703Z" transform="translate(304.918 360.665)" fill="#B96B6B"/>
<path d="M11.5321 274.348C34.3384 267.331 47.8006 267.91 47.8006 267.91L45.9305 257.31C46.5147 256.919 47.0449 256.452 47.5074 255.922C47.5074 255.922 45.1681 243.054 47.5074 239.836C49.8466 236.617 56.2845 207.376 56.2845 207.376V197.427C68.0134 193.336 81.7297 169.646 81.7297 169.646L98.9908 214.087C98.9908 214.087 116.245 248.306 118.585 249.472C120.455 250.404 121.387 258.059 121.693 261.102L121.549 261.147C121.621 261.884 121.654 262.34 121.654 262.34L121.791 262.249V262.34C122.08 262.138 122.385 261.959 122.703 261.806C119.334 265.676 114.291 271.24 110.094 274.914C107.781 276.941 111.932 278.504 113.874 278.472C114.978 278.436 116.081 278.592 117.132 278.935C126.964 282.329 143.131 269.937 143.131 269.937L139.084 258.652C140.14 258.567 140.791 258.528 140.791 258.528C140.791 258.528 127.629 212.321 121.484 207.93C119.542 206.514 117.79 204.854 116.271 202.991C113.349 199.44 111.876 194.916 112.147 190.325L114.304 152.413C117.77 151.904 120.005 151.481 120.005 151.481C120.005 151.481 120.813 141.121 120.787 133.173C120.787 129.035 120.618 125.406 120.005 123.986C119.282 122.305 119.054 118.943 119.041 115.568C119.041 111.007 119.419 106.733 119.419 106.733C119.419 106.733 124.097 100.589 130.535 86.5356C133.37 80.3525 134.106 75.4594 134.041 71.9542C134.085 70.3209 133.927 68.6885 133.572 67.0937C133.389 66.3051 133.052 65.5607 132.578 64.904C132.105 64.2474 131.506 63.6916 130.815 63.2692C127.114 61.0018 118.689 55.4051 116.206 49.9843C113.052 43.1041 108.498 42.1268 108.315 42.0877L108.035 40.8759C109.782 39.4318 111.057 37.4987 111.697 35.3248C112.649 32.3928 112.844 29.2655 113.652 26.2879C114.043 24.8546 114.584 23.4668 114.955 22.0334C115.326 20.5908 115.504 19.1053 115.483 17.616C115.554 15.4465 115.107 13.2914 114.18 11.3286C112.668 8.22081 109.658 5.77755 106.23 5.3736C104.341 5.15208 102.249 5.47785 100.698 4.37675C99.6294 3.61445 99.069 2.31788 98.0916 1.41224C96.2345 -0.346905 93.2632 -0.255682 90.8457 0.565255C87.5906 1.68136 84.8017 3.85303 82.9222 6.73531C81.7949 8.4684 81.0065 10.4556 79.5599 11.9476C78.3414 13.192 76.745 13.9869 75.4026 15.0945C74.409 15.8698 73.601 16.857 73.0374 17.9841C72.4737 19.1113 72.1687 20.3499 72.1446 21.6099C72.1446 21.6099 72.1446 21.6751 72.1446 21.7076C72.1446 21.8705 72.1446 22.0334 72.1446 22.1963C72.2098 24.7112 73.9626 27.2131 76.4257 27.7213C77.0706 27.84 77.7301 27.8576 78.3805 27.7734C77.8251 29.8258 77.6899 31.9691 77.9829 34.075C78.276 36.1808 78.9913 38.2058 80.0859 40.0286C81.1805 41.8514 82.632 43.4344 84.3533 44.6828C86.0745 45.9311 88.0301 46.8191 90.1029 47.2935C90.0638 47.502 90.0182 47.7105 89.9726 47.945H90.1094C89.8272 48.9588 89.4745 49.9515 89.0538 50.916H88.8648L89.3405 50.069L82.629 49.6064C80.6748 49.4594 78.7161 49.8255 76.947 50.6684C74.6338 51.7891 72.1055 53.9261 71.7927 57.9657C71.2063 65.5365 56.8709 76.9384 56.8709 76.9384C51.8992 84.8351 19.4296 86.2945 19.4296 86.2945C19.4296 86.2945 19.573 86.4769 19.6381 86.5746L18.9865 86.4509L16.53 86.0013C16.53 86.0013 8.9257 63.4842 1.61467 67.5758C-5.69636 71.6675 14.1907 93.898 14.1907 93.898L19.9379 94.2823L20.5178 94.3214C20.3069 95.7789 20.0043 97.2217 19.6121 98.6411C19.5339 98.9278 19.4752 99.1102 19.4622 99.1558C19.4622 99.1558 34.5795 97.4097 47.4226 97.6899H48.5825L49.4035 97.6508C50.0551 104.707 60.116 119.047 60.116 119.047L66.3258 120.35L66.7949 120.448C64.7939 124.586 62.2521 128.44 59.2363 131.909L57.1902 143.317L57.3531 143.278L57.1902 144.197C57.5409 144.111 57.8653 143.941 58.1351 143.701C54.1277 154.335 47.4813 170.884 42.8614 176.656C35.8436 185.432 36.7167 199.46 36.7167 199.46C36.7167 199.46 29.6989 236.311 29.9922 243.035C30.0261 246.28 29.1478 249.47 27.4574 252.241C26.0808 253.821 24.8711 255.54 23.8475 257.369C18.5825 266.438 10.0986 265.839 10.0986 265.839C2.78757 270.543 11.5321 274.348 11.5321 274.348ZM56.708 95.9633L57.4639 95.6636L57.6398 95.5919L58.3631 95.2792L58.4869 95.2206L59.1385 94.9208L59.2819 94.8557L59.9726 94.5104L60.1355 94.4257L60.7871 94.0804H60.8392L61.4908 93.7025L61.6472 93.6113L62.2988 93.2334L62.4031 93.1682L62.97 92.8229L63.1003 92.7447L63.7063 92.3603L63.8431 92.2691L64.4035 91.8977L64.4557 91.8651L65.0291 91.4677L65.1594 91.3765L65.7067 90.9856L65.7914 90.9269L66.2736 90.5751L66.3779 90.4969L66.8796 90.1125L66.9839 90.0343L67.44 89.676H67.4791L67.9417 89.3046L68.0395 89.2264L68.4761 88.8681L68.5152 88.8355L68.9061 88.5032L68.9713 88.4446L69.3557 88.1123L69.4144 88.0602L69.7663 87.7409L70.1051 87.4347L70.1507 87.3891L70.8023 86.7375L71.7536 86.6594C72.5616 87.7083 72.8809 89.5652 72.9135 91.6958C72.8223 97.1622 71.1672 103.912 71.1672 103.912C71.0261 107.262 70.4433 110.579 69.4339 113.776C68.7204 113.737 68.0202 113.567 67.3683 113.275C67.3683 113.275 67.3292 113.483 67.2706 113.835L66.7102 113.692L63.8627 112.981C63.8627 112.981 61.4974 100.941 56.708 95.9633Z" transform="translate(95.2129 235.477)" fill="url(#paint5_linear)"/>
<path d="M27.5083 0L32.9362 15.1222C32.9362 15.1222 18.073 26.5241 8.41622 24.1655C6.96171 23.804 5.47962 23.5643 3.9853 23.4489C1.98487 23.299 -1.45561 21.846 0.668628 19.9892C7.52353 13.995 16.659 2.86026 16.659 2.86026L27.5083 0Z" transform="translate(203.733 487.216)" fill="#4F4D59"/>
<path d="M37.1101 3.47559L39.6774 18.0375C39.6774 18.0375 26.541 17.4641 4.26911 24.3183C4.26911 24.3183 -4.29952 20.6045 2.84209 16.0372C2.84209 16.0372 11.124 16.6106 16.2652 7.75619C21.4064 -1.0982 24.5471 0.0485361 24.5471 0.0485361L37.1101 3.47559Z" transform="translate(103.896 482.314)" fill="#4F4D59"/>
<path d="M87.3805 27.1821L84.8653 71.4867C84.5958 76.2086 86.1625 80.852 89.2376 84.4458C90.6278 86.0958 92.2118 87.5724 93.9552 88.8436C99.95 93.1242 112.8 138.237 112.8 138.237C112.8 138.237 98.2363 139.09 94.2419 141.95C94.2419 141.95 93.3883 130.529 91.1012 129.389C88.814 128.249 71.97 94.8573 71.97 94.8573L55.1129 51.4519C55.1129 51.4519 41.6898 74.5815 30.2671 78.5754V88.2833C30.2671 88.2833 23.9857 116.834 21.6985 119.974C19.4114 123.114 21.6985 135.676 21.6985 135.676C21.6985 135.676 15.1303 143.957 0 135.103C0 135.103 4.85447 129.675 4.56125 123.108C4.26803 116.54 11.1425 80.5756 11.1425 80.5756C11.1425 80.5756 10.2889 66.8933 17.1373 58.3061C23.9857 49.7188 35.3823 16.9074 35.3823 16.9074L43.2406 0L87.3805 27.1821Z" transform="translate(121.589 352.96)" fill="#787C9C"/>
<g opacity="0.1">
<path opacity="0.1" d="M67.526 138.237C67.526 138.237 54.6763 93.1242 48.6815 88.8436C46.8386 87.4963 45.1726 85.9224 43.7228 84.1591C40.7894 80.6139 39.3148 76.0856 39.5981 71.4932L42.1134 27.1886L0 1.23141L0.573417 0L44.6807 27.1821L42.1655 71.4866C41.8821 76.0791 43.3568 80.6074 46.2901 84.1525C47.7399 85.9159 49.4059 87.4898 51.2489 88.8371C57.2437 93.1177 70.0933 138.23 70.0933 138.23C70.0933 138.23 55.5299 139.084 51.5356 141.944C51.5356 141.944 51.503 141.501 51.4313 140.778C57.0482 138.856 67.526 138.237 67.526 138.237Z" transform="translate(164.145 352.973)" fill="black"/>
<path opacity="0.1" d="M7.64988 84.2242C7.64988 84.2242 5.36274 71.6626 7.64988 68.5222C9.93702 65.3818 16.2185 36.8314 16.2185 36.8314V27.1235C27.6412 23.1231 41.0643 0 41.0643 0L42.0612 2.57358C38.1907 8.71106 27.8627 23.9505 18.7924 27.1235V36.8314C18.7924 36.8314 12.5109 65.3818 10.2237 68.5222C7.93657 71.6626 10.2237 84.2242 10.2237 84.2242C10.2237 84.2242 7.03735 88.2312 0 87.6904C5.24544 87.2408 7.64988 84.2242 7.64988 84.2242Z" transform="translate(132.933 404.432)" fill="black"/>
</g>
<path d="M13.8845 26.2142L19.4949 26.5856L22.4532 26.7811V19.6142L18.5435 18.9105L16.1391 18.474C16.1391 18.474 8.7173 -3.50887 1.57568 0.485052C-5.56593 4.47898 13.8845 26.2142 13.8845 26.2142Z" transform="translate(96.8549 304.249)" fill="#714B4F"/>
<path d="M21.6985 0C21.6985 0 25.4127 14.2752 26.553 23.1296C27.6933 31.984 0 24.8431 0 24.8431C0 24.8431 10.5625 11.9948 4.56125 5.14064L21.6985 0Z" transform="translate(178.989 271.649)" fill="#714B4F"/>
<path d="M2.00042 48.533L1.42702 53.9603L10.2758 53.387L19.1246 45.6793L27.9735 20.8362L33.6946 11.9948L37.9757 6.56751L36.2619 0C36.2619 0 35.48 0.651541 34.1572 1.694C29.811 5.02336 19.6068 11.9362 12.1525 10.0272C11.8076 9.94117 11.4681 9.83455 11.136 9.7079L0 28.837L2.00042 48.533Z" transform="translate(168.706 282.503)" fill="#E6E6F0"/>
<path opacity="0.1" d="M86.8071 0C86.8071 0 91.3683 0.853505 94.5156 7.70768C96.933 12.9786 105.085 18.4124 108.727 20.6472C109.422 21.0719 110.024 21.6315 110.498 22.2929C110.973 22.9542 111.31 23.7039 111.49 24.4978C112.226 27.7555 112.506 33.8148 108.506 42.5454C102.224 56.2276 97.6563 62.2478 97.6563 62.2478C97.6563 62.2478 96.516 75.9302 98.2298 79.9501C99.9435 83.9701 98.2298 105.933 98.2298 105.933C98.2298 105.933 68.2558 111.641 58.2537 105.933C48.2515 100.226 49.685 78.1845 49.685 78.1845C49.685 78.1845 40.2628 98.1867 36.8549 98.76L38.8097 87.6252C38.8097 87.6252 49.9457 75.6304 50.5386 60.2151C50.5386 60.2151 53.9661 46.2266 51.1121 42.5128C51.1121 42.5128 2.85404 46.5132 0 43.0862C0 43.0862 31.6942 41.6593 36.5486 33.9646C36.5486 33.9646 50.5386 22.8299 51.1121 15.4088C51.1957 14.0168 51.6327 12.669 52.3817 11.4925C53.1307 10.3161 54.1671 9.34988 55.3931 8.68498C57.3356 7.58078 59.5643 7.08381 61.7919 7.25813L68.2428 7.70117C68.2428 7.70117 57.1133 27.3646 57.7063 29.9707C58.2993 32.5769 57.1329 53.3804 57.1329 53.3804C57.1329 53.3804 69.9826 25.6836 75.6907 22.5432C81.3987 19.4028 87.9474 6.51537 87.9474 6.51537L86.8071 0Z" transform="translate(115.881 280.816)" fill="black"/>
<path opacity="0.1" d="M2.00042 48.533L1.42702 53.9603L10.2758 53.387L19.1246 45.6793L27.9735 20.8362L33.6946 11.9948L37.9757 6.56751L36.2619 0C36.2619 0 35.48 0.651541 34.1572 1.694L34.5482 3.94831C34.5482 3.94831 27.98 16.8422 22.2719 19.9827C16.5638 23.1231 3.71415 50.8199 3.71415 50.8199C3.71415 50.8199 4.85446 29.9707 4.28757 27.4102C3.8966 25.664 8.90095 16.0409 12.1525 10.0272C11.8076 9.94117 11.4681 9.83455 11.136 9.7079L0 28.837L2.00042 48.533Z" transform="translate(168.706 282.503)" fill="black"/>
<path opacity="0.1" d="M0.951351 7.67513L3.90964 7.87058V0.703671L0 0C1.37489 1.8243 1.32928 4.99079 0.951351 7.67513Z" transform="translate(115.398 323.166)" fill="black"/>
<path d="M86.8071 0C86.8071 0 91.3683 0.853505 94.5156 7.70768C96.933 12.9786 105.085 18.4124 108.727 20.6472C109.422 21.0719 110.024 21.6315 110.498 22.2928C110.973 22.9542 111.31 23.7039 111.49 24.4978C112.226 27.7555 112.506 33.8148 108.506 42.5454C102.224 56.2276 97.6563 62.2478 97.6563 62.2478C97.6563 62.2478 96.516 75.9301 98.2298 79.9501C99.9435 83.9701 98.2298 105.933 98.2298 105.933C98.2298 105.933 68.2558 111.641 58.2537 105.933C48.2515 100.226 49.685 78.2365 49.685 78.2365C49.685 78.2365 40.2628 98.2192 36.8549 98.7861L38.8097 87.6513C38.8097 87.6513 49.9457 75.6565 50.5386 60.2411C50.5386 60.2411 53.9661 46.2526 51.1121 42.5388C51.1121 42.5388 39.9761 54.5336 27.4131 54.2665C14.8501 53.9994 0 55.6934 0 55.6934C0 55.6934 2.85404 46.5719 0 43.1318C0 43.1318 31.6942 41.7049 36.5486 34.0102C36.5486 34.0102 50.5386 22.8755 51.1121 15.4544C51.192 14.0572 51.6279 12.7036 52.3784 11.5222C53.1288 10.3408 54.1688 9.3709 55.3996 8.70453C57.3421 7.60032 59.5708 7.10333 61.7984 7.27766L68.2493 7.7207C68.2493 7.7207 57.1133 27.4102 57.7063 29.9772C58.2993 32.5443 57.1329 53.387 57.1329 53.387C57.1329 53.387 69.9826 25.6901 75.6907 22.5497C81.3987 19.4093 87.9669 6.51537 87.9669 6.51537L86.8266 0" transform="translate(115.881 279.93)" fill="#67647E"/>
<path opacity="0.1" d="M46.8178 0C46.8178 0 39.9629 23.1296 35.9685 25.9833C31.9742 28.837 7.70181 43.3989 0.560193 39.9718C0.560193 39.9718 -1.15353 48.5395 1.4138 50.5332C1.4138 50.5332 28.0385 49.4908 28.2535 49.393C28.2535 49.393 45.671 47.1061 48.525 38.5449C51.379 29.9837 54.8065 15.4154 54.8065 15.4154L46.8178 0Z" transform="translate(162.151 309.907)" fill="black"/>
<path d="M0.996958 2.85374C1.54756 2.85374 1.99392 2.2149 1.99392 1.42687C1.99392 0.638831 1.54756 0 0.996958 0C0.446353 0 0 0.638831 0 1.42687C0 2.2149 0.446353 2.85374 0.996958 2.85374Z" transform="translate(171.424 333.18)" fill="#BA7855"/>
<path d="M0.996958 2.8537C1.54756 2.8537 1.99392 2.2149 1.99392 1.42687C1.99392 0.638831 1.54756 0 0.996958 0C0.446353 0 0 0.638831 0 1.42687C0 2.2149 0.446353 2.8537 0.996958 2.8537Z" transform="translate(168.57 343.174)" fill="#BA7855"/>
<g opacity="0.1">
<path opacity="0.1" d="M32.0916 105.673C32.0916 105.673 33.8054 83.69 32.0916 79.6895C30.3779 75.6891 31.5182 61.9872 31.5182 61.9872C31.5182 61.9872 36.0795 55.9931 42.3675 42.2848C46.3684 33.5542 46.0816 27.4949 45.3518 24.2372C45.1712 23.4428 44.833 22.6927 44.3573 22.0314C43.8817 21.37 43.2782 20.8107 42.5825 20.3866C38.94 18.1518 30.7884 12.718 28.3775 7.44706C26.6051 3.58345 24.3831 1.62233 22.7737 0.651537L22.6629 0C22.6629 0 27.2241 0.853525 30.3714 7.7077C32.7889 12.9786 40.9405 18.4125 44.5764 20.6472C45.2721 21.0713 45.8756 21.6306 46.3513 22.2919C46.8269 22.9533 47.1651 23.7034 47.3458 24.4978C48.0821 27.7555 48.3623 33.8148 44.3614 42.5454C38.0799 56.2277 33.5121 62.2479 33.5121 62.2479C33.5121 62.2479 32.3718 75.9301 34.0856 79.9501C35.7993 83.9701 34.0856 105.933 34.0856 105.933C34.0856 105.933 12.6672 110.012 0 107.829C12.7976 109.347 32.0916 105.673 32.0916 105.673Z" transform="translate(180.018 279.897)" fill="black"/>
<path opacity="0.1" d="M2.56733 22.439C2.9583 24.1981 2.56734 34.5445 2.24805 40.8774C0.866645 43.6986 0 45.562 0 45.562C0 45.562 1.14032 24.7128 0.573417 22.1523C0.0325835 19.709 10.0608 1.79173 11.0578 0L13.1364 0.143339C13.1364 0.143339 1.97437 19.8719 2.56733 22.439Z" transform="translate(171.02 287.468)" fill="black"/>
<path opacity="0.1" d="M25.4127 11.7277C37.9757 12.0143 49.1116 0 49.1116 0C49.4484 0.466633 49.6938 0.992779 49.8349 1.55066C46.5769 4.6194 37.4544 12.2228 27.4131 11.9753C14.8501 11.6886 0 13.4021 0 13.4021C0 13.4021 0.0586418 13.2132 0.149867 12.8874C8.54275 12.0324 16.9767 11.6452 25.4127 11.7277Z" transform="translate(115.881 322.162)" fill="black"/>
<path opacity="0.1" d="M10.8493 0C10.8493 0 10.732 1.7852 10.7971 4.46301C7.82581 10.3268 2.41746 20.4387 0 20.8427L0.423541 18.4971C4.58079 13.2783 10.8493 0 10.8493 0Z" transform="translate(152.716 357.873)" fill="black"/>
</g>
<path d="M68.2558 0H0V51.4323H68.2558V0Z" transform="translate(98.613 285.819)" fill="url(#paint6_linear)"/>
<path d="M64.7306 0H0V48.7806H64.7306V0Z" transform="translate(100.372 287.142)" fill="white"/>
<path opacity="0.2" d="M21.5747 0H0V12.1968H21.5747V0Z" transform="translate(106.706 291.364)" fill="#0066F4"/>
<path d="M25.328 0H0V2.81465H25.328V0Z" transform="translate(133.441 291.364)" fill="#E6E8EC"/>
<path d="M17.828 0H0V2.81465H17.828V0Z" transform="translate(133.441 296.055)" fill="#E6E8EC"/>
<path d="M25.328 0H0V2.81465H25.328V0Z" transform="translate(133.441 300.746)" fill="#E6E8EC"/>
<path d="M52.0699 0H0V2.81463H52.0699V0Z" transform="translate(106.706 305.437)" fill="#E6E8EC"/>
<path d="M52.0699 0H0V2.81465H52.0699V0Z" transform="translate(106.706 310.128)" fill="#E6E8EC"/>
<path d="M52.0699 0H0V2.81465H52.0699V0Z" transform="translate(106.706 314.813)" fill="#E6E8EC"/>
<path d="M47.8475 0H0V2.81463H47.8475V0Z" transform="translate(106.706 319.504)" fill="#E6E8EC"/>
<path d="M52.0699 0H0V2.81465H52.0699V0Z" transform="translate(106.706 324.195)" fill="#E6E8EC"/>
<path d="M52.0699 0H0V2.81465H52.0699V0Z" transform="translate(106.706 328.886)" fill="#E6E8EC"/>
<path d="M10.4853 24.6301L16.5518 25.9331L21.3346 26.917L18.7672 19.7501L16.9818 19.3005L14.1995 18.6099C14.1995 18.6099 10.2051 -1.35975 2.20989 0.0736304C-5.78532 1.50701 10.4853 24.6301 10.4853 24.6301Z" transform="translate(145.085 330.389)" fill="#714B4F"/>
<path opacity="0.1" d="M0.0375836 6.60656L4.82038 7.61647L2.25304 0.449562L0.467647 0C0.0682586 2.17803 -0.0760697 4.39513 0.0375836 6.60656Z" transform="translate(161.599 349.69)" fill="black"/>
<path d="M46.8178 0C46.8178 0 39.9629 23.1295 35.9685 25.9833C31.9742 28.837 7.70181 43.3989 0.560193 39.9718C0.560193 39.9718 -1.15353 48.5395 1.4138 50.5332C1.4138 50.5332 28.0385 49.4908 28.2535 49.393C28.2535 49.393 45.671 47.1061 48.525 38.5449C51.379 29.9837 54.8065 15.4154 54.8065 15.4154L46.8178 0Z" transform="translate(162.151 309.34)" fill="#67647E"/>
<path opacity="0.1" d="M17.1373 0C17.1373 0 17.7172 2.23478 18.4926 5.48595C16.9084 8.47749 14.3831 10.8642 11.3069 12.2773C8.23061 13.6905 4.77454 14.0514 1.47262 13.3044C2.15681 10.3725 2.00695 7.44056 0 5.11457L17.1373 0Z" transform="translate(183.263 272.222)" fill="black"/>
<path d="M15.417 30.8307C23.9316 30.8307 30.834 23.929 30.834 15.4154C30.834 6.9017 23.9316 0 15.417 0C6.90244 0 0 6.9017 0 15.4154C0 23.929 6.90244 30.8307 15.417 30.8307Z" transform="translate(172.994 254.526)" fill="#714B4F"/>
<path opacity="0.1" d="M7.61729 26.2751C6.4979 26.5859 5.32553 26.6569 4.1768 26.4836C1.77237 25.9884 0.0586446 23.5452 0 21.0889C0.0240498 19.8583 0.32191 18.6486 0.871938 17.5475C1.42197 16.4465 2.21036 15.4817 3.17985 14.7234C4.48306 13.6353 6.0469 12.86 7.23934 11.6481C8.65333 10.2082 9.42223 8.26662 10.4974 6.57262C12.3344 3.75912 15.0591 1.64016 18.2385 0.552424C20.6038 -0.248967 23.4969 -0.340189 25.3149 1.37987C26.2467 2.25944 26.7941 3.52994 27.8367 4.2727C29.3484 5.34773 31.3944 5.02849 33.2385 5.2435C34.9099 5.50042 36.4923 6.16506 37.8458 7.17868C39.1994 8.19231 40.2824 9.52369 40.9991 11.0552C42.3994 14.1577 42.6669 17.6531 41.755 20.9325C41.3966 22.3333 40.8753 23.695 40.4909 25.0893C39.6894 27.9952 39.5004 31.0444 38.5751 33.9111C37.6498 36.7779 35.7406 39.5795 32.854 40.4265C33.0824 37.2126 32.448 33.9961 31.0165 31.1095C30.7795 30.4806 30.3142 29.9642 29.7133 29.6631C29.1981 29.531 28.658 29.531 28.1429 29.6631C24.5277 30.1992 20.839 29.4523 17.7172 27.5521C16.6225 26.9006 14.9153 24.6137 13.7424 24.3857C12.2632 24.1185 9.18114 25.9233 7.61729 26.2751Z" transform="translate(167.403 239.418)" fill="black"/>
<path d="M7.61729 26.2751C6.4979 26.5859 5.32553 26.6569 4.1768 26.4836C1.77237 25.9884 0.0586446 23.5452 0 21.0889C0.0240498 19.8583 0.32191 18.6486 0.871938 17.5475C1.42197 16.4465 2.21036 15.4817 3.17985 14.7233C4.48306 13.6353 6.0469 12.86 7.23934 11.6481C8.65333 10.2082 9.42223 8.26663 10.4974 6.57263C12.3344 3.75913 15.0591 1.64016 18.2385 0.552416C20.6038 -0.248974 23.4969 -0.340177 25.3149 1.37988C26.2467 2.25946 26.7941 3.52996 27.8367 4.27271C29.3484 5.34774 31.3944 5.02848 33.2385 5.24349C34.9099 5.50041 36.4923 6.16505 37.8458 7.17868C39.1994 8.1923 40.2824 9.52368 40.9991 11.0552C42.3994 14.1577 42.6669 17.6531 41.755 20.9325C41.3966 22.3333 40.8753 23.695 40.4909 25.0893C39.6894 27.9952 39.5004 31.0444 38.5751 33.9111C37.6498 36.7779 35.7406 39.5795 32.854 40.4265C33.0824 37.2126 32.448 33.9961 31.0165 31.1095C30.7795 30.4806 30.3142 29.9642 29.7133 29.6631C29.1981 29.531 28.658 29.531 28.1429 29.6631C24.5277 30.1992 20.839 29.4523 17.7172 27.5521C16.6225 26.9006 14.9153 24.6137 13.7424 24.3857C12.2632 24.1185 9.18114 25.9298 7.61729 26.2751Z" transform="translate(167.403 238.845)" fill="#503F43"/>
<path d="M24.2425 12.0665C25.4368 11.093 26.3071 9.77976 26.7382 8.30064C27.064 6.8021 26.4254 5.01037 24.9919 4.46307C23.3889 3.85063 21.6752 4.95824 20.3785 6.0854C19.0818 7.21255 17.5896 8.48957 15.8889 8.2485C16.7631 7.45624 17.417 6.45104 17.787 5.3309C18.1569 4.21076 18.2304 3.01389 18.0001 1.85693C17.9266 1.37738 17.7239 0.926903 17.4137 0.553852C16.521 -0.397392 14.9115 0.0130807 13.8429 0.762348C10.4545 3.14697 9.50972 7.74684 9.49017 11.8906C9.15133 10.3986 9.43804 8.84142 9.425 7.32985C9.41197 5.81829 8.99494 4.07215 7.70476 3.27727C6.90471 2.84744 6.00623 2.63407 5.09833 2.6583C3.57357 2.59967 1.87939 2.75606 0.836822 3.87019C-0.466392 5.25145 -0.121039 7.57744 1.00624 9.08249C2.13352 10.5875 3.84073 11.5583 5.41762 12.6138C6.68144 13.3651 7.75946 14.3918 8.5714 15.6174C8.6669 15.7874 8.74547 15.9663 8.80598 16.1517H18.339C20.4824 15.0629 22.4683 13.6887 24.2425 12.0665Z" transform="translate(31.8987 484.023)" fill="#0066F4"/>
<path d="M24.2425 12.0665C25.4368 11.093 26.3071 9.77976 26.7382 8.30064C27.064 6.8021 26.4254 5.01037 24.9919 4.46307C23.3889 3.85063 21.6752 4.95824 20.3785 6.0854C19.0818 7.21255 17.5896 8.48957 15.8889 8.2485C16.763 7.45624 17.417 6.45104 17.787 5.3309C18.157 4.21076 18.2304 3.01389 18.0001 1.85693C17.9266 1.37738 17.7239 0.926903 17.4137 0.553852C16.521 -0.397392 14.9115 0.0130807 13.8429 0.762348C10.4545 3.14697 9.5097 7.74684 9.49016 11.8906C9.15132 10.3986 9.43804 8.84142 9.42501 7.32985C9.41198 5.81829 8.99494 4.07215 7.70476 3.27727C6.90471 2.84744 6.00623 2.63407 5.09833 2.6583C3.57357 2.59967 1.87941 2.75606 0.836837 3.87019C-0.466377 5.25145 -0.121059 7.57744 1.00622 9.08249C2.1335 10.5875 3.84072 11.5583 5.41761 12.6138C6.68143 13.3651 7.75946 14.3918 8.57141 15.6174C8.66691 15.7874 8.74547 15.9663 8.80598 16.1517H18.352C20.4908 15.0619 22.4723 13.6877 24.2425 12.0665Z" transform="translate(598.145 393.46)" fill="#0066F4"/>
<path d="M105.125 56.4585C103.776 52.5102 101.828 47.5064 100.29 46.3271C100.197 46.2516 100.094 46.1881 99.9841 46.1382H99.7952V41.2582L96.1591 41.838C95.5813 40.0753 95.1455 38.2691 94.8559 36.4368C95.2061 36.7874 95.6522 37.0266 96.1381 37.124C96.624 37.2214 97.1279 37.1727 97.5862 36.9841C97.5276 36.8864 97.4754 36.7821 97.4233 36.6779L97.5862 36.6062C97.0136 35.5968 96.7105 34.4569 96.7065 33.2964C96.7355 32.2364 96.9042 31.1849 97.2082 30.169C97.8598 27.9212 98.961 25.8232 99.5736 23.5624C99.9645 22.1078 100.149 20.6054 100.121 19.0994C100.141 16.5464 99.5607 14.0245 98.4267 11.737C98.1399 11.0764 97.6918 10.4984 97.1235 10.056C96.6118 9.77217 96.0855 9.51555 95.5467 9.28723C94.6428 8.67867 93.8642 7.90232 93.253 7.00033C90.6701 3.85487 87.2118 1.54656 83.316 0.367685C82.3004 -0.0115415 81.1991 -0.0995584 80.1361 0.113576C77.6926 0.765113 76.8064 3.79478 74.8255 5.38453C73.0792 6.78533 70.6813 6.92867 68.4854 7.39778C66.2895 7.86688 64.0805 8.79858 62.5818 10.4926C61.5492 11.6733 60.9858 13.1917 60.9985 14.7601C60.9383 15.4928 61.0673 16.2286 61.3731 16.8971C61.6789 17.5656 62.1511 18.1445 62.7447 18.5782C63.4212 19.0215 64.1873 19.3098 64.9883 19.4224C65.7892 19.5351 66.6052 19.4693 67.3777 19.2297C66.7738 21.3152 66.6075 23.5029 66.8892 25.6557C67.171 27.8084 67.8948 29.8797 69.0151 31.7396C70.1354 33.5994 71.6281 35.2076 73.3994 36.4633C75.1708 37.719 77.1826 38.595 79.3086 39.0364L79.7322 39.7987C81.0417 42.2364 82.0358 44.8308 82.6905 47.5194C79.3412 49.4154 75.6857 51.1941 73.4767 51.3635C73.3877 52.2268 73.2264 53.0812 72.9946 53.9175C72.478 56.015 71.4858 57.9656 70.0949 59.6185C67.091 62.9934 53.5832 88.5076 53.5832 88.5076C53.5832 88.5076 53.1596 89.524 52.4624 91.2571C44.0762 92.2865 30.3859 93.772 26.5675 93.0098L11.5806 78.7541C11.5806 78.7541 6.73263 82.4548 7.15617 86.9504L4.45199 84.3834C4.45199 84.3834 -9.80518 95.2641 12.7078 102.392L46.9628 106.366C43.7048 116.211 40.6553 127.672 41.6001 133.907H41.8803C42.5348 133.906 43.1883 133.856 43.8352 133.757L43.7765 134.865L40.4794 193.933C40.4794 193.933 39.73 204.814 49.8625 209.687C49.8625 209.687 62.243 246.075 57.369 250.206C57.369 250.206 57.9489 250.512 58.9263 250.936L48.7417 259.96C48.7417 259.96 41.2352 261.836 37.1105 261.458C36.3857 261.359 35.6495 261.53 35.0426 261.938C34.4357 262.347 34.0005 262.964 33.82 263.673C33.82 263.752 33.8199 263.83 33.7808 263.908V264.006C33.7808 264.084 33.7808 264.162 33.7808 264.247C33.7808 264.331 33.7808 264.305 33.7808 264.338C33.7808 264.371 33.7808 264.475 33.7808 264.546C33.7808 264.618 33.7808 264.605 33.7808 264.631C33.7808 264.657 33.7808 264.794 33.8264 264.872V264.963C33.8481 265.05 33.8764 265.137 33.9111 265.224L33.9437 265.302C33.9763 265.387 34.0154 265.472 34.061 265.556V265.615C34.1067 265.7 34.1588 265.778 34.2109 265.863L34.2565 265.934C34.3173 266.021 34.3847 266.108 34.4585 266.195L34.5171 266.26C34.5953 266.351 34.68 266.436 34.7648 266.521L34.8038 266.553L35.084 266.794L35.1427 266.84C35.2469 266.925 35.3642 267.003 35.4815 267.081L35.5597 267.133C35.6835 267.211 35.8138 267.289 35.9506 267.361H36.0093L36.4328 267.57H36.4915L36.9868 267.765L37.091 267.804L37.6318 267.98H37.7231L38.316 268.136H38.3616L39.0132 268.267H39.1435L39.8473 268.371H39.9841L40.7791 268.449C42.3234 268.566 44.402 268.612 46.8064 268.599C46.8064 268.599 46.8064 268.658 46.8064 268.69C46.8064 268.723 46.8064 268.827 46.8064 268.899V268.983C46.8064 269.062 46.8065 269.146 46.8521 269.224V269.316C46.8738 269.403 46.902 269.489 46.9367 269.576L46.9693 269.655C47.0019 269.739 47.041 269.824 47.0867 269.909V269.967C47.1323 270.052 47.1844 270.13 47.2365 270.215L47.2821 270.286C47.3429 270.373 47.4103 270.46 47.4841 270.547L47.5428 270.612C47.6209 270.703 47.7057 270.788 47.7904 270.873L47.8295 270.905L48.1097 271.147L48.1683 271.192C48.2725 271.277 48.3898 271.355 48.5071 271.433L48.5918 271.485C48.7156 271.564 48.8459 271.642 48.9828 271.713H49.0415L49.465 271.922H49.5237L50.0189 272.117L50.1231 272.156L50.664 272.332H50.7552L51.3481 272.489H51.3938L52.0454 272.619H52.1757L52.8795 272.723H53.0163L53.8112 272.801C63.5853 273.551 94.7061 271.303 94.7061 271.303V271.218V271.107C95.0123 269.655 96.511 261.211 91.1939 254.969C91.3503 254.806 91.5067 254.63 91.6501 254.448C91.6501 254.448 87.5254 247.32 89.7734 245.065C92.0215 242.811 78.5202 203.797 78.5202 203.797C78.5202 203.797 71.3916 192.545 75.5163 179.788C79.641 167.031 75.1383 153.153 75.1383 153.153C75.1383 153.153 84.9776 150.228 85.1796 138.116C85.1796 137.751 85.1796 137.373 85.1796 136.989C85.3953 137.019 85.6133 137.032 85.8312 137.028C85.97 137.038 86.1094 137.038 86.2482 137.028C86.2482 137.028 84.3716 130.278 86.6261 125.398C88.8807 120.518 93.7547 125.02 98.2573 105.141C101.515 90.7554 104.382 74.2064 105.718 66.1534C106.299 62.9209 106.096 59.5962 105.125 56.4585ZM19.4976 98.6586L16.0767 95.4009C17.2105 95.87 18.468 96.3326 19.8755 96.7756L32.7773 98.2742C27.0171 98.8084 21.6675 99.0951 19.4976 98.6651V98.6586Z" transform="translate(601.958 153.216)" fill="url(#paint7_linear)"/>
<path d="M51.1926 11.4019C51.1926 11.4019 24.6527 15.0896 19.1205 14.008L4.37465 0C4.37465 0 -9.63489 10.6917 12.4872 17.6892L53.773 22.478L51.1926 11.4019Z" transform="translate(602.922 238.563)" fill="#FDC2CC"/>
<path opacity="0.05" d="M51.1926 11.4019C51.1926 11.4019 24.6527 15.0896 19.1205 14.008L4.37465 0C4.37465 0 -9.63489 10.6917 12.4872 17.6892L53.773 22.478L51.1926 11.4019Z" transform="translate(602.922 238.563)" fill="black"/>
<path d="M27.6277 0L14.7258 11.4279C14.7258 11.4279 7.3561 13.2718 3.29659 12.9004C-0.762924 12.5291 -2.60043 19.1682 6.98471 19.9045C16.5698 20.6407 47.1628 18.432 47.1628 18.432C47.1628 18.432 50.1146 6.63916 41.2657 0H27.6277Z" transform="translate(636.072 399.61)" fill="#47465A"/>
<path opacity="0.05" d="M27.6277 0L14.7258 11.4279C14.7258 11.4279 7.3561 13.2718 3.29659 12.9004C-0.762924 12.5291 -2.60043 19.1682 6.98471 19.9045C16.5698 20.6407 47.1628 18.432 47.1628 18.432C47.1628 18.432 50.1146 6.63916 41.2657 0H27.6277Z" transform="translate(636.072 399.61)" fill="black"/>
<path opacity="0.3" d="M47.6215 0C47.5997 1.34332 47.4448 2.68114 47.1589 3.99389C47.1589 3.99389 16.5334 6.2026 6.98082 5.46637C2.37396 5.11454 0.412627 3.3945 0.0607597 1.74611C-0.356269 3.63557 1.31184 6.13746 6.98082 6.57399C16.566 7.31022 47.1589 5.10151 47.1589 5.10151C47.5178 3.4258 47.6732 1.71293 47.6215 0Z" transform="translate(636.076 412.934)" fill="white"/>
<path d="M0 10.3203C0 10.3203 8.11254 21.7483 5.16076 29.4886C2.20898 37.2288 20.6234 21.3769 20.6234 21.3769C20.6234 21.3769 14.7263 11.0566 17.6716 0L0 10.3203Z" transform="translate(678.81 180.303)" fill="#FDC2CC"/>
<path d="M27.6276 0L14.7258 11.428C14.7258 11.428 7.35613 13.2718 3.29662 12.9004C-0.762889 12.5291 -2.60048 19.1682 6.98466 19.9045C16.5698 20.6407 47.1628 18.432 47.1628 18.432C47.1628 18.432 50.1146 6.63916 41.2658 0H27.6276Z" transform="translate(649 404.028)" fill="#47465A"/>
<path d="M37.6034 134.165C35.6812 136.536 32.9705 137.422 30.136 137.585C23.6916 137.891 16.5956 134.165 16.5956 134.165C21.3849 130.112 9.22589 94.3556 9.22589 94.3556C-0.724145 89.5668 0.0122414 78.8751 0.0122414 78.8751L3.27028 20.8427L4.08478 6.26778L14.4062 0L22.5448 6.24172L30.2598 12.1642C30.7613 14.0473 31.0842 15.9735 31.2241 17.9173C32.1168 31.4627 21.411 34.6487 21.411 34.6487C21.411 34.6487 25.8354 48.2854 21.7824 60.8145C17.7294 73.3435 24.7342 84.4001 24.7342 84.4001C24.7342 84.4001 38.0074 122.73 35.8115 124.945C33.6156 127.16 37.6034 134.165 37.6034 134.165Z" transform="translate(642.686 267.283)" fill="#565171"/>
<path opacity="0.05" d="M37.6034 134.165C35.6812 136.536 32.9705 137.422 30.136 137.585C23.6916 137.891 16.5956 134.165 16.5956 134.165C21.3849 130.112 9.22589 94.3556 9.22589 94.3556C-0.724145 89.5668 0.0122414 78.8751 0.0122414 78.8751L3.27028 20.8427L4.08478 6.26778L14.4062 0L22.5448 6.24172L30.2598 12.1642C30.7613 14.0473 31.0842 15.9735 31.2241 17.9173C32.1168 31.4627 21.411 34.6487 21.411 34.6487C21.411 34.6487 25.8354 48.2854 21.7824 60.8145C17.7294 73.3435 24.7342 84.4001 24.7342 84.4001C24.7342 84.4001 38.0074 122.73 35.8115 124.945C33.6156 127.16 37.6034 134.165 37.6034 134.165Z" transform="translate(642.686 267.283)" fill="black"/>
<path d="M43.5013 134.158C37.2328 141.898 22.4935 134.158 22.4935 134.158C22.7938 133.885 23.0183 133.54 23.1451 133.155C25.8493 125.805 14.0226 90.6679 14.0226 90.6679C4.07256 85.8791 2.94528 74.4511 2.94528 74.4511L0.338848 15.3893L0 7.74026L15.5082 1.81779L20.2715 0L36.1251 12.1642C36.8114 14.6756 37.1534 17.2685 37.1416 19.8719C36.9396 31.7755 27.2763 34.6488 27.2763 34.6488C27.2763 34.6488 31.7006 48.2854 27.6476 60.8145C23.5946 73.3435 30.5994 84.4001 30.5994 84.4001C30.5994 84.4001 43.8727 122.73 41.6768 124.945C39.4808 127.16 43.5013 134.158 43.5013 134.158Z" transform="translate(649.69 271.714)" fill="#565171"/>
<path opacity="0.1" d="M40.9079 24.2698C37.7215 23.8137 31.2706 19.9761 27.954 17.8912C26.6898 17.0963 25.8818 16.5882 25.8818 16.5882C25.8818 16.5882 22.5652 7.37541 13.7164 14.3794C10.8393 16.7157 7.59044 18.5525 4.10516 19.8132C2.77219 20.2847 1.3977 20.6293 0 20.8427L0.814509 6.2678L11.1359 0L19.2745 6.24174L24.0378 4.42394L39.8914 16.5882C40.5754 19.0911 40.9173 21.6751 40.9079 24.2698Z" transform="translate(645.924 267.309)" fill="black"/>
<path d="M63.1754 24.7128C61.8722 32.6225 59.0442 48.8783 55.8448 63.0167C51.4204 82.5628 46.6311 78.1258 44.4156 82.9211C42.2001 87.7164 44.0442 94.3491 44.0442 94.3491C40.3561 94.7205 28.1906 86.6088 28.1906 86.6088C28.1906 86.6088 24.8739 77.3961 16.0251 84.4001C7.17629 91.4041 0.171465 91.0328 0.171465 91.0328C-1.67258 78.8686 11.9655 46.435 11.9655 46.435C11.9655 46.435 25.2388 21.3704 28.184 18.0541C29.5504 16.4294 30.5247 14.5123 31.0316 12.4509C31.2578 11.6293 31.4148 10.7902 31.5008 9.94244C36.2901 9.57107 48.0907 1.47246 48.0907 1.47246L57.3044 0V4.7888C57.4115 4.83693 57.5122 4.89821 57.6041 4.97123C59.1224 6.13097 61.0316 11.0501 62.3543 14.9267C63.429 18.0715 63.7111 21.4329 63.1754 24.7128Z" transform="translate(643.608 196.161)" fill="#F68080"/>
<path opacity="0.1" d="M41.6508 1.12836C41.6508 1.12836 32.0656 -6.6119 17.6911 18.4527C3.3167 43.5174 0 39.4583 0 39.4583C0 39.4583 2.95179 50.5344 1.47264 52.7301C1.47264 52.7301 11.4227 51.9939 15.1108 52.7301C18.7989 53.4664 41.6508 24.7336 41.6508 24.7336C41.6508 24.7336 53.4709 8.49725 41.6508 1.12836Z" transform="translate(657.783 204.611)" fill="black"/>
<path opacity="0.1" d="M41.6507 1.12836C41.6507 1.12836 32.0655 -6.6119 17.6911 18.4527C3.31662 43.5174 0 39.4583 0 39.4583C0 39.4583 11.4292 51.9874 15.1107 52.7301C18.7923 53.4729 41.6507 24.714 41.6507 24.714C41.6507 24.714 53.4448 8.50376 41.6507 1.12836Z" transform="translate(657.438 203.132)" fill="black"/>
<path opacity="0.1" d="M1.47264 10.5093C1.62251 7.77936 0.592962 2.97752 0 0.488653C2.24153 0.195461 3.65551 0 3.65551 0L6.26193 11.0761L1.47264 10.5093Z" transform="translate(657.464 244.434)" fill="black"/>
<path opacity="0.1" d="M17.6911 0L0 10.3203C0.744782 11.4086 1.43202 12.5352 2.05902 13.6953C3.07982 13.9032 4.11893 14.0079 5.16068 14.008C9.88483 14.008 12.0873 9.04986 14.9348 5.71399C14.7328 3.03618 16.9026 2.96449 17.6911 0Z" transform="translate(679.182 181.046)" fill="black"/>
<path d="M15.4821 30.961C24.0327 30.961 30.9643 24.0302 30.9643 15.4805C30.9643 6.93087 24.0327 0 15.4821 0C6.93154 0 0 6.93087 0 15.4805C0 24.0302 6.93154 30.961 15.4821 30.961Z" transform="translate(668.496 163.35)" fill="#FDC2CC"/>
<path d="M124.685 0H0V93.9517H124.685V0Z" transform="translate(535.366 196.474)" fill="url(#paint8_linear)"/>
<path d="M119.094 0H0V89.7427H119.094V0Z" transform="translate(538.161 198.579)" fill="white"/>
<path opacity="0.2" d="M39.6959 0H0V22.4324H39.6959V0Z" transform="translate(549.812 206.345)" fill="#0066F4"/>
<path d="M46.6029 0H0V5.17973H46.6029V0Z" transform="translate(599.002 206.345)" fill="#E6E8EC"/>
<path d="M32.7953 0H0V5.17973H32.7953V0Z" transform="translate(599.002 214.978)" fill="#E6E8EC"/>
<path d="M46.6029 0H0V5.17971H46.6029V0Z" transform="translate(599.002 223.604)" fill="#E6E8EC"/>
<path d="M95.7927 0H0V5.17973H95.7927V0Z" transform="translate(549.812 232.231)" fill="#E6E8EC"/>
<path d="M95.7927 0H0V5.17973H95.7927V0Z" transform="translate(549.812 240.863)" fill="#E6E8EC"/>
<path d="M95.7927 0H0V5.17973H95.7927V0Z" transform="translate(549.812 249.49)" fill="#E6E8EC"/>
<path d="M88.0256 0H0V5.17973H88.0256V0Z" transform="translate(549.812 258.123)" fill="#E6E8EC"/>
<path d="M95.7927 0H0V5.17971H95.7927V0Z" transform="translate(549.812 266.749)" fill="#E6E8EC"/>
<path d="M95.7927 0H0V5.17973H95.7927V0Z" transform="translate(549.812 275.375)" fill="#E6E8EC"/>
<path opacity="0.1" d="M1.55669 10.2825C3.11937 8.68062 5.14976 7.61535 7.35601 7.23982C9.50631 6.77722 11.8652 6.63389 13.5854 5.2852C15.5402 3.72803 16.4004 0.77007 18.7983 0.112017C19.8414 -0.0976065 20.9223 -0.0118764 21.9194 0.359585C25.751 1.51527 29.1529 3.78297 31.6935 6.87496C32.2923 7.761 33.0555 8.52405 33.9416 9.12277C34.4715 9.34713 34.9892 9.59941 35.4924 9.87855C36.0445 10.3142 36.479 10.8808 36.7565 11.5269C38.4854 15.0168 38.8838 19.0168 37.8773 22.779C37.2778 25.0007 36.1962 27.0596 35.5576 29.2944C34.919 31.5291 34.7561 34.0115 35.929 35.9857C34.7952 36.5655 33.3616 35.8358 32.6709 34.7803C31.9802 33.7248 31.7456 32.4217 31.3677 31.2034C30.6304 28.8068 29.2487 26.6589 27.3734 24.9942C26.2135 23.9648 24.1153 23.2742 23.3269 24.6033C23.0141 25.118 23.0337 25.7695 22.7665 26.3038C22.2387 27.3463 20.7139 27.5548 19.7039 26.9553C18.7305 26.2834 18.0464 25.2689 17.7882 24.1146C16.27 18.9805 13.6831 15.7489 8.19008 17.9446C6.14404 18.7655 3.7331 19.3193 1.76525 17.912C-0.802085 16.0551 -0.300392 12.3805 1.55669 10.2825Z" transform="translate(662.833 156.025)" fill="black"/>
<path d="M1.55669 10.2825C3.11937 8.68061 5.14976 7.61536 7.35601 7.23983C9.50631 6.77724 11.8652 6.6339 13.5854 5.28522C15.5402 3.72804 16.4004 0.770064 18.7983 0.112011C19.8414 -0.0976122 20.9223 -0.0118623 21.9194 0.359599C25.751 1.51528 29.1529 3.78298 31.6935 6.87497C32.2923 7.76102 33.0555 8.52404 33.9416 9.12276C34.4715 9.34712 34.9892 9.59941 35.4924 9.87855C36.0445 10.3142 36.479 10.8808 36.7565 11.5269C38.4854 15.0167 38.8838 19.0168 37.8773 22.779C37.2778 25.0007 36.1962 27.0596 35.5576 29.2943C34.919 31.5291 34.7561 34.0115 35.929 35.9856C34.7952 36.5655 33.3616 35.8358 32.6709 34.7803C31.9802 33.7248 31.7456 32.4217 31.3677 31.2034C30.6304 28.8068 29.2487 26.6589 27.3734 24.9942C26.2135 23.9648 24.1153 23.2742 23.3269 24.6033C23.0141 25.118 23.0337 25.7695 22.7665 26.3038C22.2387 27.3463 20.7139 27.5547 19.7039 26.9553C18.7305 26.2833 18.0464 25.2689 17.7882 24.1146C16.27 18.9805 13.6831 15.7489 8.19008 17.9446C6.14404 18.7655 3.7331 19.3193 1.76525 17.912C-0.802085 16.0551 -0.300392 12.387 1.55669 10.2825Z" transform="translate(662.833 155.654)" fill="#B96B6B"/>
<path opacity="0.05" d="M26.5791 4.96473H19.0856C19.0856 4.96473 4.33969 12.3336 3.97479 11.9688C3.72718 11.7212 1.44657 12.1447 0 12.4509C0.226219 11.6293 0.383135 10.7902 0.469138 9.94246C5.25845 9.57109 17.0591 1.47248 17.0591 1.47248L26.2728 0V4.7888C26.3819 4.83441 26.4847 4.89352 26.5791 4.96473Z" transform="translate(674.653 196.168)" fill="black"/>
<path opacity="0.3" d="M47.6215 0C47.5997 1.34332 47.4447 2.68118 47.1588 3.99393C47.1588 3.99393 16.5334 6.20264 6.98082 5.46641C2.37396 5.11458 0.412627 3.3945 0.0607597 1.74611C-0.356269 3.63557 1.31184 6.13746 6.98082 6.57399C16.566 7.31022 47.1588 5.10155 47.1588 5.10155C47.5178 3.42584 47.6731 1.71293 47.6215 0Z" transform="translate(648.978 417.358)" fill="white"/>
<g opacity="0.05">
<path opacity="0.05" d="M12.2568 2.60948C7.285 6.5187 2.88662 8.15407 0 8.8056C0 9.07925 0.0521381 9.35289 0.0912345 9.6135C0.0912345 9.6135 7.09598 9.98489 15.9448 2.98086C17.3152 1.80645 18.9353 0.959718 20.682 0.505007C18.7532 -0.387599 15.997 -0.328953 12.2568 2.60948Z" transform="translate(643.884 277.555)" fill="black"/>
<path opacity="0.05" d="M22.7359 10.1379C21.4327 6.22869 19.4779 1.34217 17.9858 0.18243C17.8938 0.109411 17.7931 0.0481301 17.686 0C17.686 0 14.6365 0.104245 14.7342 0.18243C16.2525 1.34217 17.7251 5.88989 19.0479 9.76654C20.1139 12.9089 20.3891 16.2655 19.8493 19.5396C18.5461 27.4493 15.7182 43.7051 12.5188 57.8435C8.09436 77.3896 3.30502 72.9526 1.08956 77.7479C-0.721911 81.6571 0.183797 86.8304 0.574761 88.57C2.15165 89.2215 3.52003 89.632 4.40621 89.5407C4.40621 89.5407 2.56221 82.9081 4.77767 78.1128C6.99314 73.3175 11.7824 77.7414 16.2068 58.2083C19.4062 44.0765 22.2211 27.8141 23.5374 19.9045C24.0761 16.6325 23.8008 13.2783 22.7359 10.1379Z" transform="translate(683.435 200.963)" fill="black"/>
</g>
<path d="M53.7377 22.4846L48.9744 21.9307L12.4845 17.6892C-9.63108 10.6852 4.37198 0 4.37198 0L19.1178 14.008C23.3728 14.8616 40.054 12.8744 47.5279 11.9166C49.7694 11.6234 51.1834 11.428 51.1834 11.428L53.7377 22.4846Z" transform="translate(609.962 233.012)" fill="#FDC2CC"/>
<path d="M41.6508 1.12836C41.6508 1.12836 32.0656 -6.6119 17.6911 18.4527C3.3167 43.5174 0 39.4583 0 39.4583C0 39.4583 2.95179 50.5344 1.47264 52.7301C1.47264 52.7301 11.4227 51.9938 15.1108 52.7301C18.7989 53.4663 41.6508 24.714 41.6508 24.714C41.6508 24.714 53.4709 8.49725 41.6508 1.12836Z" transform="translate(657.783 203.874)" fill="#F68080"/>
<defs>
<linearGradient id="paint0_linear" x2="1" gradientUnits="userSpaceOnUse" gradientTransform="translate(134.726 315.579) scale(315.625 315.592) rotate(-90)">
<stop stop-color="#808080" stop-opacity="0.25"/>
<stop offset="0.54" stop-color="#808080" stop-opacity="0.12"/>
<stop offset="1" stop-color="#808080" stop-opacity="0.1"/>
</linearGradient>
<linearGradient id="paint1_linear" x2="1" gradientUnits="userSpaceOnUse" gradientTransform="translate(29681 216890) scale(96196.7 127491) rotate(-90)">
<stop stop-color="#808080" stop-opacity="0.25"/>
<stop offset="0.54" stop-color="#808080" stop-opacity="0.12"/>
<stop offset="1" stop-color="#808080" stop-opacity="0.1"/>
</linearGradient>
<linearGradient id="paint2_linear" x2="1" gradientUnits="userSpaceOnUse" gradientTransform="translate(4349.75 177536) scale(39079.3 77850.7) rotate(-90)">
<stop stop-color="#808080" stop-opacity="0.25"/>
<stop offset="0.54" stop-color="#808080" stop-opacity="0.12"/>
<stop offset="1" stop-color="#808080" stop-opacity="0.1"/>
</linearGradient>
<linearGradient id="paint3_linear" x2="1" gradientUnits="userSpaceOnUse" gradientTransform="translate(65758.9 100473) scale(34737.2 24294.8) rotate(-90)">
<stop stop-color="#808080" stop-opacity="0.25"/>
<stop offset="0.54" stop-color="#808080" stop-opacity="0.12"/>
<stop offset="1" stop-color="#808080" stop-opacity="0.1"/>
</linearGradient>
<linearGradient id="paint4_linear" x2="1" gradientUnits="userSpaceOnUse" gradientTransform="translate(22662.5 25905.2) scale(5385.29 4057.93)">
<stop stop-color="#808080" stop-opacity="0.25"/>
<stop offset="0.54" stop-color="#808080" stop-opacity="0.12"/>
<stop offset="1" stop-color="#808080" stop-opacity="0.1"/>
</linearGradient>
<linearGradient id="paint5_linear" x2="1" gradientUnits="userSpaceOnUse" gradientTransform="translate(-42512.7 236049) scale(61398.8 -119907) rotate(90)">
<stop stop-color="#808080" stop-opacity="0.25"/>
<stop offset="0.54" stop-color="#808080" stop-opacity="0.12"/>
<stop offset="1" stop-color="#808080" stop-opacity="0.1"/>
</linearGradient>
<linearGradient id="paint6_linear" x2="1" gradientUnits="userSpaceOnUse" gradientTransform="translate(11211 26564.8) scale(5388.12 4060.07) rotate(-90)">
<stop stop-color="#808080" stop-opacity="0.25"/>
<stop offset="0.54" stop-color="#808080" stop-opacity="0.12"/>
<stop offset="1" stop-color="#808080" stop-opacity="0.1"/>
</linearGradient>
<linearGradient id="paint7_linear" x2="1" gradientUnits="userSpaceOnUse" gradientTransform="translate(90371.4 193410) scale(44477.1 114485) rotate(-90)">
<stop stop-color="#808080" stop-opacity="0.25"/>
<stop offset="0.54" stop-color="#808080" stop-opacity="0.12"/>
<stop offset="1" stop-color="#808080" stop-opacity="0.1"/>
</linearGradient>
<linearGradient id="paint8_linear" x2="1" gradientUnits="userSpaceOnUse" gradientTransform="translate(105384 41773.7) scale(17979.6 13547.8) rotate(-90)">
<stop stop-color="#808080" stop-opacity="0.25"/>
<stop offset="0.54" stop-color="#808080" stop-opacity="0.12"/>
<stop offset="1" stop-color="#808080" stop-opacity="0.1"/>
</linearGradient>
</defs>
</svg>
