<svg width="40" height="48" viewBox="0 0 40 48" fill="none" xmlns="http://www.w3.org/2000/svg">
<path d="M39.2 46.4H36.8V43.2H32.8V35.0224C32.8 32.8624 31.7264 30.856 29.9288 29.6576L21.4424 24L29.9288 18.3424C31.7264 17.144 32.8 15.1376 32.8 12.9776V4.8H36.8V1.6H39.2C39.6416 1.6 40 1.2424 40 0.8C40 0.3576 39.6416 0 39.2 0H36.8H36H4H3.2H0.8C0.3584 0 0 0.3576 0 0.8C0 1.2424 0.3584 1.6 0.8 1.6H3.2V4.8H7.2V12.9776C7.2 15.1376 8.2736 17.144 10.0712 18.3424L18.5576 24L10.0712 29.6576C8.2736 30.856 7.2 32.8624 7.2 35.0224V43.2H3.2V46.4H0.8C0.3584 46.4 0 46.7576 0 47.2C0 47.6424 0.3584 48 0.8 48H3.2H4H36H36.8H39.2C39.6416 48 40 47.6424 40 47.2C40 46.7576 39.6416 46.4 39.2 46.4ZM4.8 3.2V1.6H35.2V3.2H32.8H7.2H4.8ZM10.9584 17.0112C9.6072 16.1096 8.8 14.6016 8.8 12.9776V4.8H31.2V12.9776C31.2 14.6016 30.3928 16.1096 29.0416 17.0112L20 23.0384L10.9584 17.0112ZM8.8 35.0224C8.8 33.3984 9.6072 31.8904 10.9584 30.9888L20 24.9616L29.0416 30.9888C30.3928 31.8904 31.2 33.3984 31.2 35.0224V43.2H8.8V35.0224ZM4.8 44.8H7.2H32.8H35.2V46.4H4.8V44.8Z" fill="white"/>
<path d="M2.3336 3.9488C1.8744 3.6424 1.6 3.1296 1.6 2.5776V0.8C1.6 0.3576 1.2416 0 0.8 0C0.3584 0 0 0.3576 0 0.8V2.5776C0 3.6664 0.540801 4.6768 1.4464 5.28L5.1568 7.7536C5.2928 7.844 5.4472 7.888 5.6 7.888C5.8584 7.888 6.112 7.7632 6.2664 7.532C6.5112 7.164 6.412 6.668 6.0448 6.4224L2.3336 3.9488Z" transform="translate(10.4 10.4)" fill="white"/>
<path d="M4.9543 2.60846L1.2439 0.134858C0.875899 -0.110742 0.379898 -0.0115418 0.134298 0.356458C-0.110502 0.724458 -0.0113019 1.22046 0.355898 1.46606L4.0663 3.93966C4.5263 4.24606 4.8007 4.75806 4.8007 5.31086V7.08846C4.8007 7.53086 5.1591 7.88846 5.6007 7.88846C6.0423 7.88846 6.4007 7.53086 6.4007 7.08846V5.31086C6.4007 4.22126 5.8599 3.21166 4.9543 2.60846Z" transform="translate(23.1993 30.3996)" fill="white"/>
</svg>
