<svg width="1440" height="1126" viewBox="0 0 1440 1126" fill="none" xmlns="http://www.w3.org/2000/svg">
<rect width="1440" height="1126" fill="#212121"/>
<path d="M12.5729 0.0163376C10.0524 0.261995 7.64424 1.22675 5.60993 2.80586C3.57562 4.38497 1.99287 6.51808 1.03354 8.97359C0.0742152 11.4291 -0.225037 14.1132 0.168275 16.7344C0.561587 19.3556 1.63244 21.8138 3.26455 23.8421L161.289 222.617C147.88 229.883 138.56 244.643 138.56 261.419V323.366C96.6792 355.011 69.2886 406.573 69.2886 464.732C69.2886 560.805 143.886 639 235.539 639C327.193 639 401.79 560.805 401.79 464.732C401.79 406.573 374.399 355.011 332.519 323.366V261.419C332.519 244.643 323.199 229.883 309.789 222.617L467.814 23.8421C471.162 19.6343 471.973 13.3771 469.762 8.41207C467.552 3.4471 462.434 0.0296982 457.207 0.0163376H360.227C359.795 -0.00544588 359.361 -0.00544588 358.929 0.0163376C355.337 0.395371 351.915 2.31406 349.62 5.23531L235.539 148.644L121.458 5.23531C120.161 3.60595 118.54 2.29429 116.707 1.39262C114.875 0.49095 112.876 0.0211706 110.851 0.0163376H13.8717C13.439 -0.00494491 13.0056 -0.00494491 12.5729 0.0163376ZM43.3119 29.0611H104.357L254.589 217.852H193.544L43.3119 29.0611ZM366.722 29.0611H427.767L284.029 209.683L253.507 171.335L366.722 29.0611ZM180.122 246.896H290.956C298.871 246.896 304.81 253.122 304.81 261.419V306.347C283.741 296.201 260.214 290.463 235.539 290.463C210.865 290.463 187.337 296.201 166.268 306.347V261.419C166.268 253.122 172.208 246.896 180.122 246.896ZM228.396 319.508C230.762 319.383 233.143 319.508 235.539 319.508C312.218 319.508 374.082 384.355 374.082 464.732C374.082 545.109 312.218 609.955 235.539 609.955C158.86 609.955 96.9971 545.109 96.9971 464.732C96.9971 386.867 155.049 323.394 228.396 319.508ZM234.24 355.814C231.91 356.052 229.675 356.905 227.744 358.294C225.814 359.683 224.25 361.562 223.2 363.756L198.956 414.811L143.972 421.165C141.375 421.47 138.915 422.538 136.873 424.245C134.831 425.953 133.291 428.231 132.431 430.817C131.571 433.403 131.426 436.19 132.012 438.859C132.599 441.527 133.893 443.967 135.746 445.898L172.546 484.473L166.052 542.789C165.752 545.39 166.13 548.028 167.144 550.422C168.158 552.817 169.771 554.879 171.812 556.391C173.854 557.903 176.247 558.807 178.739 559.009C181.231 559.212 183.728 558.703 185.967 557.539L235.539 531.671L285.111 557.539C287.35 558.703 289.848 559.212 292.34 559.009C294.832 558.807 297.225 557.903 299.266 556.391C301.307 554.879 302.921 552.817 303.935 550.422C304.949 548.028 305.326 545.39 305.027 542.789L298.533 484.473L335.333 445.898C337.186 443.967 338.48 441.527 339.066 438.859C339.653 436.19 339.508 433.403 338.648 430.817C337.788 428.231 336.248 425.953 334.206 424.245C332.164 422.538 329.703 421.47 327.107 421.165L272.123 414.811L247.878 363.756C246.629 361.15 244.66 358.998 242.227 357.582C239.795 356.165 237.012 355.549 234.24 355.814ZM235.539 402.558L250.909 434.779C251.94 436.943 253.469 438.803 255.359 440.19C257.25 441.577 259.44 442.447 261.732 442.721L295.502 446.579L274.288 468.816C272.773 470.359 271.615 472.245 270.902 474.33C270.189 476.414 269.941 478.642 270.175 480.842L274.504 519.417L241.817 502.399C239.872 501.363 237.721 500.823 235.539 500.823C233.358 500.823 231.207 501.363 229.262 502.399L196.574 519.417L200.904 480.842C201.138 478.642 200.889 476.414 200.177 474.33C199.464 472.245 198.306 470.359 196.791 468.816L175.576 446.579L209.346 442.721C211.638 442.447 213.829 441.577 215.719 440.19C217.609 438.803 219.139 436.943 220.17 434.779L235.539 402.558Z" transform="translate(484)" fill="black"/>
</svg>
