<svg width="49" height="48" viewBox="0 0 49 48" fill="none" xmlns="http://www.w3.org/2000/svg">
<path d="M33.2036 38.2134L28.1234 37.289V36.888C30.0232 35.7848 31.4145 33.9027 31.848 31.6777C33.2555 31.3866 34.3169 30.1378 34.3169 28.6452V20.9985C34.3169 20.1228 34.0754 19.2991 33.6627 18.5806H48.5048L47.2119 14.0563C46.8039 12.6271 45.593 11.5455 44.1259 11.3009L42.0588 10.9564V10.4121C43.0475 9.528 43.6072 8.29394 43.6072 6.96774V4.64516C43.6072 2.08335 41.5239 0 38.9621 0C36.4003 0 34.3169 2.08335 34.3169 4.64516V6.96774C34.3169 8.29394 34.8766 9.52877 35.8653 10.4121V10.9564L33.7974 11.3009C32.3311 11.5448 31.1203 12.6271 30.7123 14.0563L30.2299 15.7432C28.4578 14.081 26.1623 13.1613 23.7205 13.1613C21.6046 13.1613 19.6545 13.8627 18.0712 15.0333L17.7925 14.0563C17.3845 12.6271 16.1737 11.5455 14.7066 11.3009L12.6395 10.9564V10.4121C13.6281 9.528 14.1879 8.29394 14.1879 6.96774V4.64516C14.1879 2.08335 12.1045 0 9.54271 0C6.9809 0 4.89755 2.08335 4.89755 4.64516V6.96774C4.89755 8.29394 5.45729 9.52877 6.44594 10.4121V10.9564L4.37884 11.3017C2.91252 11.5455 1.70168 12.6279 1.29368 14.057L0 18.5806H15.1339C14.5339 19.8279 14.1879 21.2199 14.1879 22.6939V28.6452C14.1879 30.1378 15.2493 31.3866 16.6568 31.6777C17.0911 33.9027 18.4815 35.7855 20.3814 36.888V37.289L15.3012 38.2126C13.2859 38.5796 11.6686 40.0258 11.0795 41.9876L9.27639 48H39.2284L37.4253 41.9876C36.8361 40.0258 35.2188 38.5796 33.2036 38.2134ZM31.9943 29.9783V27.312C32.455 27.5806 32.7685 28.0746 32.7685 28.6452C32.7685 29.2157 32.455 29.7097 31.9943 29.9783ZM32.201 14.4813C32.4457 13.6243 33.1726 12.9755 34.0521 12.8284L37.4137 12.2694V9.66193L37.1063 9.42968C36.3174 8.83277 35.8653 7.93548 35.8653 6.96774V4.64516C35.8653 2.93729 37.2542 1.54839 38.9621 1.54839C40.6699 1.54839 42.0588 2.93729 42.0588 4.64516V6.96774C42.0588 7.93548 41.6067 8.83277 40.8178 9.42968L40.5105 9.66116V12.2686L43.872 12.8284C44.7523 12.9747 45.4785 13.6235 45.7239 14.4813L46.4516 17.0323H32.2676C32.0539 16.8805 31.8271 16.745 31.5879 16.6281L32.201 14.4813ZM2.05335 17.0315L2.78168 14.4813C3.02632 13.6243 3.75329 12.9755 4.63277 12.8284L7.99432 12.2694V9.66193L7.68697 9.42968C6.89806 8.83277 6.44594 7.93548 6.44594 6.96774V4.64516C6.44594 2.93729 7.83484 1.54839 9.54271 1.54839C11.2506 1.54839 12.6395 2.93729 12.6395 4.64516V6.96774C12.6395 7.93548 12.1874 8.83277 11.3985 9.42968L11.0911 9.66116V12.2686L14.4526 12.8284C15.3329 12.9747 16.0591 13.6235 16.3045 14.4813L16.7876 16.1721C16.5314 16.4439 16.2929 16.7311 16.0699 17.0315H2.05335ZM16.5105 29.9783C16.0498 29.7097 15.7363 29.2157 15.7363 28.6452C15.7363 28.0746 16.0498 27.5806 16.5105 27.312V29.9783ZM16.5105 24.7742V25.6583C16.2348 25.7303 15.9763 25.8387 15.7363 25.9788V22.6939C15.7363 18.2919 19.3177 14.7097 23.7205 14.7097C25.8526 14.7097 27.8586 15.5404 29.3667 17.0485L30.0495 17.7321L30.2578 17.7832C31.7365 18.1525 32.7685 19.4748 32.7685 20.9985V25.9788C32.5285 25.8387 32.2699 25.7295 31.9943 25.6583V24.7742H29.5394C27.4413 24.7742 25.4361 23.7724 24.1781 22.0947L23.5626 21.2725L22.0243 22.8116C20.7577 24.0774 19.0746 24.7742 17.2846 24.7742H16.5105ZM18.0588 30.1935V26.287C19.9703 26.1097 21.744 25.2805 23.119 23.9063L23.4201 23.6052C24.9724 25.3185 27.2083 26.3226 29.5394 26.3226H30.4459V30.1935C30.4459 33.6085 27.6674 36.3871 24.2524 36.3871C20.8374 36.3871 18.0588 33.6085 18.0588 30.1935ZM21.9956 37.5979C22.7102 37.8163 23.4674 37.9355 24.2524 37.9355C25.0374 37.9355 25.7946 37.8163 26.5092 37.5979L24.2524 39.2903L21.9956 37.5979ZM23.0741 40.3417L21.4939 41.921L20.4689 38.8467L20.9621 38.7577L23.0741 40.3417ZM27.5427 38.7577L28.0351 38.8475L27.0101 41.9218L25.4299 40.3425L27.5427 38.7577ZM11.3574 46.4516L12.5636 42.4328C12.984 41.0315 14.1391 39.9979 15.5791 39.737L18.9314 39.1277L20.8181 44.7886L24.2524 41.3528L27.6875 44.7879L29.5742 39.127L32.9265 39.7363C34.3657 39.9979 35.5215 41.0315 35.9419 42.432L37.1474 46.4516H11.3574Z" fill="white"/>
</svg>
