<svg width="76" height="48" viewBox="0 0 76 48" fill="none" xmlns="http://www.w3.org/2000/svg">
<path d="M26.927 27.0773H18.2531C17.9505 27.0773 17.7043 26.8311 17.7043 26.5284V2.77109C17.7043 2.46843 17.9505 2.22221 18.2531 2.22221H26.927C27.5408 2.22221 28.0381 1.72488 28.0381 1.1111C28.0381 0.497329 27.5408 0 26.927 0H18.2531C16.7252 0 15.4821 1.2431 15.4821 2.77109V4.02694H10.0203C9.40654 4.02694 8.90921 4.52427 8.90921 5.13804C8.90921 5.75182 9.40654 6.24915 10.0203 6.24915H15.4815V23.0505H10.3556C10.0751 23.0505 9.8052 23.1566 9.59972 23.3473L0.355337 31.9271C-0.0944381 32.3444 -0.120812 33.0475 0.296667 33.4973C0.515628 33.7333 0.812963 33.8525 1.11133 33.8525C1.3817 33.8525 1.65295 33.7543 1.86688 33.5558L10.7917 25.2727H15.4819V26.5286C15.4819 28.0566 16.725 29.2997 18.253 29.2997H26.927C27.5408 29.2997 28.0381 28.8023 28.0381 28.1886C28.0381 27.5748 27.5408 27.0773 26.927 27.0773Z" transform="translate(47.8133 4.06927)" fill="white"/>
<path d="M55.1008 10.459L40.3713 0.199406C40.1849 0.0696293 39.9635 0 39.7363 0H28.5466C27.6997 0 26.8871 0.258517 26.1982 0.746662L24.2336 2.13465C23.7324 2.48872 23.6132 3.18191 23.9673 3.68324C24.3216 4.18427 25.0148 4.30382 25.5158 3.94946L27.4818 2.56058C27.7942 2.33924 28.1625 2.22221 28.5466 2.22221H39.3876L53.6006 12.122L53.0434 12.9162C51.4378 15.206 48.2403 15.8027 45.913 14.2452L39.4756 9.96512C39.4712 9.96216 39.4664 9.96053 39.462 9.95757C39.4565 9.95431 39.451 9.95164 39.4455 9.94853C39.0246 9.68675 38.4796 9.73357 38.1115 10.0696L23.8901 23.0486C23.8884 23.0501 23.887 23.0519 23.8853 23.0535L17.9983 28.4037C17.6957 28.6852 17.4434 29.0003 17.2392 29.3375C17.15 28.089 16.1149 27.1195 14.8516 27.1195H12.5561V10.3174H15.9338C15.904 10.4414 15.8771 10.5665 15.8532 10.6925C15.7396 11.2955 16.1365 11.8764 16.7395 11.99C16.8089 12.0032 16.8781 12.0094 16.9463 12.0094C17.4701 12.0094 17.9365 11.6373 18.0369 11.1038C18.1264 10.6287 18.2778 10.1749 18.4826 9.74972C18.5049 9.70987 18.5249 9.66868 18.5424 9.62601C18.9362 8.85935 19.5111 8.19373 20.2322 7.6838L21.752 6.60988C22.2532 6.25566 22.3725 5.56248 22.0182 5.0613C21.6642 4.56012 20.9707 4.44101 20.4697 4.79508L18.9495 5.86915C18.0972 6.47181 17.3914 7.22973 16.8578 8.09521H12.5561V6.8404C12.5561 5.31241 11.313 4.06931 9.78498 4.06931H1.1111C0.497478 4.06931 0 4.56664 0 5.18041C0 5.79419 0.497478 6.29152 1.1111 6.29152H9.78498C10.0875 6.29152 10.3339 6.53774 10.3339 6.8404V9.19476C10.3339 9.19861 10.3333 9.20231 10.3333 9.20617V28.2312C10.3333 28.2351 10.3339 28.2388 10.3339 28.2426V30.5976C10.3339 30.9003 10.0876 31.1465 9.78498 31.1465H1.1111C0.497478 31.1465 0 31.6438 0 32.2576C0 32.8714 0.497478 33.3687 1.1111 33.3687H9.78498C11.313 33.3687 12.5561 32.1256 12.5561 30.5976V29.3422H14.8521C14.9438 29.3422 15.0217 29.4134 15.0255 29.5012C15.0703 30.4967 15.2024 33.4168 17.1541 33.7247C17.323 34.0296 17.5306 34.3192 17.7784 34.5856C18.5166 35.3776 19.5157 35.8584 20.5722 35.9568C20.5126 36.2219 20.4774 36.4944 20.4676 36.7719C20.4268 37.9389 20.8437 39.0518 21.6399 39.9035C22.4357 40.7586 23.5166 41.2523 24.6837 41.2938C25.3609 41.3184 26.0198 41.188 26.6206 40.9194C26.764 41.7474 27.1441 42.5172 27.7305 43.1467C28.5268 44.0017 29.6081 44.4953 30.7755 44.5363C31.3592 44.5575 31.9278 44.4636 32.4579 44.2658C32.5848 45.1382 32.9731 45.9501 33.5869 46.6077C34.3832 47.4625 35.4645 47.956 36.6318 47.9972C36.6845 47.9991 36.7371 48 36.7898 48C37.8992 48 38.9509 47.5865 39.7645 46.8277L46.3363 40.7285C46.7861 40.3112 46.8125 39.6081 46.395 39.1583C45.9776 38.7085 45.2744 38.6823 44.8246 39.0998L38.2507 45.2008C36.8559 46.5019 34.5685 45.4572 34.6355 43.5513C34.6556 42.9781 34.8979 42.447 35.3174 42.0556L35.3196 42.0534C35.7688 41.6354 35.7941 40.9323 35.3761 40.483C34.958 40.0337 34.2549 40.0086 33.8057 40.4264C33.8057 40.4264 33.8057 40.4264 33.8057 40.4266L32.3945 41.7397C30.9986 43.0414 28.713 41.9953 28.7798 40.0892C28.8 39.5155 29.0426 38.9841 29.4631 38.5927L29.4634 38.5924C29.9126 38.1744 29.9379 37.4713 29.5198 37.022C29.1019 36.5727 28.3988 36.5476 27.9495 36.9654C27.9477 36.967 27.946 36.9687 27.9443 36.9703L26.3041 38.4967C24.9114 39.7955 22.6216 38.7599 22.6882 36.8494C22.7082 36.2752 22.9513 35.743 23.3745 35.3494L23.9564 34.8056C23.9573 34.8048 23.9582 34.8039 23.9591 34.803L23.9597 34.8026C24.4078 34.3838 24.432 33.6808 24.0132 33.2324C23.5942 32.7839 22.8914 32.7598 22.443 33.1783C22.1202 33.4795 21.7182 33.6709 21.2785 33.7319C20.5825 33.8303 19.8812 33.5826 19.4042 33.0709C18.5957 32.202 18.6442 30.8382 19.5024 30.0395L39.0018 12.3187L44.6799 16.0938C46.2979 17.1769 48.2434 17.5765 50.1584 17.2194C52.0738 16.862 53.7444 15.7869 54.8626 14.1924L55.5797 13.1704C56.1949 12.2916 55.9814 11.0762 55.1008 10.459Z" fill="white"/>
</svg>
