<svg width="53" height="60" viewBox="0 0 53 60" fill="none" xmlns="http://www.w3.org/2000/svg">
<path d="M15.3997 5.91194L10.632 0.381416C10.4413 0.143031 10.1075 0 9.82146 0C9.48772 0 9.20165 0.143031 9.01095 0.381416L4.24325 5.91194C1.57334 9.01095 0 13.0158 0 17.116V17.2114C0 22.8373 1.57334 32.3727 3.95719 39.1428C4.24325 40.001 5.05376 40.5254 5.95962 40.5254H13.7786C14.6845 40.5254 15.4473 39.9533 15.7811 39.1428C18.1649 32.325 19.7383 22.8373 19.7383 17.2114V17.116C19.6429 13.0158 18.1172 9.05862 15.3997 5.91194ZM9.82146 20.6441C7.2469 20.6441 5.10144 18.5463 5.10144 15.9241C5.10144 13.3495 7.19922 11.2041 9.82146 11.2041C12.396 11.2041 14.5415 13.3019 14.5415 15.9241C14.4938 18.5463 12.396 20.6441 9.82146 20.6441Z" transform="translate(25.3165)" fill="#212121"/>
<path d="M6.55678 0C7.03355 3.28971 7.70103 6.77013 8.55921 10.0122C6.12769 9.63075 3.69616 9.05862 1.26464 8.39114C0.12039 8.39114 -0.404055 7.00851 0.358776 6.24568L6.55678 0Z" transform="translate(17.5201 24.9351)" fill="#212121"/>
<path d="M7.29457 8.39114C4.86305 9.1063 2.43153 9.63075 0 10.0122C0.858185 6.81781 1.52566 3.33739 2.00243 0L8.20044 6.19801C8.96327 7.00851 8.43882 8.39114 7.29457 8.39114Z" transform="translate(44.1965 24.8873)" fill="#212121"/>
<path d="M51.4911 6.19801C50.8713 6.10265 50.2038 6.24568 49.584 6.48407C46.0083 7.77134 42.6232 9.29701 39.0474 10.632C38.8567 10.6796 38.666 10.775 38.5707 10.918C37.6648 12.0146 36.4252 12.4437 35.0426 12.4914C32.8494 12.539 30.6086 12.5867 28.4155 12.6344C26.8898 12.6821 25.4118 12.7297 23.8862 12.7297C23.5047 12.7297 23.028 12.3007 22.9803 11.8716C22.9326 11.4425 23.2664 11.2994 23.6478 11.2518C23.7908 11.2518 23.9338 11.2041 24.1245 11.2041C25.9839 11.1564 27.8433 11.1087 29.7504 11.0611C31.7052 11.0134 33.6599 11.0134 35.6624 10.918C37.045 10.8703 37.9509 9.82146 37.9985 8.53418C38.0462 7.10387 36.9496 6.05498 35.424 6.10265C33.2308 6.15033 30.4179 5.86427 28.1771 5.48285C25.5072 5.05376 24.1722 3.67113 21.55 2.86062C17.5451 1.57334 13.3972 2.05011 9.24933 2.14546C9.24933 1.8594 9.24933 1.57334 9.24933 1.28728C9.24933 0.381414 8.77256 0 7.8667 0C5.43517 0.047677 3.00365 0.0953547 0.572123 0.190709C0.429093 0.190709 0.286062 0.190708 0 0.238385C0.143031 1.52566 0.238385 2.81294 0.381416 4.05254C1.04889 8.72488 2.66991 13.0158 5.19679 16.973C5.29214 17.1637 5.62588 17.3067 5.81659 17.3067C6.6271 17.3067 7.48528 17.3067 8.29579 17.2591C9.1063 17.2114 9.58307 16.7823 9.53539 15.9241C9.53539 15.6857 9.53539 15.4473 9.53539 15.209C11.3948 15.7334 13.2542 16.3055 15.1136 16.83C18.594 17.8312 22.0268 18.9278 25.5549 19.7859C28.4631 20.5011 31.3714 20.5964 34.1367 19.0708C40.001 15.8288 45.8176 12.6344 51.6818 9.39236C51.9679 9.24933 52.254 8.96327 52.4447 8.67721C53.1121 7.67599 52.6354 6.34104 51.4911 6.19801Z" transform="translate(0 39.715)" fill="#212121"/>
</svg>
