<svg width="56" height="60" viewBox="0 0 56 60" fill="none" xmlns="http://www.w3.org/2000/svg">
<path d="M53.3622 37.2823C53.8395 36.3973 54.1341 35.4253 54.2285 34.4242C54.3005 33.3745 54.1273 32.3224 53.7227 31.3511C53.5276 30.8773 53.2862 30.4241 53.0018 29.9979L52.8311 29.7703C52.9006 29.5806 52.9765 29.3972 53.0398 29.2075C53.2298 28.5924 53.334 27.9541 53.3496 27.3105C53.391 25.9431 52.96 24.6033 52.1292 23.5165C51.9402 23.2541 51.7286 23.0087 51.4969 22.783C50.8005 22.0555 49.9299 21.5179 48.9676 21.2212C48.679 21.1292 48.3856 21.0532 48.0886 20.9935L47.3488 20.8418C46.8493 20.7469 46.3497 20.6521 45.8502 20.5699C43.8442 20.2444 41.8179 20.0606 39.7861 20.0197C38.7871 20.0197 37.8006 19.9881 36.8205 20.0197H35.9795C35.9366 19.7519 35.9113 19.4815 35.9036 19.2104C35.8902 18.7884 35.9028 18.3661 35.9416 17.9457C36.0248 17.0747 36.1685 16.2105 36.3716 15.3595C36.5739 14.4932 36.8142 13.6269 37.0924 12.7669L37.5098 11.3062C37.6299 10.8067 37.7184 10.2882 37.8133 9.78234C37.9718 8.72041 37.9846 7.64181 37.8512 6.57643C37.7092 5.45542 37.3298 4.37758 36.7383 3.41478C36.126 2.45216 35.2965 1.64651 34.3165 1.06252C33.3837 0.508959 32.3496 0.147756 31.275 0.000205344H31.1043C30.3407 -0.0081121 29.5959 0.236453 28.986 0.695767C28.401 1.13424 27.9748 1.75133 27.7719 2.45364V2.4979C27.7575 2.55402 27.7469 2.61107 27.7403 2.66863L27.2281 6.73451C27.1383 7.32165 27.003 7.90093 26.8234 8.46709C26.7349 8.74532 26.6358 9.01932 26.5262 9.28912L26.3555 9.68748L26.1595 10.1301L23.1306 16.719L21.7837 19.7542C21.5561 20.26 21.398 20.6774 21.183 21.0568C20.9743 21.4343 20.7286 21.7901 20.4495 22.1191C19.9177 22.7458 19.2745 23.2689 18.5525 23.662C18.2205 23.8483 17.8737 24.007 17.5155 24.1362C17.1617 24.258 16.8006 24.3573 16.4342 24.4334C16.2821 24.4689 16.1437 24.548 16.0359 24.661C16.0359 24.1488 15.979 23.662 15.9473 23.194C15.9473 22.8779 15.5047 22.6313 15.0178 22.6502C14.5309 22.6692 14.2274 22.9032 14.2084 23.194C13.9176 27.6646 13.6962 34.3926 13.5761 42.2461L13.4939 48.3354L13.456 51.4971V52.7048C13.456 52.7428 13.456 52.7048 13.456 52.7048L7.4678 52.7617H4.11646H3.48413C3.48413 43.7827 3.40825 34.8099 3.25649 26.9627L3.19959 24.073V22.7135C3.19435 22.6718 3.19784 22.6295 3.20981 22.5892C3.22178 22.5489 3.24199 22.5116 3.26914 22.4795C3.29727 22.4459 3.33162 22.4179 3.37031 22.3973H3.43355H3.54737L4.84996 22.3594L7.34134 22.2772L11.8372 22.0938L12.8489 22.0432H13.3358H13.5951C13.7321 22.0645 13.8617 22.1195 13.9721 22.2034C14.0825 22.2874 14.1702 22.3974 14.2274 22.5238C14.5025 22.7207 14.8389 22.8126 15.1759 22.783C15.2727 22.7856 15.3689 22.7659 15.4569 22.7255C15.5449 22.6851 15.6224 22.625 15.6835 22.5498C15.7446 22.4747 15.7877 22.3865 15.8093 22.292C15.8309 22.1976 15.8305 22.0995 15.8082 22.0053C15.7079 21.5539 15.4893 21.1374 15.1748 20.7985C14.8603 20.4595 14.4613 20.2104 14.0187 20.0767C13.9002 20.0456 13.7798 20.0224 13.6583 20.0071H13.3358H12.8489L11.8056 19.8806L7.30972 19.6973L4.81835 19.6151L3.51575 19.5771H3.26914C3.17018 19.5708 3.07091 19.5708 2.97195 19.5771C2.77343 19.6049 2.57843 19.6536 2.3902 19.7225C1.80408 19.9297 1.29366 20.3081 0.925005 20.8086C0.556354 21.3092 0.346456 21.9089 0.322488 22.5301L0.284548 23.9718L0.227638 26.8615C0.0758795 34.772 2.68451e-07 43.7574 2.68451e-07 52.7617C-0.000222286 53.3277 0.137937 53.8851 0.402443 54.3855C0.666949 54.8859 1.04978 55.314 1.51759 55.6325C1.99008 55.9496 2.53261 56.1471 3.09841 56.2079H3.48413H4.11646H7.4678H10.7939H12.4442H13.2663C13.4928 56.2098 13.7191 56.1929 13.9429 56.1573C14.2099 56.1142 14.4709 56.04 14.7206 55.936C15.2147 55.7239 15.6515 55.3979 15.9955 54.9847C16.3395 54.5715 16.5808 54.0828 16.6998 53.5585C16.7555 53.3051 16.783 53.0464 16.782 52.787V52.0156L18.3692 53.0589C18.8813 53.3814 19.3872 53.7418 20.0259 54.0959C20.6669 54.4455 21.3377 54.7375 22.0303 54.9686C22.7645 55.2147 23.5203 55.3904 24.2878 55.4934C24.6798 55.544 25.0845 55.5819 25.4955 55.5946H26.6337L31.3698 55.6957L36.4791 55.7843L39.1601 55.8285H40.5702C41.0903 55.8219 41.6097 55.786 42.1258 55.721C43.2136 55.5891 44.2778 55.3061 45.2874 54.88C46.3591 54.4201 47.3431 53.7783 48.1961 52.983C49.1281 52.087 49.786 50.9444 50.0931 49.6886C50.2485 49.0687 50.3187 48.4305 50.3018 47.7916C50.293 47.5208 50.2698 47.2506 50.2322 46.9822C51.3241 46.0087 52.138 44.7627 52.5908 43.3717C52.8765 42.4173 52.9668 41.4151 52.8564 40.425C52.8115 39.9312 52.7226 39.4423 52.5908 38.9643C52.5529 38.8568 52.5149 38.743 52.477 38.6355L52.5908 38.4711C52.8684 38.0885 53.1259 37.6917 53.3622 37.2823ZM50.8329 34.1713C50.6723 35.3157 50.1363 36.3743 49.309 37.1811C49.0731 37.4302 48.9193 37.7457 48.8684 38.0849C48.8176 38.4241 48.872 38.7708 49.0245 39.0781L49.0877 39.2046C49.0877 39.2046 49.1952 39.4069 49.2395 39.5334C49.2837 39.6599 49.3406 39.8116 49.3912 39.9507C49.4772 40.2315 49.5385 40.5193 49.5746 40.8107C49.6335 41.3525 49.5841 41.9006 49.4292 42.4232C49.0596 43.4935 48.36 44.4189 47.431 45.0663L46.8998 46.9253C46.8998 46.9253 46.9378 47.0392 46.9504 47.1087C46.9631 47.1783 46.9884 47.2858 47.0073 47.3743C47.0374 47.5585 47.0564 47.7443 47.0642 47.9307C47.083 48.2917 47.0511 48.6536 46.9694 49.0057C46.8174 49.6972 46.4682 50.3298 45.964 50.8268C45.3924 51.3641 44.7366 51.8041 44.0227 52.1294C43.2841 52.4622 42.5032 52.6919 41.7021 52.8123C41.2999 52.8747 40.8946 52.9148 40.488 52.9325H39.1538L36.4727 52.9767L31.3635 53.0653L26.6274 53.1664H25.5208C25.192 53.1664 24.8885 53.1664 24.5407 53.1664C23.8997 53.1185 23.2645 53.0106 22.6437 52.8439C22.0597 52.6822 21.4906 52.4706 20.9427 52.2116C20.4306 51.9713 19.8804 51.6488 19.3429 51.3516L16.7188 49.9163V48.3291L16.6239 42.2461C16.5038 35.8659 16.3394 30.2319 16.1244 25.9447C16.2097 26.0208 16.3101 26.0782 16.419 26.1131C16.528 26.1479 16.643 26.1595 16.7567 26.147C18.0385 26.0086 19.2725 25.5831 20.3673 24.9022C21.462 24.2212 22.3892 23.3024 23.08 22.2139C23.3962 21.7144 23.6428 21.1643 23.8767 20.7153L25.4007 17.7813L28.6508 11.2557L28.8658 10.8194L29.0935 10.3325C29.241 10.0036 29.3759 9.6643 29.4981 9.31441C29.7461 8.61401 29.9385 7.89514 30.0736 7.16449L30.7059 3.21244C30.7349 3.1624 30.7751 3.11978 30.8234 3.08796C30.8717 3.05614 30.9267 3.03597 30.9841 3.02906C31.6109 3.1331 32.2088 3.36752 32.7392 3.71716C33.2697 4.0668 33.7209 4.52388 34.0636 5.05884C34.7177 6.36024 34.9074 7.84616 34.601 9.27015C34.5125 9.66852 34.443 10.0732 34.3355 10.4779L33.9624 11.7426C33.6525 12.6658 33.368 13.6395 33.1277 14.5944C32.877 15.5964 32.6974 16.6149 32.5902 17.6422C32.5268 18.1752 32.4951 18.7115 32.4954 19.2483C32.5035 19.857 32.5755 20.4631 32.7104 21.0568C32.8438 21.5802 33.111 22.0599 33.4856 22.449C33.8603 22.8381 34.3296 23.1231 34.8476 23.2762C35.1024 23.3521 35.366 23.3946 35.6317 23.4027H36.7826C37.7437 23.4027 38.6796 23.4027 39.6534 23.447C41.5305 23.4907 43.4025 23.664 45.2558 23.9655C45.7174 24.0414 46.179 24.1299 46.6469 24.2184L47.3425 24.3638C47.5242 24.3997 47.7037 24.4461 47.88 24.503C48.1696 24.5909 48.4429 24.7255 48.6893 24.9013C48.939 25.0968 49.1641 25.3219 49.3596 25.5716C49.7272 26.0337 49.9158 26.613 49.8908 27.203C49.8841 27.5355 49.8309 27.8654 49.7327 28.1831C49.6827 28.3527 49.6236 28.5194 49.5556 28.6826C49.524 28.7648 49.4861 28.8407 49.4481 28.9166L49.3596 29.081C49.1744 29.4291 49.1023 29.8263 49.1533 30.2172C49.2043 30.6082 49.3759 30.9736 49.6441 31.2625C49.6441 31.2625 49.7959 31.4206 49.8781 31.5218C49.9603 31.623 50.0552 31.7494 50.1374 31.8696C50.2962 32.1046 50.4317 32.3545 50.5421 32.6157C50.7589 33.1043 50.8565 33.6375 50.8266 34.1713H50.8329Z" transform="translate(0.916 3.79199)" fill="#212121"/>
<path d="M1.99184 3.98367C3.0919 3.98367 3.98367 3.09189 3.98367 1.99183C3.98367 0.891772 3.0919 0 1.99184 0C0.891775 0 0 0.891772 0 1.99183C0 3.09189 0.891775 3.98367 1.99184 3.98367Z" transform="translate(6.79858 52.3986) rotate(-70.41)" fill="#212121"/>
<path d="M1.28276 6.13175C1.5549 6.15212 1.82853 6.12647 2.09214 6.05588C2.23758 5.765 2.35772 5.25914 2.49051 5.0315C2.633 4.74372 2.8185 4.47932 3.04063 4.24741C3.26216 4.00612 3.53139 3.81349 3.83128 3.68171C4.13116 3.54993 4.45514 3.48188 4.7827 3.48188C5.11026 3.48188 5.43424 3.54993 5.73413 3.68171C6.03401 3.81349 6.30324 4.00612 6.52477 4.24741C6.74914 4.47888 6.93679 4.7433 7.08122 5.0315C7.22033 5.25914 7.33415 5.77133 7.48591 6.05588C7.78339 6.12983 8.09084 6.15545 8.39646 6.13175C8.66023 6.15072 8.92531 6.12506 9.18055 6.05588C9.26039 5.88304 9.33006 5.70568 9.38922 5.52472C9.47178 5.27301 9.52068 5.01149 9.53465 4.74695C9.57518 4.0306 9.42921 3.31599 9.11099 2.67292C8.73696 1.89693 8.15463 1.24016 7.429 0.775928C6.63936 0.269307 5.72089 0 4.7827 0C3.84451 0 2.92604 0.269307 2.1364 0.775928C1.40654 1.23888 0.819804 1.89567 0.441762 2.67292C0.118932 3.31699 -0.0313949 4.03377 0.00545516 4.75328C0.0360886 5.2079 0.154175 5.65233 0.353236 6.0622C0.657341 6.13509 0.971193 6.15858 1.28276 6.13175Z" fill="#212121"/>
<path d="M17.6104 0C16.7298 1.06122 15.6987 1.9879 14.5499 2.75063C13.0615 3.7003 11.3327 4.20484 9.56714 4.20484C7.80158 4.20484 6.07279 3.7003 4.58438 2.75063C3.43157 1.98824 2.39628 1.06159 1.51127 0C1.19987 0.0190546 0.897972 0.114617 0.632329 0.278224C0.246608 0.461599 0 0.657622 0 0.733501C0.431017 2.46507 1.40083 4.015 2.7696 5.1598C4.67101 6.78315 7.08914 7.675 9.58927 7.675C12.0894 7.675 14.5075 6.78315 16.4089 5.1598C17.7831 4.01631 18.7593 2.46665 19.1975 0.733501C19.1975 0.644975 18.8624 0.411014 18.4197 0.214992C18.1727 0.0754592 17.8941 0.00144863 17.6104 0Z" transform="translate(2.45889 11.9934)" fill="#212121"/>
<path d="M8.4344 6.12543C8.69817 6.14439 8.96325 6.11874 9.21849 6.04955C9.29833 5.87672 9.368 5.69936 9.42716 5.5184C9.50972 5.26669 9.55862 5.00516 9.57259 4.74063C9.61312 4.02428 9.46715 3.30966 9.14893 2.66659C8.76359 1.88801 8.16774 1.23302 7.429 0.775928C6.63936 0.269307 5.72089 0 4.7827 0C3.84451 0 2.92604 0.269307 2.1364 0.775928C1.40654 1.23888 0.819804 1.89567 0.441762 2.67292C0.118932 3.31699 -0.0313949 4.03377 0.00545515 4.75328C0.0360886 5.2079 0.154174 5.65233 0.353236 6.0622C0.656997 6.13721 0.970854 6.16283 1.28276 6.13808C1.5549 6.15845 1.82853 6.1328 2.09214 6.0622C2.23758 5.77133 2.35772 5.26546 2.49051 5.03783C2.633 4.75004 2.8185 4.48565 3.04063 4.25374C3.26216 4.01245 3.53139 3.81981 3.83128 3.68803C4.13116 3.55625 4.45514 3.4882 4.7827 3.4882C5.11026 3.4882 5.43425 3.55625 5.73413 3.68803C6.03401 3.81981 6.30324 4.01245 6.52477 4.25374C6.74914 4.4852 6.93679 4.74962 7.08122 5.03783C7.22033 5.26546 7.33415 5.77765 7.48591 6.0622C7.79632 6.13607 8.11692 6.15745 8.4344 6.12543Z" transform="translate(14.4614 0.00634766)" fill="#212121"/>
</svg>
