<svg width="1025" height="174" viewBox="0 0 1025 174" fill="none" xmlns="http://www.w3.org/2000/svg">
<path opacity="0.15" d="M213.9 101H130.8V144.2H168.9V178.7C160.2 183.5 145.2 189.2 124.8 189.2C84.9 189.2 58.8 160.4 58.8 120.8C58.8 81.2 84.9 52.4 124.8 52.4C148.5 52.4 163.8 59.3 176.4 72.5L209.4 36.5C188.1 16.7 158.4 9.2 124.8 9.2C58.5 9.2 10.2 52.7 10.2 120.8C10.2 188.9 58.5 232.4 124.8 232.4C156 232.4 186.3 226.4 213.9 212V101ZM255.096 227H301.896V142.1H324.996L369.396 227H425.496L371.496 137.3C401.496 131.9 417.396 108.8 417.396 79.1C417.396 29.6 380.796 14.6 337.296 14.6H255.096V227ZM301.896 54.2H332.496C349.596 54.2 368.796 57.5 368.796 78.8C368.796 101.9 346.596 102.5 329.496 102.5H301.896V54.2ZM628.727 14.6H581.927V143.3C581.927 169.4 563.927 189.2 539.327 189.2C514.427 189.2 496.427 169.4 496.427 143.3V14.6H449.627V145.1C449.627 195.2 480.227 232.4 539.327 232.4C598.127 232.4 628.727 195.2 628.727 145.1V14.6ZM671.991 227H718.791V144.2H752.991C797.691 144.2 831.591 128.9 831.591 79.1C831.591 28.7 794.991 14.6 750.891 14.6H671.991V227ZM718.791 54.2H742.791C760.791 54.2 782.991 57.2 782.991 79.1C782.991 98.9 766.491 104.6 749.991 104.6H718.791V54.2ZM811.516 227H863.116L880.816 182H963.316L981.616 227H1034.42L942.016 14.6H903.316L811.516 227ZM947.416 142.4H895.516L921.316 76.4L947.416 142.4Z" transform="translate(-10 -9)" fill="#424B57"/>
</svg>
