<svg width="48" height="48" viewBox="0 0 48 48" fill="none" xmlns="http://www.w3.org/2000/svg">
<path d="M30.6117 33.0746L28.2609 26.1373C28.132 25.7567 27.7748 25.5007 27.373 25.5007H27.2366V11.906C27.2366 5.34103 21.8956 0 15.3306 0C8.76556 0 3.42462 5.34094 3.42462 11.906V25.5007H3.28822C2.8864 25.5007 2.52922 25.7567 2.40031 26.1373L0.0496223 33.0746C-0.047409 33.3608 -0.000440072 33.6761 0.175622 33.9217C0.351685 34.1673 0.635279 34.313 0.937529 34.313H29.7237C30.026 34.313 30.3096 34.1673 30.4857 33.9217C30.6617 33.6761 30.7087 33.3608 30.6117 33.0746ZM5.29962 11.9061C5.29962 6.375 9.79953 1.87509 15.3306 1.87509C20.8617 1.87509 25.3616 6.375 25.3616 11.9061V25.5007H5.29962V11.9061ZM2.24506 32.4381L3.9604 27.3757H26.7007L28.4161 32.4381H2.24506Z" transform="translate(8.66873 13.687)" fill="white"/>
<path d="M0.9375 0C0.419813 0 0 0.419813 0 0.9375V6.56241C0 7.08009 0.419719 7.49991 0.9375 7.49991C1.45519 7.49991 1.875 7.08009 1.875 6.56241V0.9375C1.875 0.419813 1.45519 0 0.9375 0Z" transform="translate(23.0619)" fill="white"/>
<path d="M1.60022 0.273751C1.42594 0.0993755 1.18406 0 0.9375 0C0.690938 0 0.449062 0.0993755 0.274687 0.273751C0.100312 0.449063 0 0.689906 0 0.9375C0 1.18406 0.100218 1.425 0.274687 1.60031C0.449062 1.77459 0.690938 1.87406 0.9375 1.87406C1.18406 1.87406 1.42594 1.77459 1.60022 1.60031C1.77459 1.425 1.875 1.18406 1.875 0.9375C1.875 0.689906 1.77469 0.449063 1.60022 0.273751Z" transform="translate(23.0619 9.27783)" fill="white"/>
<path d="M5.24222 0H0.9375C0.419813 0 0 0.419813 0 0.9375C0 1.45519 0.419813 1.875 0.9375 1.875H5.24231C5.76 1.875 6.17981 1.45519 6.17981 0.9375C6.17981 0.419813 5.75991 0 5.24222 0Z" transform="translate(3.71063 25.0931)" fill="white"/>
<path d="M1.60022 0.274687C1.42594 0.100218 1.18406 0 0.9375 0C0.690938 0 0.449062 0.100218 0.274687 0.274687C0.100313 0.449156 0 0.690938 0 0.9375C0 1.18406 0.100219 1.42594 0.274687 1.60022C0.449062 1.77459 0.690938 1.875 0.9375 1.875C1.18406 1.875 1.42594 1.77469 1.60022 1.60022C1.77459 1.42594 1.875 1.18406 1.875 0.9375C1.875 0.690938 1.77459 0.449062 1.60022 0.274687Z" transform="translate(0 25.0931)" fill="white"/>
<path d="M3.0746 3.64639L1.80391 0.5788C1.60572 0.100488 1.05738 -0.126294 0.578969 0.0714252C0.100563 0.269613 -0.126498 0.81805 0.0715953 1.29636L1.34228 4.36396C1.49191 4.72499 1.84094 4.94296 2.20881 4.94296C2.32835 4.94296 2.44984 4.91989 2.56722 4.87133C3.04563 4.67305 3.27269 4.12461 3.0746 3.64639Z" transform="translate(14.6128 4.69617)" fill="white"/>
<path d="M4.36411 1.34206L1.29652 0.0713731C0.81802 -0.126252 0.26977 0.10053 0.0715823 0.578748C-0.126511 1.05715 0.100645 1.6055 0.578957 1.80369L3.64655 3.07437C3.76393 3.12284 3.88543 3.146 4.00496 3.146C4.37283 3.146 4.72186 2.92803 4.87149 2.567C5.06958 2.08859 4.84243 1.54025 4.36411 1.34206Z" transform="translate(2.6647 16.6444)" fill="white"/>
<path d="M5.24231 0H0.9375C0.419813 0 0 0.419813 0 0.9375C0 1.45519 0.419813 1.875 0.9375 1.875H5.24231C5.76 1.875 6.17981 1.45519 6.17981 0.9375C6.17981 0.419813 5.76 0 5.24231 0Z" transform="translate(38.4989 25.0931)" fill="white"/>
<path d="M1.60022 0.274687C1.42594 0.100312 1.18406 0 0.9375 0C0.690938 0 0.449062 0.100218 0.274687 0.274687C0.100312 0.449156 0 0.690938 0 0.9375C0 1.18406 0.100218 1.42594 0.274687 1.60022C0.449062 1.77459 0.690938 1.875 0.9375 1.875C1.18406 1.875 1.42594 1.77469 1.60022 1.60022C1.77459 1.42594 1.875 1.18406 1.875 0.9375C1.875 0.690938 1.77469 0.449062 1.60022 0.274687Z" transform="translate(46.1237 25.0931)" fill="white"/>
<path d="M6.21326 0.2745C5.84707 -0.0915 5.25363 -0.0915 4.88735 0.2745L0.27457 4.88738C-0.0915234 5.25347 -0.0915234 5.84709 0.27457 6.21328C0.457758 6.39637 0.697663 6.48787 0.937569 6.48787C1.17757 6.48787 1.41738 6.39628 1.60048 6.21328L6.21326 1.60041C6.57926 1.23431 6.57926 0.640687 6.21326 0.2745Z" transform="translate(36.325 7.21698)" fill="white"/>
<path d="M6.21326 4.88719L1.60048 0.2745C1.23429 -0.0915 0.640852 -0.0915 0.27457 0.2745C-0.0915234 0.640594 -0.0915234 1.23422 0.27457 1.60041L4.88745 6.21319C5.07054 6.39619 5.31045 6.48778 5.55035 6.48778C5.79026 6.48778 6.03016 6.39619 6.21326 6.21319C6.57935 5.847 6.57935 5.25338 6.21326 4.88719Z" transform="translate(5.1857 7.21716)" fill="white"/>
<path d="M2.56721 0.0713731C2.0888 -0.126252 1.54046 0.100529 1.34227 0.578748L0.0715825 3.64634C-0.126511 4.12465 0.100644 4.673 0.578956 4.87128C0.696331 4.91984 0.817831 4.9429 0.937362 4.9429C1.30524 4.9429 1.65427 4.72494 1.80389 4.3639L3.07458 1.29631C3.27267 0.817811 3.04552 0.269561 2.56721 0.0713731Z" transform="translate(30.2395 4.69629)" fill="white"/>
<path d="M4.8715 0.578852C4.67331 0.100446 4.12497 -0.126335 3.64657 0.0714772L0.578972 1.34216C0.100565 1.54035 -0.126499 2.08879 0.0715948 2.5671C0.22122 2.92813 0.570252 3.1461 0.938127 3.1461C1.05766 3.1461 1.17916 3.12304 1.29653 3.07448L4.36413 1.80379C4.84253 1.6056 5.0696 1.05716 4.8715 0.578852Z" transform="translate(40.3908 16.6442)" fill="white"/>
<path d="M2.81241 0C1.26159 0 0 1.26169 0 2.81241V7.31231C0 8.86313 1.26169 10.1247 2.81241 10.1247C4.36312 10.1247 5.62481 8.86303 5.62481 7.31231V2.81241C5.62481 1.26169 4.36322 0 2.81241 0ZM3.74991 7.31231C3.74991 7.82925 3.32934 8.24981 2.81241 8.24981C2.29547 8.24981 1.87491 7.82925 1.87491 7.31231V2.81241C1.87491 2.29547 2.29547 1.87491 2.81241 1.87491C3.32934 1.87491 3.74991 2.29547 3.74991 2.81241V7.31231Z" transform="translate(21.1869 19.5945)" fill="white"/>
<path d="M2.81241 0C1.26159 0 0 1.26169 0 2.81241C0 4.36322 1.26169 5.62481 2.81241 5.62481C4.36312 5.62481 5.62481 4.36312 5.62481 2.81241C5.62481 1.26159 4.36322 0 2.81241 0ZM2.81241 3.74991C2.29547 3.74991 1.87491 3.32934 1.87491 2.81241C1.87491 2.29547 2.29547 1.87491 2.81241 1.87491C3.32934 1.87491 3.74991 2.29547 3.74991 2.81241C3.74991 3.32934 3.32934 3.74991 2.81241 3.74991Z" transform="translate(21.1869 31.5942)" fill="white"/>
</svg>
