<svg width="51" height="60" viewBox="0 0 51 60" fill="none" xmlns="http://www.w3.org/2000/svg">
<path d="M3.89926 0L0 3.89786C0.00206667 3.9547 0.00220051 4.01267 0.00693385 4.06884L4.07023 0.0125122C4.01396 0.00777887 3.95617 0.00227333 3.89924 0H3.89926Z" transform="translate(3.08188 41.796)" fill="#212121"/>
<path d="M3.89926 0L0 3.89786C0.00206667 3.9547 0.00219924 4.01267 0.00693258 4.06884L4.07162 0.0125122C4.01579 0.00784554 3.95713 0.00230667 3.90063 0H3.89923H3.89926Z" transform="translate(21.6852 41.796)" fill="#212121"/>
<path d="M3.89926 0L0 3.89786C0.00213333 3.9547 0.000800521 4.01267 0.00553385 4.06884L4.07022 0.0125122C4.01396 0.00777887 3.95616 0.00228 3.89923 0H3.89926Z" transform="translate(40.2832 41.796)" fill="#212121"/>
<path d="M3.53225 2.03451e-05C3.46723 0.00355368 3.40036 8.2255e-05 3.33625 0.00695292L0.00693385 3.34321C5.14711e-07 3.40528 0.0034 3.46933 0 3.53226L3.53227 0L3.53225 2.03451e-05Z" transform="translate(3.08884 41.8015)" fill="#212121"/>
<path d="M3.53086 2.03451e-05C3.46584 0.00355368 3.40035 8.2255e-05 3.33625 0.00695292L0.00693258 3.34321C-7.56855e-07 3.40528 0.00346667 3.46933 0 3.53226L3.53088 0L3.53086 2.03451e-05Z" transform="translate(21.6922 41.8015)" fill="#212121"/>
<path d="M3.53226 2.03451e-05C3.46722 0.00355368 3.40036 0.000118922 3.33625 0.00695292L0.00693766 3.34182C0.000337663 3.40389 0.00353333 3.46933 0 3.53226L3.53227 0L3.53226 2.03451e-05Z" transform="translate(40.2888 41.8015)" fill="#212121"/>
<path d="M4.3427 5.08626e-06L0 4.34131C0.00858 4.39185 0.0143536 4.44439 0.025027 4.49422L4.49423 0.0250295C4.44443 0.0142895 4.39321 0.00874667 4.34271 0L4.3427 5.08626e-06Z" transform="translate(3.1333 41.8461)" fill="#212121"/>
<path d="M4.34271 5.08626e-06L0 4.34131C0.00858 4.39185 0.014347 4.44439 0.025027 4.49422L4.49423 0.0250295C4.44443 0.0142895 4.39321 0.00874667 4.34271 0L4.34271 5.08626e-06Z" transform="translate(21.7367 41.8461)" fill="#212121"/>
<path d="M4.3427 5.08626e-06L0 4.3427C0.00866667 4.39324 0.0144111 4.44439 0.0250244 4.49422L4.49423 0.0250295C4.44444 0.0142895 4.39321 0.00874667 4.34271 0L4.3427 5.08626e-06Z" transform="translate(40.3332 41.8461)" fill="#212121"/>
<path d="M2.81637 0C2.73158 0.01928 2.65141 0.0445905 2.56893 0.0695038L0.0625598 2.57726C0.0388664 2.65601 0.0186067 2.73552 0 2.81636L2.81637 0H2.81637Z" transform="translate(3.17776 41.8835)" fill="#212121"/>
<path d="M2.81637 0C2.73159 0.01928 2.65141 0.0445905 2.56893 0.0695038L0.062561 2.57726C0.0388677 2.65601 0.0186 2.73552 0 2.81636L2.81637 0H2.81637Z" transform="translate(21.7812 41.8835)" fill="#212121"/>
<path d="M2.81637 0C2.73159 0.01928 2.6528 0.0445905 2.57032 0.0695038L0.0639496 2.57726C0.0402496 2.65601 0.0185933 2.73691 0 2.81774L2.81637 0Z" transform="translate(40.3777 41.8835)" fill="#212121"/>
<path d="M4.67216 0L0 4.67771C0.01398 4.72479 0.0287873 4.77044 0.0444806 4.81672L4.81812 0.0500437C4.76929 0.0332504 4.72188 0.0148133 4.67216 0H4.67216Z" transform="translate(3.2334 41.9475)" fill="#212121"/>
<path d="M4.67216 0L0 4.67771C0.0139867 4.72479 0.0287794 4.77044 0.0444794 4.81672L4.81673 0.0500437C4.7679 0.0332504 4.72187 0.0148133 4.67216 0H4.67216Z" transform="translate(21.8381 41.9475)" fill="#212121"/>
<path d="M4.67077 0L0 4.67771C0.01398 4.72478 0.028726 4.77044 0.0444794 4.81672L4.81673 0.0500539C4.7679 0.0332606 4.72049 0.0148251 4.67077 5.08626e-06V0Z" transform="translate(40.4347 41.9475)" fill="#212121"/>
<path d="M4.92377 0L0 4.92376C0.01826 4.96677 0.0358322 5.00948 0.0556056 5.05165L5.04471 0.055603C5.00456 0.036723 4.96467 0.0175067 4.92377 0H4.92377Z" transform="translate(3.38074 42.0935)" fill="#212121"/>
<path d="M4.92516 0L0 4.92376C0.01826 4.96677 0.0386135 5.00948 0.0583801 5.05165L5.04471 0.055603C5.00455 0.036723 4.96605 0.0175067 4.92516 0H4.92516Z" transform="translate(21.9827 42.0935)" fill="#212121"/>
<path d="M4.92377 0L0 4.92376C0.0182667 4.96677 0.0372033 5.00809 0.0569967 5.05026L5.04471 0.0569967C5.00459 0.0381167 4.96467 0.0174933 4.92377 0Z" transform="translate(40.5807 42.0935)" fill="#212121"/>
<path d="M1.67786 0C1.52197 0.076526 1.372 0.161797 1.24693 0.241877L0.234929 1.26082C0.146621 1.39185 0.0715407 1.53024 0 1.6723L1.67786 0Z" transform="translate(3.48083 42.1866)" fill="#212121"/>
<path d="M1.67647 0C1.52058 0.076526 1.372 0.161797 1.24693 0.241877L0.233541 1.26082C0.145226 1.39185 0.0715507 1.53024 0 1.6723L1.67647 0Z" transform="translate(22.0856 42.1866)" fill="#212121"/>
<path d="M1.67647 0C1.52059 0.076526 1.37199 0.160408 1.24693 0.240489L0.233536 1.25944C0.145227 1.39046 0.0715473 1.52885 0 1.6709L1.67647 0Z" transform="translate(40.6822 42.1881)" fill="#212121"/>
<path d="M5.11422 0L0 5.1156C0.0216933 5.15439 0.0451134 5.19165 0.0681114 5.22958L5.22681 0.0708974C5.18887 0.0478041 5.15301 0.0217718 5.11421 5.08626e-06L5.11422 0Z" transform="translate(3.55173 42.2687)" fill="#212121"/>
<path d="M5.11422 0L0 5.1156C0.0216933 5.15439 0.0465082 5.19165 0.0695089 5.22958L5.2296 0.0708974C5.19165 0.0478041 5.15302 0.0217718 5.11422 5.08626e-06L5.11422 0Z" transform="translate(22.1537 42.2687)" fill="#212121"/>
<path d="M5.11422 0L0 5.1142C0.0217067 5.153 0.0464815 5.19027 0.0695089 5.2282L5.22821 0.0695089C5.19028 0.0464155 5.15301 0.0217733 5.11422 0Z" transform="translate(40.7516 42.2701)" fill="#212121"/>
<path d="M5.22682 0L0 5.22958C0.02356 5.26299 0.0434607 5.29708 0.0681127 5.32967L5.32829 0.0708974C5.29572 0.0462174 5.26025 0.0236451 5.22681 5.08626e-06L5.22682 0Z" transform="translate(3.76721 42.4841)" fill="#212121"/>
<path d="M5.22959 0L0 5.22958C0.02356 5.26299 0.044859 5.29708 0.0695063 5.32967L5.32968 0.0708974C5.29711 0.0462174 5.26303 0.0236451 5.2296 5.08626e-06L5.22959 0Z" transform="translate(22.3692 42.4841)" fill="#212121"/>
<path d="M5.2296 0L0 5.2282C0.0235733 5.2616 0.0462708 5.29708 0.0708974 5.32967L5.32968 0.0695038C5.29709 0.0448238 5.263 0.0236333 5.22959 0H5.2296Z" transform="translate(40.9657 42.4856)" fill="#212121"/>
<path d="M5.29771 0L0 5.29909C0.0282467 5.33157 0.0596289 5.36214 0.0889689 5.39362L5.39224 0.0834045C5.36142 0.0546445 5.32949 0.02774 5.29771 0Z" transform="translate(41.2007 42.7191)" fill="#212121"/>
<path d="M5.29771 5.08626e-06L0 5.2977C0.02824 5.33018 0.059653 5.35935 0.0889664 5.39084L5.39363 0.0820211C5.36277 0.0532611 5.3295 0.0277267 5.29771 0V5.08626e-06Z" transform="translate(4.00073 42.7206)" fill="#212121"/>
<path d="M5.2991 5.08626e-06L0 5.2977C0.02824 5.33018 0.0596524 5.35935 0.0889664 5.39084L5.39363 0.0820211C5.36284 0.0532611 5.33089 0.0277267 5.2991 0V5.08626e-06Z" transform="translate(22.6027 42.7206)" fill="#212121"/>
<path d="M5.29771 0L0 5.30465C0.0295467 5.33237 0.058487 5.3599 0.0889676 5.38667L5.38668 0.0889689C5.35899 0.0573422 5.32639 0.030674 5.29771 0Z" transform="translate(4.27182 42.9847)" fill="#212121"/>
<path d="M5.29771 0L0 5.30465C0.0295533 5.33237 0.0584864 5.3599 0.0889664 5.38667L5.38668 0.0889689C5.35899 0.0573422 5.32641 0.030674 5.29771 0Z" transform="translate(22.8766 42.9847)" fill="#212121"/>
<path d="M5.29771 0L0 5.30325C0.0295667 5.33097 0.0571297 5.3599 0.0875804 5.38666L5.38668 0.0875753C5.35902 0.0559486 5.32641 0.0306767 5.29771 0Z" transform="translate(41.4731 42.9861)" fill="#212121"/>
<path d="M5.25879 0L0 5.26016C0.0362333 5.28793 0.0697491 5.31574 0.107039 5.34218L5.33525 0.108434C5.31011 0.0730607 5.28509 0.0344551 5.25879 5.08626e-06V0Z" transform="translate(4.5582 43.2697)" fill="#212121"/>
<path d="M5.26157 0L0 5.26016C0.0362333 5.28793 0.0697504 5.31574 0.10704 5.34218L5.33664 0.108434C5.3115 0.0730607 5.28786 0.0344551 5.26158 5.08626e-06L5.26157 0Z" transform="translate(23.1602 43.2697)" fill="#212121"/>
<path d="M5.26018 0L0 5.26016C0.0362667 5.28793 0.0697517 5.31712 0.10704 5.34357L5.33525 0.108429C5.31011 0.0730556 5.2865 0.03445 5.26018 0H5.26018Z" transform="translate(41.7581 43.2697)" fill="#212121"/>
<path d="M5.1587 0L0 5.15869C0.0369333 5.18121 0.0762309 5.20136 0.113988 5.22263L5.22821 0.108429C5.20707 0.0709223 5.18106 0.0367033 5.1587 0Z" transform="translate(42.0806 43.5991)" fill="#212121"/>
<path d="M5.1587 5.08626e-06L0 5.1573C0.0369133 5.17982 0.0748364 5.19858 0.1126 5.21985L5.22681 0.10704C5.20567 0.0695337 5.18109 0.0367087 5.1587 0L5.1587 5.08626e-06Z" transform="translate(4.88071 43.6006)" fill="#212121"/>
<path d="M5.1587 5.08626e-06L0 5.1573C0.0369133 5.17982 0.0762396 5.19858 0.113988 5.21985L5.2296 0.10704C5.20845 0.0695337 5.18108 0.0367087 5.1587 0V5.08626e-06Z" transform="translate(23.4827 43.6006)" fill="#212121"/>
<path d="M4.99467 0L0 4.99465C0.0425733 5.01483 0.0830685 5.03999 0.126499 5.0586L5.05722 0.1265C5.03863 0.0830138 5.01486 0.0426267 4.99466 0H4.99467Z" transform="translate(5.22818 43.9467)" fill="#212121"/>
<path d="M4.99467 0L0 4.99465C0.0425667 5.01483 0.0830684 5.03999 0.1265 5.0586L5.05861 0.1265C5.04001 0.0830138 5.01485 0.0426267 4.99467 0Z" transform="translate(23.8316 43.9467)" fill="#212121"/>
<path d="M4.99467 0L0 4.99327C0.0425667 5.01345 0.0830704 5.03861 0.1265 5.05722L5.05723 0.126506C5.03861 0.0830189 5.01485 0.0426304 4.99466 5.08626e-06L4.99467 0Z" transform="translate(42.4281 43.9481)" fill="#212121"/>
<path d="M4.76669 0L0 4.76668C0.04408 4.78184 0.0872424 4.79762 0.13206 4.81116L4.81117 0.127889C4.79809 0.0845623 4.78129 0.042654 4.76669 0H4.76669Z" transform="translate(5.61465 44.3331)" fill="#212121"/>
<path d="M4.7653 0L0 4.76668C0.04408 4.78184 0.0872477 4.79762 0.13206 4.81116L4.80978 0.127889C4.79669 0.0845623 4.7799 0.042654 4.7653 0H4.7653Z" transform="translate(24.218 44.3331)" fill="#212121"/>
<path d="M4.76669 0L0 4.76668C0.0440933 4.78184 0.0886316 4.79762 0.133448 4.81116L4.81117 0.127889C4.79808 0.0845623 4.78127 0.042654 4.76669 0Z" transform="translate(42.8146 44.3331)" fill="#212121"/>
<path d="M4.46921 5.08626e-06L0 4.4692C0.0504933 4.48012 0.101688 4.49091 0.152913 4.49978L4.50118 0.15152C4.49236 0.100486 4.48008 0.0503067 4.46921 0L4.46921 5.08626e-06Z" transform="translate(6.03171 44.7516)" fill="#212121"/>
<path d="M4.46781 5.08626e-06L0 4.4692C0.0504867 4.48012 0.100292 4.49091 0.151522 4.49978L4.49979 0.15152C4.49097 0.100486 4.47869 0.0503067 4.46782 0L4.46781 5.08626e-06Z" transform="translate(24.6364 44.7516)" fill="#212121"/>
<path d="M4.46781 5.08626e-06L0 4.4692C0.0504867 4.48012 0.100292 4.4909 0.15152 4.49978L4.49979 0.15152C4.49095 0.100486 4.47869 0.0503067 4.46782 0L4.46781 5.08626e-06Z" transform="translate(43.233 44.7516)" fill="#212121"/>
<path d="M4.07024 0L0 4.07023C0.0562067 4.07516 0.114083 4.08037 0.170984 4.08274L4.08275 0.164032C4.08069 0.109259 4.07495 0.0541473 4.07024 0H4.07024Z" transform="translate(6.50015 45.2201)" fill="#212121"/>
<path d="M4.07024 0L0 4.07023C0.0562067 4.07516 0.11409 4.08037 0.170982 4.08274L4.08275 0.164032C4.08069 0.109259 4.07495 0.0541473 4.07024 0H4.07024Z" transform="translate(25.1035 45.2201)" fill="#212121"/>
<path d="M4.06885 0L0 4.07023C0.0562067 4.07516 0.1127 4.08037 0.169596 4.08274L4.08276 0.164032C4.08043 0.109259 4.07354 0.0541467 4.06886 0H4.06885Z" transform="translate(43.7014 45.2201)" fill="#212121"/>
<path d="M3.53783 0L0 3.53782C0.0586867 3.53462 0.119987 3.53811 0.177933 3.53229H0.184953L3.53234 0.183523C3.53255 0.181456 3.53214 0.180055 3.53234 0.177989C3.53781 0.120035 3.53521 0.0587539 3.53787 5.59489e-05L3.53783 0Z" transform="translate(7.03812 45.7581)" fill="#212121"/>
<path d="M3.53922 0L0 3.53782C0.05868 3.53462 0.119988 3.53811 0.177935 3.53229H0.183469L3.53224 0.183523C3.53246 0.181456 3.53202 0.180055 3.53224 0.177989C3.53838 0.120035 3.53638 0.0587539 3.53918 5.59489e-05L3.53922 0Z" transform="translate(25.6415 45.7581)" fill="#212121"/>
<path d="M3.53783 0L0 3.53782C0.0586933 3.53462 0.118596 3.53815 0.176544 3.53229H0.183477L3.53086 0.183523C3.53107 0.181456 3.53066 0.17859 3.53086 0.17659C3.53666 0.118637 3.53466 0.0587444 3.5378 4.57764e-05L3.53783 0Z" transform="translate(44.2394 45.7581)" fill="#212121"/>
<path d="M2.84138 0L0 2.84277C0.083034 2.82422 0.165187 2.80278 0.246049 2.77882L2.77883 0.254389C2.80349 0.171633 2.82238 0.0850307 2.84139 0H2.84138Z" transform="translate(7.65256 46.3711)" fill="#212121"/>
<path d="M2.84278 0L0 2.84277C0.083034 2.82422 0.16657 2.80278 0.247439 2.77882L2.77883 0.254389C2.80349 0.171633 2.82376 0.0850307 2.84277 0H2.84278Z" transform="translate(26.2559 46.3711)" fill="#212121"/>
<path d="M2.84278 5.08626e-06L0 2.84138C0.083034 2.82284 0.166573 2.80277 0.247442 2.77882L2.77883 0.253001C2.80349 0.170244 2.82378 0.0850307 2.84278 0V5.08626e-06Z" transform="translate(44.8525 46.3724)" fill="#212121"/>
<path d="M1.68343 0L0 1.68481C0.138059 1.61572 0.271215 1.54177 0.398961 1.45683L1.43737 0.423981C1.43997 0.420181 1.44031 0.415402 1.44291 0.411469C1.53098 0.280098 1.61215 0.14236 1.6834 0H1.68343Z" transform="translate(45.7074 47.226)" fill="#212121"/>
<path d="M1.68203 5.08626e-06L0 1.68203C0.138057 1.61294 0.269825 1.54038 0.397572 1.45544L1.43599 0.422597C1.43879 0.418797 1.44012 0.415402 1.44292 0.411469C1.53099 0.280098 1.61077 0.14236 1.68202 0L1.68203 5.08626e-06Z" transform="translate(8.50748 47.2274)" fill="#212121"/>
<path d="M1.68342 5.08626e-06L0 1.68203C0.138058 1.61294 0.271221 1.54038 0.398961 1.45544L1.43738 0.422597C1.44018 0.418797 1.44024 0.415402 1.44291 0.411469C1.53098 0.280098 1.61216 0.14236 1.6834 0L1.68342 5.08626e-06Z" transform="translate(27.1108 47.2274)" fill="#212121"/>
<path d="M3.97433 0L0 3.97571V4.16059L4.15782 0H3.97433Z" transform="translate(0 50.194)" fill="#212121"/>
<path d="M4.51925 0L0 4.51368V4.70412L4.69579 0H4.51925Z" transform="translate(0 50.194)" fill="#212121"/>
<path d="M5.06278 0L0 5.06555V5.2421L5.24072 0H5.06278Z" transform="translate(0 50.194)" fill="#212121"/>
<path d="M5.5952 0L0 5.59657V5.78007L5.77869 0H5.5952Z" transform="translate(0 50.194)" fill="#212121"/>
<path d="M6.14012 0L0 6.14149V6.31804L6.31666 0H6.14012Z" transform="translate(0 50.194)" fill="#212121"/>
<path d="M6.67809 0L0 6.67808V6.85045L6.85464 0H6.67809Z" transform="translate(0 50.194)" fill="#212121"/>
<path d="M7.22301 0L0 7.21604V7.40093L7.394 0H7.22301Z" transform="translate(0 50.194)" fill="#212121"/>
<path d="M7.75404 0L0 7.76097V7.93195L7.93614 0H7.75404Z" transform="translate(0 50.194)" fill="#212121"/>
<path d="M8.29201 0L0 8.29894V8.47687L8.4755 0H8.29201Z" transform="translate(0 50.194)" fill="#212121"/>
<path d="M8.82998 0L0 8.83691V9.01484L9.02043 0H8.82998Z" transform="translate(0 50.194)" fill="#212121"/>
<path d="M9.36795 0L0 9.36932V9.5403L9.55145 0H9.36795Z" transform="translate(0 50.194)" fill="#212121"/>
<path d="M3.97572 0L0 3.97571V4.16059L4.15782 0H3.97572Z" transform="translate(18.6034 50.194)" fill="#212121"/>
<path d="M4.51925 0L0 4.51368V4.70412L4.69718 0H4.51925Z" transform="translate(18.6034 50.194)" fill="#212121"/>
<path d="M5.06417 0L0 5.06555V5.2421L5.24211 0H5.06417Z" transform="translate(18.6034 50.194)" fill="#212121"/>
<path d="M5.59519 0L0 5.59657V5.78007L5.78008 0H5.59519Z" transform="translate(18.6034 50.194)" fill="#212121"/>
<path d="M6.14012 0L0 6.14149V6.31804L6.31805 0H6.14012Z" transform="translate(18.6034 50.194)" fill="#212121"/>
<path d="M6.67809 0L0 6.67808V6.85045L6.85463 0H6.67809Z" transform="translate(18.6034 50.194)" fill="#212121"/>
<path d="M7.22162 0L0 7.21604V7.40093L7.39261 0H7.22162Z" transform="translate(18.6034 50.194)" fill="#212121"/>
<path d="M7.75404 0L0 7.76097V7.93195L7.93753 0H7.75404Z" transform="translate(18.6034 50.194)" fill="#212121"/>
<path d="M8.29201 0L0 8.29894V8.47687L8.4755 0H8.29201Z" transform="translate(18.6034 50.194)" fill="#212121"/>
<path d="M8.82998 0L0 8.83691V9.01484L9.02043 0H8.82998Z" transform="translate(18.6034 50.194)" fill="#212121"/>
<path d="M9.36795 0L0 9.36932V9.5403L9.55145 0H9.36795Z" transform="translate(18.6034 50.194)" fill="#212121"/>
<path d="M3.97572 0L0 3.97571V4.1592L4.15921 0H3.97572Z" transform="translate(37.1999 50.1953)" fill="#212121"/>
<path d="M4.51925 0L0 4.51368V4.70273L4.69718 0H4.51925Z" transform="translate(37.1999 50.1953)" fill="#212121"/>
<path d="M5.06417 0L0 5.06416V5.2407L5.24072 0H5.06417Z" transform="translate(37.1999 50.1953)" fill="#212121"/>
<path d="M5.59519 0L0 5.59518V5.77868L5.77869 0H5.59519Z" transform="translate(37.1999 50.1953)" fill="#212121"/>
<path d="M6.14012 0L0 6.1401V6.31665L6.31667 0H6.14012Z" transform="translate(37.1999 50.1953)" fill="#212121"/>
<path d="M6.67809 0L0 6.67807V6.84905L6.85602 0H6.67809Z" transform="translate(37.1999 50.1953)" fill="#212121"/>
<path d="M7.22302 0L0 7.21604V7.39954L7.394 0H7.22302Z" transform="translate(37.1999 50.1953)" fill="#212121"/>
<path d="M7.75404 0L0 7.75958V7.93056L7.93753 0H7.75404Z" transform="translate(37.1999 50.1953)" fill="#212121"/>
<path d="M8.29201 0L0 8.29755V8.47548L8.4755 0H8.29201Z" transform="translate(37.1999 50.1953)" fill="#212121"/>
<path d="M8.82998 0L0 8.83691V9.01345L9.02043 0H8.82998Z" transform="translate(37.1999 50.1953)" fill="#212121"/>
<path d="M9.36796 0L0 9.36793V9.53891L9.55145 0H9.36796Z" transform="translate(37.1999 50.1953)" fill="#212121"/>
<path d="M3.60734 0.000320629C3.54362 -0.00147937 3.47081 0.00445472 3.41829 0.0142214L0.0111268 3.41164C0.0041935 3.47652 0.00306667 3.54363 0 3.60903L3.60734 0.000315543L3.60734 0.000320629Z" transform="translate(0.00695801 50.2006)" fill="#212121"/>
<path d="M9.80584 0L0 9.79886H0.184884L9.96987 0.0139008C9.9156 0.00756742 9.86052 0.00363333 9.80584 0Z" transform="translate(0.100098 50.2009)" fill="#212121"/>
<path d="M3.60873 0.000320629C3.54501 -0.00147937 3.47081 0.00445472 3.41828 0.0142214L0.0139008 3.41164C0.00696742 3.47652 0.00309333 3.54363 0 3.60903L3.60873 0.000315543V0.000320629Z" transform="translate(18.6089 50.2006)" fill="#212121"/>
<path d="M9.80445 0L0 9.79886H0.182106L9.96987 0.0139008C9.91559 0.00756742 9.85913 0.00363333 9.80445 0Z" transform="translate(18.7048 50.2009)" fill="#212121"/>
<path d="M3.60734 0.000383125C3.54363 -0.00141688 3.47081 0.00318709 3.41828 0.0129004L0.0125173 3.41171C0.00558396 3.47659 0.00305333 3.54231 0 3.60771L3.60734 0.000388211V0.000383125Z" transform="translate(37.2069 50.2019)" fill="#212121"/>
<path d="M9.80445 0L0 9.79747H0.183492L9.96987 0.0125122C9.9156 0.00617887 9.85913 0.00363333 9.80445 0Z" transform="translate(37.3014 50.2023)" fill="#212121"/>
<path d="M9.73495 0L0 9.72797H0.176545L9.88091 0.0305837C9.83249 0.018217 9.78386 0.0102784 9.73495 5.08626e-06V0Z" transform="translate(0.639435 50.2719)" fill="#212121"/>
<path d="M9.73494 0L0 9.72797H0.177933L9.88091 0.0305837C9.83249 0.018217 9.78386 0.0102784 9.73494 5.08626e-06V0Z" transform="translate(19.2428 50.2719)" fill="#212121"/>
<path d="M9.73494 0L0 9.72797H0.177933L9.88091 0.0305837C9.83251 0.018217 9.78386 0.0102784 9.73494 5.08626e-06V0Z" transform="translate(37.8394 50.2719)" fill="#212121"/>
<path d="M2.89143 0C2.80339 0.0207733 2.71764 0.0420422 2.63148 0.0695089L0.0681121 2.63286C0.0405654 2.71911 0.0209253 2.80473 0 2.89282L2.89143 0H2.89143Z" transform="translate(0.0959167 50.2899)" fill="#212121"/>
<path d="M2.89421 0C2.80618 0.0207733 2.72043 0.0420422 2.63426 0.0695089L0.0695063 2.63286C0.0418797 2.71911 0.0209267 2.80473 0 2.89282L2.89421 0H2.89421Z" transform="translate(18.6979 50.2899)" fill="#212121"/>
<path d="M2.89282 0C2.80479 0.0207733 2.72042 0.0420489 2.63426 0.0695089L0.0708923 2.63286C0.043299 2.71911 0.0209467 2.80473 0 2.89282L2.89282 0Z" transform="translate(37.2945 50.2899)" fill="#212121"/>
<path d="M9.61539 0L0 9.61398H0.183495L9.74885 0.0500437C9.70497 0.0328704 9.65991 0.0154533 9.61539 0Z" transform="translate(1.18994 50.3859)" fill="#212121"/>
<path d="M9.61539 0L0 9.61398H0.183497L9.74746 0.0500437C9.70358 0.0328704 9.65991 0.0154533 9.61539 0Z" transform="translate(19.7933 50.3859)" fill="#212121"/>
<path d="M9.61539 0L0 9.61398H0.183492L9.74745 0.0500437C9.70355 0.0328771 9.65991 0.0154533 9.61539 0Z" transform="translate(38.3899 50.3859)" fill="#212121"/>
<path d="M9.46943 0L0 9.4569H0.189054L9.58342 0.0583852C9.54539 0.0386719 9.50808 0.0184118 9.46943 5.08626e-06V0Z" transform="translate(1.71542 50.5428)" fill="#212121"/>
<path d="M9.46943 0L0 9.4569H0.190442L9.58342 0.0583852C9.54541 0.0386719 9.50808 0.0184118 9.46943 5.08626e-06V0Z" transform="translate(20.3188 50.5428)" fill="#212121"/>
<path d="M9.46943 0L0 9.4569H0.190445L9.58342 0.0569916C9.54537 0.0372782 9.50808 0.0184067 9.46943 0Z" transform="translate(38.9153 50.5428)" fill="#212121"/>
<path d="M1.68342 0C1.53025 0.0812493 1.38174 0.171484 1.23998 0.272461L0.284973 1.22885C0.180216 1.37479 0.083954 1.5253 0 1.68342L1.68342 0Z" transform="translate(0.430939 50.6194)" fill="#212121"/>
<path d="M1.68343 0C1.53024 0.0812493 1.38174 0.171484 1.23998 0.272461L0.283585 1.22885C0.178829 1.37479 0.0839487 1.5253 0 1.68342L1.68343 0Z" transform="translate(19.0343 50.6194)" fill="#212121"/>
<path d="M1.68343 0C1.53024 0.0812493 1.38174 0.171484 1.23998 0.272461L0.284973 1.22746C0.180219 1.3734 0.0839533 1.5253 0 1.68342L1.68343 0Z" transform="translate(37.6309 50.6194)" fill="#212121"/>
<path d="M9.25953 0L0 9.26784H0.176545L9.38047 0.0708923C9.34176 0.045519 9.29902 0.0239867 9.25953 0Z" transform="translate(2.26587 50.7319)" fill="#212121"/>
<path d="M9.26092 0L0 9.26784H0.177933L9.38047 0.0708923C9.34176 0.045519 9.30042 0.0239867 9.26092 0Z" transform="translate(20.8692 50.7319)" fill="#212121"/>
<path d="M9.26091 5.08626e-06L0 9.26645H0.177933L9.38046 0.0695089C9.34179 0.0441355 9.30041 0.0239933 9.26091 0V5.08626e-06Z" transform="translate(39.4658 50.7334)" fill="#212121"/>
<path d="M9.05796 0L0 9.04543H0.189055L9.15249 0.0764567C9.12101 0.0513167 9.09017 0.0241767 9.05796 0Z" transform="translate(2.79831 50.9545)" fill="#212121"/>
<path d="M9.05935 0L0 9.04543H0.191836L9.15388 0.0764567C9.1224 0.0513167 9.09155 0.0241767 9.05935 0Z" transform="translate(21.4003 50.9545)" fill="#212121"/>
<path d="M9.05796 0L0 9.04543H0.189056L9.15249 0.0764567C9.12099 0.0513167 9.09016 0.0241833 9.05796 0Z" transform="translate(39.9982 50.9545)" fill="#212121"/>
<path d="M8.81052 5.08626e-06L0 8.79799H0.189056L8.90505 0.0820211C8.87488 0.0529144 8.84154 0.0281733 8.81052 0V5.08626e-06Z" transform="translate(3.33627 51.2018)" fill="#212121"/>
<path d="M8.81191 5.08626e-06L0 8.79799H0.191833L8.90783 0.0820211C8.87765 0.0529144 8.84294 0.0281733 8.81191 0V5.08626e-06Z" transform="translate(21.9382 51.2018)" fill="#212121"/>
<path d="M8.81052 5.08626e-06L0 8.79799H0.189051L8.90644 0.0820211C8.87624 0.0529144 8.84157 0.02818 8.81052 0V5.08626e-06Z" transform="translate(40.5362 51.2018)" fill="#212121"/>
<path d="M8.53945 0L0 8.53248H0.183495L8.62147 0.0959167C8.59405 0.0641634 8.5678 0.0309167 8.53945 0H8.53945Z" transform="translate(3.87979 51.4674)" fill="#212121"/>
<path d="M8.53806 0L0 8.53248H0.183495L8.62146 0.0959167C8.59404 0.0641634 8.56641 0.0309167 8.53806 0H8.53806Z" transform="translate(22.4832 51.4674)" fill="#212121"/>
<path d="M8.53945 0L0 8.53248H0.183492L8.62146 0.0945282C8.59408 0.0627749 8.56779 0.0309133 8.53945 0H8.53945Z" transform="translate(41.0797 51.4674)" fill="#212121"/>
<path d="M8.25309 0L0 8.24055H0.194617L8.32954 0.100087C8.30495 0.0655541 8.27877 0.0337687 8.25308 0H8.25309Z" transform="translate(4.4122 51.7593)" fill="#212121"/>
<path d="M8.25448 0L0 8.24055H0.197398L8.33093 0.100087C8.30634 0.0655541 8.28016 0.0337687 8.25448 0Z" transform="translate(23.0142 51.7593)" fill="#212121"/>
<path d="M8.25448 0L0 8.24055H0.196004L8.32954 0.101481C8.30498 0.0669478 8.28012 0.033774 8.25447 0H8.25448Z" transform="translate(41.6121 51.7593)" fill="#212121"/>
<path d="M7.91807 0L0 7.91805H0.177933L7.98757 0.108424C7.96636 0.0714239 7.94052 0.0363293 7.91807 0H7.91807Z" transform="translate(4.96268 52.0818)" fill="#212121"/>
<path d="M7.91807 0L0 7.91805H0.176544L7.98897 0.108424C7.96775 0.0714239 7.94051 0.0363293 7.91807 0H7.91807Z" transform="translate(23.566 52.0818)" fill="#212121"/>
<path d="M7.91807 0L0 7.91805H0.177933L7.98757 0.107035C7.96633 0.0700353 7.94051 0.0363347 7.91807 0Z" transform="translate(42.1626 52.0818)" fill="#212121"/>
<path d="M7.5761 0L0 7.57052H0.189055L7.6331 0.120941C7.61518 0.0805878 7.59538 0.039752 7.5761 0H7.5761Z" transform="translate(5.50064 52.4293)" fill="#212121"/>
<path d="M7.57749 0L0 7.57052H0.190445L7.63309 0.120941C7.61518 0.0805878 7.59677 0.039752 7.57749 0H7.57749Z" transform="translate(24.104 52.4293)" fill="#212121"/>
<path d="M7.57749 0L0 7.57052H0.190445L7.63449 0.120941C7.61662 0.0805878 7.59678 0.0397433 7.57749 0Z" transform="translate(42.7006 52.4293)" fill="#212121"/>
<path d="M7.1966 0L0 7.19658H0.189054L7.24109 0.133453C7.22696 0.0888067 7.21238 0.0440927 7.19661 0H7.1966Z" transform="translate(6.03867 52.8032)" fill="#212121"/>
<path d="M7.1966 0L0 7.19658H0.190445L7.24109 0.133453C7.22697 0.0888067 7.21245 0.0440927 7.19661 0H7.1966Z" transform="translate(24.642 52.8032)" fill="#212121"/>
<path d="M7.1966 0L0 7.19658H0.190445L7.24108 0.133453C7.22697 0.0888067 7.21242 0.0440927 7.1966 0Z" transform="translate(43.2386 52.8032)" fill="#212121"/>
<path d="M6.77817 0L0 6.77955H0.17098L6.80459 0.152913C6.79554 0.102567 6.78941 0.04986 6.77817 0Z" transform="translate(43.7835 53.2203)" fill="#212121"/>
<path d="M6.77957 0L0 6.77816H0.172376L6.80598 0.150131C6.79696 0.0997846 6.79086 0.0498607 6.77957 0Z" transform="translate(6.58215 53.2217)" fill="#212121"/>
<path d="M6.77957 0L0 6.77816H0.170985L6.80459 0.150131C6.79557 0.0997846 6.79086 0.0498607 6.77956 0H6.77957Z" transform="translate(25.1855 53.2217)" fill="#212121"/>
<path d="M6.31805 0L0 6.31109H0.183492L6.32361 0.165421C6.32181 0.110507 6.32267 0.054568 6.31807 0H6.31805Z" transform="translate(44.3145 53.6888)" fill="#212121"/>
<path d="M6.31805 0L0 6.30969H0.183496L6.32361 0.164032C6.32155 0.109119 6.32221 0.0545687 6.31808 0H6.31805Z" transform="translate(7.11459 53.6902)" fill="#212121"/>
<path d="M6.31666 0L0 6.30969H0.183495L6.32361 0.164032C6.32155 0.109119 6.32075 0.0545687 6.31668 0H6.31666Z" transform="translate(25.7179 53.6902)" fill="#212121"/>
<path d="M5.77869 0L0 5.78562H0.170984L5.77869 0.184886V0Z" transform="translate(7.66507 54.2142)" fill="#212121"/>
<path d="M5.78008 0L0 5.78562H0.170982L5.78008 0.184886V0Z" transform="translate(26.2684 54.2142)" fill="#212121"/>
<path d="M5.78008 0L0 5.78562H0.170985L5.78008 0.183497V0Z" transform="translate(44.865 54.2142)" fill="#212121"/>
<path d="M5.24767 0L0 5.25321H0.177934L5.24767 0.183497V0Z" transform="translate(8.19608 54.7467)" fill="#212121"/>
<path d="M5.24767 0L0 5.25321H0.176544L5.24767 0.183497V0Z" transform="translate(26.8008 54.7467)" fill="#212121"/>
<path d="M5.24767 0L0 5.25321H0.176544L5.24767 0.183497V0Z" transform="translate(45.3974 54.7467)" fill="#212121"/>
<path d="M4.70274 0L0 4.70968H0.177934L4.70274 0.184886V0Z" transform="translate(8.741 55.2902)" fill="#212121"/>
<path d="M4.70274 0L0 4.70968H0.175153L4.70274 0.184886V0Z" transform="translate(27.3458 55.2902)" fill="#212121"/>
<path d="M4.70413 0L0 4.70968H0.177933L4.70413 0.184886V0Z" transform="translate(45.9409 55.2902)" fill="#212121"/>
<path d="M4.15782 0L0 4.17171H0.164032L4.15782 0.190445V0Z" transform="translate(9.28592 55.8282)" fill="#212121"/>
<path d="M4.15921 0L0 4.17171H0.165421L4.15921 0.190445V0Z" transform="translate(27.8893 55.8282)" fill="#212121"/>
<path d="M4.15921 0L0 4.17032H0.164032L4.15921 0.189056V0Z" transform="translate(46.4859 55.8296)" fill="#212121"/>
<path d="M3.6268 0L0 3.62679H0.177933L3.6268 0.177933V0Z" transform="translate(9.81699 56.3732)" fill="#212121"/>
<path d="M3.6268 0L0 3.62679H0.176547L3.6268 0.177933V0Z" transform="translate(28.4217 56.3732)" fill="#212121"/>
<path d="M3.6268 0L0 3.62679H0.176544L3.6268 0.177933V0Z" transform="translate(47.0183 56.3732)" fill="#212121"/>
<path d="M3.08882 0L0 3.09577H0.183493L3.08882 0.190445V0Z" transform="translate(10.3549 56.9042)" fill="#212121"/>
<path d="M3.09021 0L0 3.09577H0.183495L3.09021 0.190445V0Z" transform="translate(28.9583 56.9042)" fill="#212121"/>
<path d="M3.08883 0L0 3.09438H0.183497L3.08883 0.189056V0Z" transform="translate(47.5562 56.9056)" fill="#212121"/>
<path d="M2.54946 0L0 2.55085H0.175153L2.54946 0.183492V0Z" transform="translate(10.8943 57.4491)" fill="#212121"/>
<path d="M2.55224 0L0 2.55085H0.177935L2.55224 0.183492V0Z" transform="translate(29.4962 57.4491)" fill="#212121"/>
<path d="M2.55085 0L0 2.55085H0.176544L2.55085 0.183492V0Z" transform="translate(48.0942 57.4491)" fill="#212121"/>
<path d="M2.01149 0L0 2.01288H0.182106L2.01149 0.183497V0Z" transform="translate(11.4323 57.9871)" fill="#212121"/>
<path d="M2.01427 0L0 2.01288H0.184886L2.01427 0.183497V0Z" transform="translate(30.0342 57.9871)" fill="#212121"/>
<path d="M2.01288 0L0 2.01288H0.183492L2.01288 0.183497V0Z" transform="translate(48.6322 57.9871)" fill="#212121"/>
<path d="M1.46796 0L0 1.46935H0.170982L1.46796 0.170985V0Z" transform="translate(11.9758 58.5306)" fill="#212121"/>
<path d="M1.46935 0L0 1.46935H0.170985L1.46935 0.170985V0Z" transform="translate(30.5792 58.5306)" fill="#212121"/>
<path d="M1.46935 0L0 1.46795H0.170985L1.46935 0.17098V0Z" transform="translate(49.1757 58.5321)" fill="#212121"/>
<path d="M0.935544 0L0 0.936935H0.189056L0.935544 0.190445V0Z" transform="translate(12.5082 59.0631)" fill="#212121"/>
<path d="M0.938324 0L0 0.936935H0.190445L0.938324 0.190445V0Z" transform="translate(31.1102 59.0631)" fill="#212121"/>
<path d="M0.936935 0L0 0.936935H0.189056L0.936935 0.190445V0Z" transform="translate(49.7081 59.0631)" fill="#212121"/>
<path d="M3.74218 0C1.78205 0 -0.00103155 1.78493 4.47751e-07 3.74495C0.000733781 5.70346 1.78356 7.48434 3.74218 7.48434C5.7008 7.48434 7.4829 5.70346 7.48436 3.74495C7.48576 1.78443 5.70231 0 3.74218 0Z" transform="translate(21.6862)" fill="#212121"/>
<path d="M3.57258 0C1.70092 0 0 1.70648 0 3.57814V10.1923H13.4007V3.57814C13.4007 1.70599 11.6997 0 9.82808 0H3.57258Z" transform="translate(18.6224 8.21777)" fill="#212121"/>
<path d="M3.89926 2.54313e-06L0 3.89786C0.00206667 3.95471 0.00213385 4.01267 0.00693385 4.06885L4.07023 0.0125122C4.01396 0.00777887 3.95617 0.00227333 3.89924 0L3.89926 2.54313e-06Z" transform="translate(12.3802 21.001)" fill="#212121"/>
<path d="M3.89926 2.54313e-06L0 3.89786C0.00206667 3.95471 0.00219924 4.01267 0.00693258 4.06885L4.07162 0.0125122C4.01579 0.00784554 3.95713 0.00230667 3.90063 0H3.89923L3.89926 2.54313e-06Z" transform="translate(30.9837 21.001)" fill="#212121"/>
<path d="M3.53225 0C3.46723 0.00353333 3.40036 6.3243e-05 3.33625 0.00693258L0.00693258 3.34319C-7.56855e-07 3.40526 0.0034 3.46931 0 3.53224L3.53223 2.28882e-05L3.53225 0Z" transform="translate(12.3872 21.0065)" fill="#212121"/>
<path d="M3.53086 0C3.46584 0.00353333 3.40035 6.3243e-05 3.33625 0.00693258L0.00693258 3.34319C-7.56855e-07 3.40526 0.00346667 3.46931 0 3.53224L3.53084 2.28882e-05L3.53086 0Z" transform="translate(30.9907 21.0065)" fill="#212121"/>
<path d="M4.34271 2.54313e-06L0 4.34131C0.00858 4.39185 0.0143457 4.44438 0.0250257 4.49422L4.49423 0.0250244C4.44443 0.0142911 4.39321 0.00874667 4.34271 0L4.34271 2.54313e-06Z" transform="translate(12.4317 21.0509)" fill="#212121"/>
<path d="M4.3427 2.54313e-06L0 4.34131C0.00858 4.39185 0.0143444 4.44438 0.0250244 4.49422L4.49423 0.0250244C4.44443 0.0142911 4.39321 0.00874667 4.34271 0L4.3427 2.54313e-06Z" transform="translate(31.0352 21.0509)" fill="#212121"/>
<path d="M2.81637 0C2.73158 0.01928 2.65141 0.0445949 2.56893 0.0695089L0.0625598 2.57726C0.0388664 2.65601 0.0186 2.73553 0 2.81636L2.81637 0Z" transform="translate(12.4762 21.0885)" fill="#212121"/>
<path d="M2.81637 0C2.73159 0.01928 2.65141 0.0445949 2.56893 0.0695089L0.062561 2.57726C0.0388677 2.65601 0.0186 2.73553 0 2.81636L2.81637 0Z" transform="translate(31.0797 21.0885)" fill="#212121"/>
<path d="M4.67216 2.54313e-06L0 4.67771C0.01398 4.72479 0.0287806 4.77044 0.0444806 4.81672L4.81812 0.0500488C4.76929 0.0332622 4.72188 0.0148133 4.67216 0L4.67216 2.54313e-06Z" transform="translate(12.5317 21.1525)" fill="#212121"/>
<path d="M4.67216 2.54313e-06L0 4.67771C0.0139867 4.72479 0.0287819 4.77044 0.0444819 4.81672L4.81673 0.0500488C4.7679 0.0332622 4.72188 0.0148133 4.67216 0V2.54313e-06Z" transform="translate(31.1367 21.1525)" fill="#212121"/>
<path d="M4.92377 2.54313e-06L0 4.92376C0.01826 4.96677 0.0358335 5.00948 0.0556068 5.05165L5.04471 0.0556056C5.00456 0.0367256 4.96467 0.0175067 4.92377 0L4.92377 2.54313e-06Z" transform="translate(12.6791 21.2985)" fill="#212121"/>
<path d="M4.92516 2.54313e-06L0 4.92376C0.01826 4.96677 0.0386201 5.00948 0.0583801 5.05165L5.0447 0.0556056C5.00454 0.0367256 4.96605 0.0175067 4.92516 0L4.92516 2.54313e-06Z" transform="translate(31.2812 21.2985)" fill="#212121"/>
<path d="M1.67786 0C1.52197 0.076526 1.372 0.1618 1.24693 0.24188L0.234928 1.26083C0.146621 1.39185 0.0715413 1.53024 0 1.6723L1.67786 0Z" transform="translate(12.7792 21.3915)" fill="#212121"/>
<path d="M1.67647 0C1.52058 0.076526 1.37199 0.1618 1.24693 0.24188L0.233536 1.26083C0.145222 1.39185 0.07155 1.53024 0 1.6723L1.67647 0Z" transform="translate(31.3841 21.3915)" fill="#212121"/>
<path d="M5.11422 0L0 5.11559C0.0216933 5.15439 0.0451128 5.19165 0.0681114 5.22958L5.22681 0.0708949C5.18887 0.0478015 5.15301 0.0217692 5.11422 2.54313e-06V0Z" transform="translate(12.8501 21.4736)" fill="#212121"/>
<path d="M5.11422 0L0 5.11559C0.0216933 5.15439 0.0465063 5.19165 0.0695063 5.22958L5.2296 0.0708949C5.19165 0.0478015 5.15302 0.0217692 5.11422 2.54313e-06V0Z" transform="translate(31.4522 21.4736)" fill="#212121"/>
<path d="M5.22681 0L0 5.22958C0.02356 5.26299 0.0434594 5.29708 0.0681114 5.32967L5.32829 0.0708949C5.29572 0.0462149 5.26025 0.02364 5.22681 0Z" transform="translate(13.0656 21.6891)" fill="#212121"/>
<path d="M5.2296 0L0 5.22958C0.02356 5.26299 0.0448597 5.29708 0.0695063 5.32967L5.32968 0.0708949C5.29711 0.0462149 5.26303 0.02364 5.22959 0H5.2296Z" transform="translate(31.6677 21.6891)" fill="#212121"/>
<path d="M5.29771 0L0 5.2977C0.02824 5.33018 0.0596524 5.35935 0.0889664 5.39083L5.39363 0.082016C5.36277 0.053256 5.3295 0.0277272 5.29771 2.54313e-06V0Z" transform="translate(13.2991 21.9254)" fill="#212121"/>
<path d="M5.2991 0L0 5.2977C0.02824 5.33018 0.0596517 5.35935 0.0889664 5.39083L5.39363 0.082016C5.36284 0.053256 5.33089 0.0277272 5.2991 2.54313e-06V0Z" transform="translate(31.9012 21.9254)" fill="#212121"/>
<path d="M5.29771 0L0 5.30465C0.0295533 5.33237 0.0584864 5.3599 0.0889664 5.38667L5.38668 0.0889689C5.35899 0.0573422 5.32639 0.0306765 5.29771 2.54313e-06V0Z" transform="translate(13.5702 22.1896)" fill="#212121"/>
<path d="M5.29771 0L0 5.30465C0.0295533 5.33237 0.0584857 5.3599 0.0889664 5.38667L5.38668 0.0889689C5.35899 0.0573422 5.32641 0.0306765 5.29771 2.54313e-06V0Z" transform="translate(32.1751 22.1896)" fill="#212121"/>
<path d="M5.25879 0L0 5.26016C0.0362333 5.28793 0.0697492 5.31574 0.107038 5.34218L5.33524 0.108432C5.3101 0.0730582 5.28509 0.0344525 5.25879 2.54313e-06L5.25879 0Z" transform="translate(13.8565 22.4746)" fill="#212121"/>
<path d="M5.26157 0L0 5.26016C0.0362333 5.28793 0.0697485 5.31574 0.107038 5.34218L5.33663 0.108432C5.31149 0.0730582 5.28785 0.0344525 5.26156 2.54313e-06L5.26157 0Z" transform="translate(32.4586 22.4746)" fill="#212121"/>
<path d="M5.1587 0L0 5.1573C0.0369133 5.17982 0.0748389 5.19858 0.112602 5.21986L5.22682 0.107045C5.20567 0.0695388 5.18109 0.0367163 5.1587 7.62939e-06L5.1587 0Z" transform="translate(14.179 22.8055)" fill="#212121"/>
<path d="M5.1587 0L0 5.1573C0.0369133 5.17982 0.0762402 5.19858 0.113988 5.21986L5.22959 0.107045C5.20845 0.0695388 5.18107 0.0367163 5.1587 7.62939e-06V0Z" transform="translate(32.7812 22.8055)" fill="#212121"/>
<path d="M4.99467 2.54313e-06L0 4.99466C0.0425733 5.01484 0.0830691 5.04 0.1265 5.0586L5.05722 0.126498C5.03862 0.0830112 5.01485 0.0426233 4.99466 0L4.99467 2.54313e-06Z" transform="translate(14.5266 23.1516)" fill="#212121"/>
<path d="M4.99467 2.54313e-06L0 4.99466C0.0425667 5.01484 0.0830698 5.04 0.1265 5.0586L5.05861 0.126498C5.04001 0.0830112 5.01485 0.0426233 4.99467 0L4.99467 2.54313e-06Z" transform="translate(33.1301 23.1516)" fill="#212121"/>
<path d="M4.76669 2.54313e-06L0 4.76668C0.04408 4.78183 0.0872411 4.79763 0.13206 4.81116L4.81117 0.127889C4.79809 0.0845623 4.78129 0.0426547 4.76669 0L4.76669 2.54313e-06Z" transform="translate(14.913 23.5381)" fill="#212121"/>
<path d="M4.7653 2.54313e-06L0 4.76668C0.04408 4.78183 0.0872471 4.79763 0.13206 4.81116L4.80978 0.127889C4.79669 0.0845623 4.7799 0.0426547 4.7653 0L4.7653 2.54313e-06Z" transform="translate(33.5165 23.5381)" fill="#212121"/>
<path d="M4.4692 2.54313e-06L0 4.46919C0.0504867 4.48012 0.101686 4.49091 0.152911 4.49977L4.50118 0.15152C4.49236 0.100486 4.48008 0.0503073 4.46921 0L4.4692 2.54313e-06Z" transform="translate(15.33 23.9565)" fill="#212121"/>
<path d="M4.46781 2.54313e-06L0 4.46919C0.0504867 4.48012 0.100291 4.49091 0.151522 4.49977L4.49979 0.15152C4.49097 0.100486 4.47869 0.0503073 4.46782 0L4.46781 2.54313e-06Z" transform="translate(33.9349 23.9565)" fill="#212121"/>
<path d="M4.07024 0L0 4.07023C0.0562067 4.07517 0.114083 4.08037 0.170982 4.08275L4.08275 0.164035C4.08069 0.109261 4.07495 0.0541505 4.07024 2.54313e-06V0Z" transform="translate(15.7985 24.4249)" fill="#212121"/>
<path d="M4.07024 0L0 4.07023C0.0562067 4.07517 0.11409 4.08037 0.170982 4.08275L4.08275 0.164035C4.08069 0.109261 4.07495 0.0541505 4.07024 2.54313e-06V0Z" transform="translate(34.402 24.4249)" fill="#212121"/>
<path d="M3.53783 0L0 3.53782C0.0586867 3.53462 0.119989 3.53811 0.177935 3.53229H0.184868L3.53225 0.18352C3.53246 0.181453 3.53205 0.180055 3.53225 0.177989C3.53772 0.120035 3.53512 0.0587521 3.53779 5.34058e-05L3.53783 0Z" transform="translate(16.3365 24.963)" fill="#212121"/>
<path d="M3.53922 0L0 3.53782C0.0586867 3.53462 0.119987 3.53811 0.177933 3.53229H0.183467L3.53224 0.18352C3.53246 0.181453 3.53201 0.180055 3.53224 0.177989C3.53838 0.120035 3.53637 0.0587521 3.53917 5.34058e-05L3.53922 0Z" transform="translate(34.94 24.963)" fill="#212121"/>
<path d="M2.84139 5.08626e-06L0 2.84277C0.083034 2.82423 0.165189 2.80278 0.246051 2.77883L2.77883 0.254392C2.80349 0.171635 2.82238 0.085034 2.84139 0L2.84139 5.08626e-06Z" transform="translate(16.9509 25.576)" fill="#212121"/>
<path d="M2.84278 5.08626e-06L0 2.84277C0.083034 2.82423 0.166573 2.80278 0.247442 2.77883L2.77883 0.254392C2.80349 0.171635 2.82377 0.085034 2.84278 0V5.08626e-06Z" transform="translate(35.5544 25.576)" fill="#212121"/>
<path d="M1.68203 5.08626e-06L0 1.68203C0.138057 1.61294 0.269824 1.54038 0.39757 1.45545L1.43598 0.4226C1.43878 0.4188 1.44012 0.415404 1.44292 0.411471C1.53099 0.280101 1.61077 0.14236 1.68202 0L1.68203 5.08626e-06Z" transform="translate(17.8058 26.4324)" fill="#212121"/>
<path d="M1.68343 5.08626e-06L0 1.68203C0.138057 1.61294 0.271222 1.54038 0.398961 1.45545L1.43737 0.4226C1.44017 0.4188 1.44024 0.415404 1.44291 0.411471C1.53098 0.280101 1.61216 0.14236 1.6834 0L1.68343 5.08626e-06Z" transform="translate(36.4093 26.4324)" fill="#212121"/>
<path d="M3.97433 0L0 3.97571V4.16059L4.15782 0H3.97433Z" transform="translate(9.29834 29.3988)" fill="#212121"/>
<path d="M4.51925 0L0 4.51368V4.70412L4.69579 0H4.51925Z" transform="translate(9.29834 29.3988)" fill="#212121"/>
<path d="M5.06278 0L0 5.06555V5.24209L5.24072 0H5.06278Z" transform="translate(9.29834 29.3988)" fill="#212121"/>
<path d="M5.59519 0L0 5.59657V5.78007L5.77869 0H5.59519Z" transform="translate(9.29834 29.3988)" fill="#212121"/>
<path d="M6.14012 0L0 6.14149V6.31804L6.31666 0H6.14012Z" transform="translate(9.29834 29.3988)" fill="#212121"/>
<path d="M6.67809 0L0 6.67807V6.85045L6.85463 0H6.67809Z" transform="translate(9.29834 29.3988)" fill="#212121"/>
<path d="M7.22301 0L0 7.21604V7.40093L7.394 0H7.22301Z" transform="translate(9.29834 29.3988)" fill="#212121"/>
<path d="M7.75404 0L0 7.76097V7.93195L7.93614 0H7.75404Z" transform="translate(9.29834 29.3988)" fill="#212121"/>
<path d="M8.29201 0L0 8.29894V8.47687L8.4755 0H8.29201Z" transform="translate(9.29834 29.3988)" fill="#212121"/>
<path d="M8.82998 0L0 8.83691V9.01484L9.02043 0H8.82998Z" transform="translate(9.29834 29.3988)" fill="#212121"/>
<path d="M9.36796 0L0 9.36932V9.5403L9.55145 0H9.36796Z" transform="translate(9.29834 29.3988)" fill="#212121"/>
<path d="M3.97572 0L0 3.97571V4.16059L4.15782 0H3.97572Z" transform="translate(27.9019 29.3988)" fill="#212121"/>
<path d="M4.51925 0L0 4.51368V4.70412L4.69718 0H4.51925Z" transform="translate(27.9019 29.3988)" fill="#212121"/>
<path d="M5.06417 0L0 5.06555V5.24209L5.24211 0H5.06417Z" transform="translate(27.9019 29.3988)" fill="#212121"/>
<path d="M5.59519 0L0 5.59657V5.78007L5.78008 0H5.59519Z" transform="translate(27.9019 29.3988)" fill="#212121"/>
<path d="M6.14012 0L0 6.14149V6.31804L6.31805 0H6.14012Z" transform="translate(27.9019 29.3988)" fill="#212121"/>
<path d="M6.67809 0L0 6.67807V6.85045L6.85463 0H6.67809Z" transform="translate(27.9019 29.3988)" fill="#212121"/>
<path d="M7.22162 0L0 7.21604V7.40093L7.39261 0H7.22162Z" transform="translate(27.9019 29.3988)" fill="#212121"/>
<path d="M7.75404 0L0 7.76097V7.93195L7.93753 0H7.75404Z" transform="translate(27.9019 29.3988)" fill="#212121"/>
<path d="M8.29201 0L0 8.29894V8.47687L8.4755 0H8.29201Z" transform="translate(27.9019 29.3988)" fill="#212121"/>
<path d="M8.82998 0L0 8.83691V9.01484L9.02043 0H8.82998Z" transform="translate(27.9019 29.3988)" fill="#212121"/>
<path d="M9.36796 0L0 9.36932V9.5403L9.55145 0H9.36796Z" transform="translate(27.9019 29.3988)" fill="#212121"/>
<path d="M3.60734 0.00032073C3.54362 -0.00147927 3.47081 0.00445228 3.41829 0.0142189L0.0111275 3.41164C0.00419414 3.47652 0.00306667 3.54363 0 3.60904L3.60734 0.00032073Z" transform="translate(9.3053 29.4055)" fill="#212121"/>
<path d="M9.80584 0L0 9.79886H0.184887L9.96988 0.0139008C9.9156 0.00756742 9.86052 0.00363333 9.80584 0Z" transform="translate(9.39844 29.4059)" fill="#212121"/>
<path d="M3.60873 0.00032073C3.54501 -0.00147927 3.47081 0.00445228 3.41828 0.0142189L0.0139008 3.41164C0.00696742 3.47652 0.00309333 3.54363 0 3.60904L3.60873 0.00032073Z" transform="translate(27.9074 29.4055)" fill="#212121"/>
<path d="M9.80445 0L0 9.79886H0.182103L9.96987 0.0139008C9.91559 0.00756742 9.85913 0.00363333 9.80445 0Z" transform="translate(28.0033 29.4059)" fill="#212121"/>
<path d="M9.73494 0L0 9.72797H0.176545L9.88091 0.0305812C9.83248 0.0182145 9.78386 0.0102825 9.73494 2.54313e-06V0Z" transform="translate(9.93784 29.4768)" fill="#212121"/>
<path d="M9.73494 0L0 9.72797H0.177933L9.8809 0.0305812C9.83248 0.0182145 9.78386 0.0102825 9.73494 2.54313e-06V0Z" transform="translate(28.5413 29.4768)" fill="#212121"/>
<path d="M2.89142 0C2.80339 0.0207733 2.71764 0.042039 2.63147 0.0695063L0.0681114 2.63286C0.0405648 2.71911 0.0209253 2.80472 0 2.89281L2.89142 0Z" transform="translate(9.39429 29.4949)" fill="#212121"/>
<path d="M2.89421 0C2.80618 0.0207733 2.72043 0.042039 2.63426 0.0695063L0.0695089 2.63286C0.0418822 2.71911 0.0209273 2.80472 0 2.89281L2.89421 0Z" transform="translate(27.9964 29.4949)" fill="#212121"/>
<path d="M9.61539 2.54313e-06L0 9.61398H0.183495L9.74884 0.0500463C9.70497 0.032873 9.65991 0.0154533 9.61539 0V2.54313e-06Z" transform="translate(10.4883 29.5907)" fill="#212121"/>
<path d="M9.61539 2.54313e-06L0 9.61398H0.183495L9.74745 0.0500463C9.70358 0.032873 9.65991 0.0154533 9.61539 0V2.54313e-06Z" transform="translate(29.0918 29.5907)" fill="#212121"/>
<path d="M9.46943 0L0 9.4569H0.189055L9.58342 0.0583852C9.54541 0.0386719 9.50808 0.0184118 9.46943 5.08626e-06V0Z" transform="translate(11.0138 29.7479)" fill="#212121"/>
<path d="M9.46943 0L0 9.4569H0.190447L9.58342 0.0583852C9.5454 0.0386719 9.50808 0.0184118 9.46943 5.08626e-06V0Z" transform="translate(29.6173 29.7479)" fill="#212121"/>
<path d="M1.68342 0C1.53025 0.0812487 1.38174 0.171485 1.23998 0.272461L0.284973 1.22885C0.180218 1.37479 0.083956 1.5253 0 1.68342L1.68342 0Z" transform="translate(9.72928 29.8243)" fill="#212121"/>
<path d="M1.68343 0C1.53024 0.0812487 1.38174 0.171485 1.23998 0.272461L0.283585 1.22885C0.178829 1.37479 0.0839487 1.5253 0 1.68342L1.68343 0Z" transform="translate(28.3328 29.8243)" fill="#212121"/>
<path d="M9.25953 0L0 9.26784H0.176544L9.38047 0.0708949C9.34176 0.0455215 9.29902 0.0239867 9.25953 0Z" transform="translate(11.5642 29.9369)" fill="#212121"/>
<path d="M9.26091 0L0 9.26784H0.177935L9.38047 0.0708949C9.34176 0.0455215 9.30041 0.0239867 9.26091 0Z" transform="translate(30.1678 29.9369)" fill="#212121"/>
<path d="M9.05796 0L0 9.04543H0.189054L9.15249 0.0764567C9.12101 0.0513167 9.09016 0.0241767 9.05796 0Z" transform="translate(12.0966 30.1593)" fill="#212121"/>
<path d="M9.05935 0L0 9.04543H0.191836L9.15388 0.0764567C9.1224 0.0513167 9.09156 0.0241767 9.05935 0Z" transform="translate(30.6988 30.1593)" fill="#212121"/>
<path d="M8.81052 2.54313e-06L0 8.79799H0.189055L8.90505 0.0820211C8.87487 0.0529144 8.84154 0.0281733 8.81052 0V2.54313e-06Z" transform="translate(12.6346 30.4069)" fill="#212121"/>
<path d="M8.81191 2.54313e-06L0 8.79799H0.191836L8.90783 0.0820211C8.87765 0.0529144 8.84294 0.0281733 8.81191 0V2.54313e-06Z" transform="translate(31.2367 30.4069)" fill="#212121"/>
<path d="M8.53945 0L0 8.53248H0.183496L8.62147 0.0959193C8.59405 0.064166 8.5678 0.030918 8.53945 0H8.53945Z" transform="translate(13.1781 30.6722)" fill="#212121"/>
<path d="M8.53806 0L0 8.53248H0.183495L8.62147 0.0959193C8.59405 0.064166 8.56641 0.030918 8.53806 0Z" transform="translate(31.7816 30.6722)" fill="#212121"/>
<path d="M8.25308 0L0 8.24055H0.194616L8.32954 0.10009C8.30495 0.0655567 8.27877 0.0337693 8.25308 0Z" transform="translate(13.7106 30.9642)" fill="#212121"/>
<path d="M8.25448 0L0 8.24055H0.197395L8.33094 0.10009C8.30634 0.0655567 8.28016 0.0337693 8.25448 0Z" transform="translate(32.3127 30.9642)" fill="#212121"/>
<path d="M7.91807 0L0 7.91805H0.177935L7.98757 0.108429C7.96636 0.071429 7.9405 0.03633 7.91807 0Z" transform="translate(14.2611 31.2867)" fill="#212121"/>
<path d="M7.91807 0L0 7.91805H0.176544L7.98897 0.108429C7.96775 0.071429 7.94051 0.03633 7.91807 0H7.91807Z" transform="translate(32.8646 31.2867)" fill="#212121"/>
<path d="M7.5761 0L0 7.57052H0.189056L7.6331 0.120941C7.6152 0.0805878 7.59538 0.0397513 7.5761 0Z" transform="translate(14.799 31.6343)" fill="#212121"/>
<path d="M7.57749 0L0 7.57052H0.190442L7.63309 0.120941C7.61519 0.0805878 7.59678 0.0397513 7.5775 0H7.57749Z" transform="translate(33.4025 31.6343)" fill="#212121"/>
<path d="M7.1966 0L0 7.19658H0.189054L7.24108 0.133451C7.22697 0.0888042 7.21238 0.0440933 7.1966 0H7.1966Z" transform="translate(15.337 32.0082)" fill="#212121"/>
<path d="M7.1966 0L0 7.19658H0.190445L7.24108 0.133451C7.22697 0.0888042 7.21244 0.0440933 7.1966 0Z" transform="translate(33.9405 32.0082)" fill="#212121"/>
<path d="M6.77957 0L0 6.77816H0.172373L6.80598 0.150134C6.79696 0.0997871 6.79086 0.04986 6.77957 0H6.77957Z" transform="translate(15.8805 32.4266)" fill="#212121"/>
<path d="M6.77957 0L0 6.77816H0.170985L6.80459 0.150134C6.79557 0.0997871 6.79087 0.04986 6.77957 0Z" transform="translate(34.484 32.4266)" fill="#212121"/>
<path d="M6.31805 0L0 6.30969H0.183495L6.32361 0.164032C6.32155 0.109119 6.32221 0.054568 6.31808 0H6.31805Z" transform="translate(16.413 32.8951)" fill="#212121"/>
<path d="M6.31667 0L0 6.30969H0.183497L6.32361 0.164032C6.32155 0.109119 6.32075 0.054568 6.31668 0H6.31667Z" transform="translate(35.0164 32.8951)" fill="#212121"/>
<path d="M5.77869 0L0 5.78562H0.170985L5.77869 0.184883V0Z" transform="translate(16.9634 33.4192)" fill="#212121"/>
<path d="M5.78008 0L0 5.78562H0.170985L5.78008 0.184883V0Z" transform="translate(35.5669 33.4192)" fill="#212121"/>
<path d="M5.24767 0L0 5.25321H0.177935L5.24767 0.183495V0Z" transform="translate(17.4945 33.9517)" fill="#212121"/>
<path d="M5.24767 0L0 5.25321H0.176539L5.24767 0.183495V0Z" transform="translate(36.0993 33.9517)" fill="#212121"/>
<path d="M4.70274 0L0 4.70968H0.177933L4.70274 0.184883V0Z" transform="translate(18.0394 34.4952)" fill="#212121"/>
<path d="M4.70274 0L0 4.70968H0.175151L4.70274 0.184883V0Z" transform="translate(36.6443 34.4952)" fill="#212121"/>
<path d="M4.15782 0L0 4.17171H0.164032L4.15782 0.190447V0Z" transform="translate(18.5843 35.0331)" fill="#212121"/>
<path d="M4.15921 0L0 4.17171H0.165421L4.15921 0.190447V0Z" transform="translate(37.1878 35.0331)" fill="#212121"/>
<path d="M3.6268 0L0 3.62679H0.177933L3.6268 0.177933V0Z" transform="translate(19.1153 35.5781)" fill="#212121"/>
<path d="M3.6268 0L0 3.62679H0.176544L3.6268 0.177933V0Z" transform="translate(37.7202 35.5781)" fill="#212121"/>
<path d="M3.08883 0L0 3.09577H0.183495L3.08883 0.190445V0Z" transform="translate(19.6533 36.1091)" fill="#212121"/>
<path d="M3.09021 0L0 3.09577H0.183492L3.09021 0.190445V0Z" transform="translate(38.2568 36.1091)" fill="#212121"/>
<path d="M2.54946 0L0 2.55085H0.175156L2.54946 0.183495V0Z" transform="translate(20.1927 36.6541)" fill="#212121"/>
<path d="M2.55224 0L0 2.55085H0.177933L2.55224 0.183495V0Z" transform="translate(38.7948 36.6541)" fill="#212121"/>
<path d="M2.01149 0L0 2.01288H0.182103L2.01149 0.183495V0Z" transform="translate(20.7306 37.192)" fill="#212121"/>
<path d="M2.01427 0L0 2.01288H0.184886L2.01427 0.183495V0Z" transform="translate(39.3327 37.192)" fill="#212121"/>
<path d="M1.46796 0L0 1.46935H0.170985L1.46796 0.170985V0Z" transform="translate(21.2742 37.7356)" fill="#212121"/>
<path d="M1.46935 0L0 1.46935H0.170985L1.46935 0.170985V0Z" transform="translate(39.8777 37.7356)" fill="#212121"/>
<path d="M0.935544 0L0 0.936933H0.189056L0.935544 0.190447V0Z" transform="translate(21.8065 38.2679)" fill="#212121"/>
<path d="M0.938324 0L0 0.936933H0.190445L0.938324 0.190447V0Z" transform="translate(40.4087 38.2679)" fill="#212121"/>
<path d="M0.392011 0L0 0.392011H0.177933L0.392011 0.176544V0Z" transform="translate(22.3501 38.8129)" fill="#212121"/>
<path d="M0.393402 0L0 0.392011H0.177933L0.393402 0.176544V0Z" transform="translate(40.9536 38.8129)" fill="#212121"/>
</svg>
